<svg width="244" height="52" viewBox="0 0 244 52" fill="none" xmlns="http://www.w3.org/2000/svg">
<path fillRule="evenodd" clipRule="evenodd" d="M240.185 37.926C240.65 37.912 241.113 37.9951 241.544 38.1702C241.976 38.3453 242.366 38.6087 242.69 38.9431C243.033 39.3226 243.297 39.7664 243.466 40.2488C243.636 40.7312 243.708 41.2421 243.679 41.7527V47.429H241.296V42.0491C241.313 41.7916 241.277 41.5331 241.191 41.2898C241.105 41.0465 240.971 40.8236 240.796 40.634C240.618 40.4672 240.409 40.3378 240.18 40.2537C239.951 40.1695 239.707 40.132 239.464 40.1438C239.191 40.1312 238.919 40.176 238.664 40.2747C238.409 40.3733 238.178 40.524 237.985 40.717C237.582 41.1955 237.383 41.813 237.431 42.4368V47.429H235.047V38.1838H237.431V39.22C237.738 38.7842 238.154 38.4356 238.637 38.2087C239.119 37.9819 239.653 37.8847 240.185 37.926Z" fill="#16282F"/>
<path fillRule="evenodd" clipRule="evenodd" d="M222.084 44.4786C222.595 44.9368 223.256 45.1905 223.942 45.1905C224.628 45.1905 225.29 44.9368 225.8 44.4786C226.268 43.9917 226.53 43.3423 226.53 42.6666C226.53 41.9909 226.268 41.3414 225.8 40.8546C225.29 40.3966 224.628 40.1436 223.942 40.1436C223.256 40.1436 222.595 40.3966 222.084 40.8546C221.616 41.3414 221.354 41.9909 221.354 42.6666C221.354 43.3423 221.616 43.9917 222.084 44.4786ZM226.531 38.1837H228.86V46.9839C228.898 47.602 228.79 48.2198 228.544 48.7881C228.298 49.3565 227.922 49.8593 227.446 50.2549C226.475 51.0162 225.268 51.4148 224.035 51.3819C223.124 51.4012 222.221 51.2046 221.4 50.8087C220.658 50.4423 220.048 49.8545 219.654 49.1265L221.688 47.9605C221.91 48.2915 222.197 48.5737 222.532 48.7896C222.867 49.0056 223.243 49.1508 223.637 49.2164C224.03 49.2819 224.432 49.2665 224.819 49.171C225.206 49.0754 225.57 48.9018 225.888 48.6607C226.11 48.4433 226.283 48.1805 226.395 47.8902C226.506 47.5999 226.554 47.289 226.535 46.9786V45.9786C226.194 46.4363 225.746 46.8033 225.23 47.0474C224.714 47.2915 224.147 47.4052 223.577 47.3785C222.964 47.3924 222.354 47.2774 221.789 47.0401C221.224 46.8028 220.715 46.4487 220.295 46.0015C219.446 45.0922 218.975 43.8942 218.977 42.65C218.978 41.4057 219.454 40.2086 220.306 39.3018C220.723 38.8539 221.23 38.4991 221.793 38.2603C222.357 38.0215 222.965 37.9038 223.577 37.9156C224.147 37.8892 224.715 38.0036 225.231 38.2486C225.747 38.4936 226.195 38.862 226.535 39.3209V38.1749L226.531 38.1837Z" fill="#16282F"/>
<path fillRule="evenodd" clipRule="evenodd" d="M210.867 47.429V38.1838H213.251V47.429H210.867Z" fill="#16282F"/>
<path fillRule="evenodd" clipRule="evenodd" d="M200.539 40.8097C200.539 41.0563 200.702 41.2564 201.03 41.4097C201.413 41.583 201.812 41.719 202.221 41.8165C202.698 41.9362 203.167 42.0848 203.626 42.2608C204.099 42.444 204.512 42.7556 204.818 43.1607C205.155 43.6133 205.328 44.1673 205.308 44.7315C205.329 45.1563 205.242 45.5798 205.057 45.9625C204.871 46.3451 204.592 46.6751 204.246 46.922C203.466 47.4546 202.536 47.723 201.593 47.6886C200.798 47.7647 199.999 47.5949 199.305 47.2013C198.61 46.8077 198.054 46.2097 197.711 45.4889L199.781 44.3248C199.898 44.7034 200.143 45.0299 200.473 45.2486C200.804 45.4674 201.199 45.5646 201.594 45.5245C202.444 45.5245 202.87 45.258 202.869 44.7247C202.869 44.478 202.706 44.2779 202.379 44.1246C201.995 43.9498 201.596 43.8105 201.186 43.7086C200.709 43.5819 200.24 43.4277 199.781 43.2467C199.314 43.0618 198.903 42.759 198.589 42.3678C198.252 41.9396 198.079 41.4061 198.099 40.8619C198.082 40.4484 198.165 40.0366 198.34 39.6617C198.516 39.2868 198.779 38.9596 199.107 38.7076C199.826 38.1684 200.708 37.8914 201.607 37.922C202.323 37.9136 203.03 38.0883 203.659 38.4298C204.273 38.7664 204.779 39.2699 205.119 39.8819L203.086 40.9908C202.967 40.7001 202.761 40.4531 202.496 40.2843C202.231 40.1154 201.921 40.033 201.607 40.0479C201.337 40.0368 201.07 40.1061 200.84 40.2476C200.745 40.3065 200.667 40.3897 200.614 40.4884C200.561 40.5871 200.535 40.6978 200.539 40.8097Z" fill="#16282F"/>
<path fillRule="evenodd" clipRule="evenodd" d="M185.926 41.937H190.641C190.547 41.3809 190.246 40.881 189.799 40.5371C189.378 40.2303 188.869 40.0678 188.348 40.0747C187.778 40.0528 187.217 40.2258 186.758 40.5649C186.326 40.9113 186.032 41.3991 185.926 41.9419V41.937ZM185.963 43.7861C186.111 44.3433 186.458 44.8271 186.938 45.147C187.418 45.4669 187.998 45.6009 188.57 45.5239C188.964 45.5489 189.358 45.4775 189.719 45.3164C190.08 45.1553 190.396 44.9094 190.641 44.5991L192.564 45.708C192.118 46.3557 191.513 46.8776 190.807 47.2241C190.101 47.5707 189.318 47.7303 188.533 47.687C187.858 47.7181 187.183 47.611 186.551 47.3726C185.918 47.1341 185.341 46.769 184.854 46.2998C184.152 45.6178 183.671 44.7401 183.474 43.7813C183.278 42.8224 183.374 41.8266 183.751 40.9233C184.128 40.0201 184.769 39.2514 185.589 38.7168C186.409 38.1822 187.37 37.9064 188.349 37.9258C188.976 37.9071 189.599 38.0223 190.178 38.2637C190.756 38.5051 191.276 38.8671 191.704 39.3257C192.586 40.2644 193.061 41.514 193.026 42.8018C193.023 43.1301 192.993 43.4577 192.934 43.7808H185.963V43.7861Z" fill="#16282F"/>
<path fillRule="evenodd" clipRule="evenodd" d="M170.954 44.6821C171.195 44.9228 171.482 45.1116 171.799 45.2373C172.115 45.363 172.454 45.4229 172.794 45.4131C173.133 45.4238 173.471 45.3646 173.786 45.2388C174.101 45.113 174.386 44.9234 174.625 44.6821C175.089 44.1676 175.346 43.4992 175.346 42.8062C175.346 42.1131 175.089 41.4447 174.625 40.9302C174.386 40.6891 174.101 40.4996 173.786 40.374C173.471 40.2484 173.133 40.1893 172.794 40.2002C172.454 40.1897 172.115 40.249 171.799 40.3745C171.482 40.5001 171.195 40.6893 170.954 40.9302C170.485 41.4422 170.225 42.1115 170.225 42.8062C170.225 43.5008 170.485 44.1701 170.954 44.6821ZM175.346 34.4868H177.73V47.4282H175.354V46.3359C174.999 46.7845 174.541 47.1411 174.019 47.376C173.497 47.6109 172.926 47.7173 172.354 47.686C171.753 47.6921 171.157 47.5691 170.607 47.3252C170.057 47.0813 169.566 46.722 169.167 46.272C168.315 45.318 167.844 44.084 167.844 42.8052C167.844 41.5263 168.315 40.2919 169.167 39.3379C169.566 38.8876 170.056 38.5286 170.606 38.2847C171.156 38.0407 171.753 37.9174 172.354 37.9238C172.926 37.8926 173.497 37.999 174.019 38.2339C174.541 38.4688 174.999 38.8255 175.354 39.2739L175.346 34.4868Z" fill="#16282F"/>
<path fillRule="evenodd" clipRule="evenodd" d="M98.437 28.8819C96.7833 28.9333 95.1368 28.6414 93.6018 28.024C92.0668 27.4066 90.6765 26.4771 89.5189 25.295C87.2589 22.8996 86 19.7309 86 16.4376C86 13.1443 87.2589 9.97558 89.5189 7.58015C90.6791 6.40247 92.0702 5.47738 93.6049 4.86286C95.1395 4.24834 96.7847 3.95786 98.437 4.00935C100.535 3.99167 102.601 4.51555 104.437 5.53034C106.213 6.48874 107.695 7.91149 108.725 9.64704L104.659 12.004C104.074 10.9419 103.196 10.0706 102.13 9.49323C100.634 8.72475 98.9383 8.43524 97.2726 8.66462C95.6068 8.894 94.0522 9.63087 92.8199 10.775C91.4437 12.3373 90.6843 14.3482 90.6843 16.4302C90.6843 18.5123 91.4437 20.5227 92.8199 22.085C93.5547 22.8182 94.4334 23.3909 95.4008 23.7672C96.3681 24.1434 97.4029 24.3151 98.4399 24.2711C99.7325 24.2899 101.008 23.9786 102.147 23.3663C103.209 22.8049 104.082 21.9434 104.658 20.8892L108.724 23.2471C107.698 24.9794 106.222 26.4021 104.453 27.3643C102.613 28.3822 100.541 28.9062 98.439 28.8853L98.437 28.8819ZM131.511 25.2823C129.465 27.3577 126.761 28.6583 123.863 28.962C120.964 29.2657 118.05 28.5536 115.618 26.9473C113.186 25.3411 111.387 22.9401 110.529 20.1549C109.671 17.3696 109.806 14.3729 110.912 11.6763C112.017 8.97974 114.025 6.75045 116.592 5.3697C119.158 3.98895 122.125 3.54206 124.984 4.10554C127.844 4.66902 130.419 6.20778 132.27 8.45905C134.121 10.7103 135.133 13.5348 135.133 16.4493C135.163 18.0902 134.858 19.72 134.235 21.2384C133.612 22.7567 132.685 24.1312 131.511 25.2779V25.2823ZM117.195 22.0689C118.677 23.4837 120.646 24.2735 122.695 24.2735C124.744 24.2735 126.713 23.4837 128.195 22.0689C129.622 20.542 130.415 18.5303 130.415 16.4405C130.415 14.3507 129.622 12.339 128.195 10.8121C126.718 9.38812 124.746 8.59235 122.695 8.59235C120.643 8.59235 118.672 9.38812 117.195 10.8121C115.768 12.3389 114.974 14.3506 114.974 16.4405C114.974 18.5303 115.768 20.5421 117.195 22.0689ZM152.285 4.49128H157V28.4083H153.412L143.162 13.7842V28.4083H138.447V4.49128H142.029L152.285 19.0631V4.49128ZM177.261 4.49128V9.00105H170.803V28.4083H166.088C166.088 20.4343 166.088 12.4623 166.088 4.49226L177.261 4.49128ZM188.81 28.8912C186.418 28.9867 184.078 28.1826 182.25 26.6373C181.401 25.8824 180.73 24.9477 180.287 23.9014C179.844 22.8552 179.639 21.7232 179.688 20.588V4.49616H184.369V20.213C184.34 20.7552 184.42 21.2976 184.605 21.8082C184.79 22.3187 185.076 22.7871 185.445 23.1851C186.423 23.8963 187.601 24.2794 188.81 24.2794C190.02 24.2794 191.198 23.8963 192.176 23.1851C192.545 22.7871 192.831 22.3187 193.016 21.8082C193.201 21.2976 193.281 20.7552 193.252 20.213V4.49616H197.967V20.588C198.016 21.7232 197.811 22.8552 197.368 23.9014C196.925 24.9477 196.254 25.8824 195.405 26.6373C193.566 28.1865 191.212 28.9905 188.81 28.8912ZM215.324 28.4122L210.489 20.1119H206.918V28.4122H202.203V4.49519H211.77C212.814 4.4915 213.848 4.69376 214.813 5.0904C215.778 5.48705 216.656 6.07033 217.395 6.80671C218.135 7.54309 218.722 8.41781 219.123 9.38142C219.523 10.345 219.73 11.3783 219.731 12.4219C219.735 13.8904 219.294 15.3258 218.467 16.5391C217.643 17.7873 216.482 18.7765 215.119 19.3922L220.419 28.4122H215.328H215.324ZM206.918 8.9029V15.9752H211.77C212.204 15.9775 212.634 15.8855 213.029 15.7056C213.424 15.5257 213.776 15.2622 214.059 14.9332C214.692 14.2522 215.035 13.3515 215.016 12.4219C215.037 11.4972 214.693 10.6017 214.059 9.92829C213.773 9.60382 213.421 9.3442 213.026 9.16755C212.631 8.9909 212.202 8.90091 211.77 8.90388L206.918 8.9029ZM238.905 28.4122L237.385 24.107H227.556L226.121 28.4122H221.03L229.401 4.49519H235.244L243.683 28.4122H238.905ZM229.093 19.7003H235.824L232.373 9.92829L229.093 19.7003Z" fill="#16282F"/>
<path d="M166.091 0H159.68V4.488H166.091V0Z" fill="#16282F"/>
<path d="M213.254 38.1899H210.867V39.6879H213.254V38.1899Z" fill="#16282F"/>
<path d="M210.863 36.342H208.492V38.184H210.863V36.342Z" fill="#16282F"/>
<path fillRule="evenodd" clipRule="evenodd" d="M17.8906 13.9951H55.2808V51.3838H17.8906V13.9951Z" fill="#16282F"/>
<path fillRule="evenodd" clipRule="evenodd" d="M0 0H17.9V14H0V0Z" fill="#16282F"/>
</svg>
