<svg width="321" height="314" viewBox="0 0 321 314" fill="none" xmlns="http://www.w3.org/2000/svg">
<g clip-path="url(#clip0_1186_2)">
<path d="M92.5768 59.3779H81.5078V69.442H92.5768V59.3779Z" fill="#F2F4FE"/>
<path d="M92.5768 39.25H81.5078V50.3205H92.5768V39.25Z" fill="#F2F4FE"/>
<path d="M92.5768 20.1279H81.5078V30.192H92.5768V20.1279Z" fill="#F2F4FE"/>
<path d="M92.5768 0H81.5078V11.0705H92.5768V0Z" fill="#F2F4FE"/>
<path d="M112.703 59.3779H102.641V69.442H112.703V59.3779Z" fill="#F2F4FE"/>
<path d="M112.703 39.25H102.641V50.3205H112.703V39.25Z" fill="#F2F4FE"/>
<path d="M112.703 20.1279H102.641V30.192H112.703V20.1279Z" fill="#F2F4FE"/>
<path d="M112.703 0H102.641V11.0705H112.703V0Z" fill="#F2F4FE"/>
<path d="M133.835 59.3779H122.766V69.442H133.835V59.3779Z" fill="#F2F4FE"/>
<path d="M153.961 59.3779H143.898V69.442H153.961V59.3779Z" fill="#F2F4FE"/>
<path d="M133.835 39.25H122.766V50.3205H133.835V39.25Z" fill="#F2F4FE"/>
<path d="M153.961 39.25H143.898V50.3205H153.961V39.25Z" fill="#F2F4FE"/>
<path d="M133.835 20.1279H122.766V30.192H133.835V20.1279Z" fill="#F2F4FE"/>
<path d="M153.961 20.1279H143.898V30.192H153.961V20.1279Z" fill="#F2F4FE"/>
<path d="M133.835 0H122.766V11.0705H133.835V0Z" fill="#F2F4FE"/>
<path d="M153.961 0H143.898V11.0705H153.961V0Z" fill="#F2F4FE"/>
<path d="M10.0627 59.3779H0V69.442H10.0627V59.3779Z" fill="#F2F4FE"/>
<path d="M10.0627 39.25H0V50.3205H10.0627V39.25Z" fill="#F2F4FE"/>
<path d="M10.0627 20.1279H0V30.192H10.0627V20.1279Z" fill="#F2F4FE"/>
<path d="M10.0627 0H0V11.0705H10.0627V0Z" fill="#F2F4FE"/>
<path d="M31.194 59.3779H20.125V69.442H31.194V59.3779Z" fill="#F2F4FE"/>
<path d="M31.194 39.25H20.125V50.3205H31.194V39.25Z" fill="#F2F4FE"/>
<path d="M31.194 20.1279H20.125V30.192H31.194V20.1279Z" fill="#F2F4FE"/>
<path d="M31.194 0H20.125V11.0705H31.194V0Z" fill="#F2F4FE"/>
<path d="M51.3205 59.3779H41.2578V69.442H51.3205V59.3779Z" fill="#F2F4FE"/>
<path d="M72.4518 59.3779H61.3828V69.442H72.4518V59.3779Z" fill="#F2F4FE"/>
<path d="M51.3205 39.25H41.2578V50.3205H51.3205V39.25Z" fill="#F2F4FE"/>
<path d="M72.4518 39.25H61.3828V50.3205H72.4518V39.25Z" fill="#F2F4FE"/>
<path d="M51.3205 20.1279H41.2578V30.192H51.3205V20.1279Z" fill="#F2F4FE"/>
<path d="M72.4518 20.1279H61.3828V30.192H72.4518V20.1279Z" fill="#F2F4FE"/>
<path d="M51.3205 0H41.2578V11.0705H51.3205V0Z" fill="#F2F4FE"/>
<path d="M72.4518 0H61.3828V11.0705H72.4518V0Z" fill="#F2F4FE"/>
<path d="M259.616 59.3779H248.547V69.442H259.616V59.3779Z" fill="#F2F4FE"/>
<path d="M259.616 39.25H248.547V50.3205H259.616V39.25Z" fill="#F2F4FE"/>
<path d="M259.616 20.1279H248.547V30.192H259.616V20.1279Z" fill="#F2F4FE"/>
<path d="M259.616 0H248.547V11.0705H259.616V0Z" fill="#F2F4FE"/>
<path d="M279.742 59.3779H269.68V69.442H279.742V59.3779Z" fill="#F2F4FE"/>
<path d="M279.742 39.25H269.68V50.3205H279.742V39.25Z" fill="#F2F4FE"/>
<path d="M279.742 20.1279H269.68V30.192H279.742V20.1279Z" fill="#F2F4FE"/>
<path d="M279.742 0H269.68V11.0705H279.742V0Z" fill="#F2F4FE"/>
<path d="M300.874 59.3779H289.805V69.442H300.874V59.3779Z" fill="#F2F4FE"/>
<path d="M320.999 59.3779H309.93V69.442H320.999V59.3779Z" fill="#F2F4FE"/>
<path d="M300.874 39.25H289.805V50.3205H300.874V39.25Z" fill="#F2F4FE"/>
<path d="M320.999 39.25H309.93V50.3205H320.999V39.25Z" fill="#F2F4FE"/>
<path d="M300.874 20.1279H289.805V30.192H300.874V20.1279Z" fill="#F2F4FE"/>
<path d="M320.999 20.1279H309.93V30.192H320.999V20.1279Z" fill="#F2F4FE"/>
<path d="M300.874 0H289.805V11.0705H300.874V0Z" fill="#F2F4FE"/>
<path d="M320.999 0H309.93V11.0705H320.999V0Z" fill="#F2F4FE"/>
<path d="M177.102 59.3779H167.039V69.442H177.102V59.3779Z" fill="#F2F4FE"/>
<path d="M177.102 39.25H167.039V50.3205H177.102V39.25Z" fill="#F2F4FE"/>
<path d="M177.102 20.1279H167.039V30.192H177.102V20.1279Z" fill="#F2F4FE"/>
<path d="M177.102 0H167.039V11.0705H177.102V0Z" fill="#F2F4FE"/>
<path d="M198.233 59.3779H187.164V69.442H198.233V59.3779Z" fill="#F2F4FE"/>
<path d="M198.233 39.25H187.164V50.3205H198.233V39.25Z" fill="#F2F4FE"/>
<path d="M198.233 20.1279H187.164V30.192H198.233V20.1279Z" fill="#F2F4FE"/>
<path d="M198.233 0H187.164V11.0705H198.233V0Z" fill="#F2F4FE"/>
<path d="M218.358 59.3779H207.289V69.442H218.358V59.3779Z" fill="#F2F4FE"/>
<path d="M238.485 59.3779H228.422V69.442H238.485V59.3779Z" fill="#F2F4FE"/>
<path d="M218.358 39.25H207.289V50.3205H218.358V39.25Z" fill="#F2F4FE"/>
<path d="M238.485 39.25H228.422V50.3205H238.485V39.25Z" fill="#F2F4FE"/>
<path d="M218.358 20.1279H207.289V30.192H218.358V20.1279Z" fill="#F2F4FE"/>
<path d="M238.485 20.1279H228.422V30.192H238.485V20.1279Z" fill="#F2F4FE"/>
<path d="M218.358 0H207.289V11.0705H218.358V0Z" fill="#F2F4FE"/>
<path d="M238.485 0H228.422V11.0705H238.485V0Z" fill="#F2F4FE"/>
<path d="M92.5768 140.897H81.5078V150.962H92.5768V140.897Z" fill="#F2F4FE"/>
<path d="M92.5768 120.77H81.5078V131.84H92.5768V120.77Z" fill="#F2F4FE"/>
<path d="M92.5768 101.647H81.5078V111.712H92.5768V101.647Z" fill="#F2F4FE"/>
<path d="M92.5768 81.5195H81.5078V92.59H92.5768V81.5195Z" fill="#F2F4FE"/>
<path d="M112.703 140.897H102.641V150.962H112.703V140.897Z" fill="#F2F4FE"/>
<path d="M112.703 120.77H102.641V131.84H112.703V120.77Z" fill="#F2F4FE"/>
<path d="M112.703 101.647H102.641V111.712H112.703V101.647Z" fill="#F2F4FE"/>
<path d="M112.703 81.5195H102.641V92.59H112.703V81.5195Z" fill="#F2F4FE"/>
<path d="M133.835 140.897H122.766V150.962H133.835V140.897Z" fill="#F2F4FE"/>
<path d="M153.961 140.897H143.898V150.962H153.961V140.897Z" fill="#F2F4FE"/>
<path d="M133.835 120.77H122.766V131.84H133.835V120.77Z" fill="#F2F4FE"/>
<path d="M153.961 120.77H143.898V131.84H153.961V120.77Z" fill="#F2F4FE"/>
<path d="M133.835 101.647H122.766V111.712H133.835V101.647Z" fill="#F2F4FE"/>
<path d="M153.961 101.647H143.898V111.712H153.961V101.647Z" fill="#F2F4FE"/>
<path d="M133.835 81.5195H122.766V92.59H133.835V81.5195Z" fill="#F2F4FE"/>
<path d="M153.961 81.5195H143.898V92.59H153.961V81.5195Z" fill="#F2F4FE"/>
<path d="M10.0627 140.897H0V150.962H10.0627V140.897Z" fill="#F2F4FE"/>
<path d="M10.0627 120.77H0V131.84H10.0627V120.77Z" fill="#F2F4FE"/>
<path d="M10.0627 101.647H0V111.712H10.0627V101.647Z" fill="#F2F4FE"/>
<path d="M10.0627 81.5195H0V92.59H10.0627V81.5195Z" fill="#F2F4FE"/>
<path d="M31.194 140.897H20.125V150.962H31.194V140.897Z" fill="#F2F4FE"/>
<path d="M31.194 120.77H20.125V131.84H31.194V120.77Z" fill="#F2F4FE"/>
<path d="M31.194 101.647H20.125V111.712H31.194V101.647Z" fill="#F2F4FE"/>
<path d="M31.194 81.5195H20.125V92.59H31.194V81.5195Z" fill="#F2F4FE"/>
<path d="M51.3205 140.897H41.2578V150.962H51.3205V140.897Z" fill="#F2F4FE"/>
<path d="M72.4518 140.897H61.3828V150.962H72.4518V140.897Z" fill="#F2F4FE"/>
<path d="M51.3205 120.77H41.2578V131.84H51.3205V120.77Z" fill="#F2F4FE"/>
<path d="M72.4518 120.77H61.3828V131.84H72.4518V120.77Z" fill="#F2F4FE"/>
<path d="M51.3205 101.647H41.2578V111.712H51.3205V101.647Z" fill="#F2F4FE"/>
<path d="M72.4518 101.647H61.3828V111.712H72.4518V101.647Z" fill="#F2F4FE"/>
<path d="M51.3205 81.5195H41.2578V92.59H51.3205V81.5195Z" fill="#F2F4FE"/>
<path d="M72.4518 81.5195H61.3828V92.59H72.4518V81.5195Z" fill="#F2F4FE"/>
<path d="M259.616 140.897H248.547V150.962H259.616V140.897Z" fill="#F2F4FE"/>
<path d="M259.616 120.77H248.547V131.84H259.616V120.77Z" fill="#F2F4FE"/>
<path d="M259.616 101.647H248.547V111.712H259.616V101.647Z" fill="#F2F4FE"/>
<path d="M259.616 81.5195H248.547V92.59H259.616V81.5195Z" fill="#F2F4FE"/>
<path d="M279.742 140.897H269.68V150.962H279.742V140.897Z" fill="#F2F4FE"/>
<path d="M279.742 120.77H269.68V131.84H279.742V120.77Z" fill="#F2F4FE"/>
<path d="M279.742 101.647H269.68V111.712H279.742V101.647Z" fill="#F2F4FE"/>
<path d="M279.742 81.5195H269.68V92.59H279.742V81.5195Z" fill="#F2F4FE"/>
<path d="M300.874 140.897H289.805V150.962H300.874V140.897Z" fill="#F2F4FE"/>
<path d="M320.999 140.897H309.93V150.962H320.999V140.897Z" fill="#F2F4FE"/>
<path d="M300.874 120.77H289.805V131.84H300.874V120.77Z" fill="#F2F4FE"/>
<path d="M320.999 120.77H309.93V131.84H320.999V120.77Z" fill="#F2F4FE"/>
<path d="M300.874 101.647H289.805V111.712H300.874V101.647Z" fill="#F2F4FE"/>
<path d="M320.999 101.647H309.93V111.712H320.999V101.647Z" fill="#F2F4FE"/>
<path d="M300.874 81.5195H289.805V92.59H300.874V81.5195Z" fill="#F2F4FE"/>
<path d="M320.999 81.5195H309.93V92.59H320.999V81.5195Z" fill="#F2F4FE"/>
<path d="M177.102 140.897H167.039V150.962H177.102V140.897Z" fill="#F2F4FE"/>
<path d="M177.102 120.77H167.039V131.84H177.102V120.77Z" fill="#F2F4FE"/>
<path d="M177.102 101.647H167.039V111.712H177.102V101.647Z" fill="#F2F4FE"/>
<path d="M177.102 81.5195H167.039V92.59H177.102V81.5195Z" fill="#F2F4FE"/>
<path d="M198.233 140.897H187.164V150.962H198.233V140.897Z" fill="#F2F4FE"/>
<path d="M198.233 120.77H187.164V131.84H198.233V120.77Z" fill="#F2F4FE"/>
<path d="M198.233 101.647H187.164V111.712H198.233V101.647Z" fill="#F2F4FE"/>
<path d="M198.233 81.5195H187.164V92.59H198.233V81.5195Z" fill="#F2F4FE"/>
<path d="M218.358 140.897H207.289V150.962H218.358V140.897Z" fill="#F2F4FE"/>
<path d="M238.485 140.897H228.422V150.962H238.485V140.897Z" fill="#F2F4FE"/>
<path d="M218.358 120.77H207.289V131.84H218.358V120.77Z" fill="#F2F4FE"/>
<path d="M238.485 120.77H228.422V131.84H238.485V120.77Z" fill="#F2F4FE"/>
<path d="M218.358 101.647H207.289V111.712H218.358V101.647Z" fill="#F2F4FE"/>
<path d="M238.485 101.647H228.422V111.712H238.485V101.647Z" fill="#F2F4FE"/>
<path d="M218.358 81.5195H207.289V92.59H218.358V81.5195Z" fill="#F2F4FE"/>
<path d="M238.485 81.5195H228.422V92.59H238.485V81.5195Z" fill="#F2F4FE"/>
<path d="M92.5768 222.417H81.5078V232.481H92.5768V222.417Z" fill="#F2F4FE"/>
<path d="M92.5768 202.289H81.5078V213.36H92.5768V202.289Z" fill="#F2F4FE"/>
<path d="M92.5768 183.167H81.5078V193.231H92.5768V183.167Z" fill="#F2F4FE"/>
<path d="M92.5768 163.039H81.5078V174.11H92.5768V163.039Z" fill="#F2F4FE"/>
<path d="M112.703 222.417H102.641V232.481H112.703V222.417Z" fill="#F2F4FE"/>
<path d="M112.703 202.289H102.641V213.36H112.703V202.289Z" fill="#F2F4FE"/>
<path d="M112.703 183.167H102.641V193.231H112.703V183.167Z" fill="#F2F4FE"/>
<path d="M112.703 163.039H102.641V174.11H112.703V163.039Z" fill="#F2F4FE"/>
<path d="M133.835 222.417H122.766V232.481H133.835V222.417Z" fill="#F2F4FE"/>
<path d="M153.961 222.417H143.898V232.481H153.961V222.417Z" fill="#F2F4FE"/>
<path d="M133.835 202.289H122.766V213.36H133.835V202.289Z" fill="#F2F4FE"/>
<path d="M153.961 202.289H143.898V213.36H153.961V202.289Z" fill="#F2F4FE"/>
<path d="M133.835 183.167H122.766V193.231H133.835V183.167Z" fill="#F2F4FE"/>
<path d="M153.961 183.167H143.898V193.231H153.961V183.167Z" fill="#F2F4FE"/>
<path d="M133.835 163.039H122.766V174.11H133.835V163.039Z" fill="#F2F4FE"/>
<path d="M153.961 163.039H143.898V174.11H153.961V163.039Z" fill="#F2F4FE"/>
<path d="M10.0627 222.417H0V232.481H10.0627V222.417Z" fill="#F2F4FE"/>
<path d="M10.0627 202.289H0V213.36H10.0627V202.289Z" fill="#F2F4FE"/>
<path d="M10.0627 183.167H0V193.231H10.0627V183.167Z" fill="#F2F4FE"/>
<path d="M10.0627 163.039H0V174.11H10.0627V163.039Z" fill="#F2F4FE"/>
<path d="M31.194 222.417H20.125V232.481H31.194V222.417Z" fill="#F2F4FE"/>
<path d="M31.194 202.289H20.125V213.36H31.194V202.289Z" fill="#F2F4FE"/>
<path d="M31.194 183.167H20.125V193.231H31.194V183.167Z" fill="#F2F4FE"/>
<path d="M31.194 163.039H20.125V174.11H31.194V163.039Z" fill="#F2F4FE"/>
<path d="M51.3205 222.417H41.2578V232.481H51.3205V222.417Z" fill="#F2F4FE"/>
<path d="M72.4518 222.417H61.3828V232.481H72.4518V222.417Z" fill="#F2F4FE"/>
<path d="M51.3205 202.289H41.2578V213.36H51.3205V202.289Z" fill="#F2F4FE"/>
<path d="M72.4518 202.289H61.3828V213.36H72.4518V202.289Z" fill="#F2F4FE"/>
<path d="M51.3205 183.167H41.2578V193.231H51.3205V183.167Z" fill="#F2F4FE"/>
<path d="M72.4518 183.167H61.3828V193.231H72.4518V183.167Z" fill="#F2F4FE"/>
<path d="M51.3205 163.039H41.2578V174.11H51.3205V163.039Z" fill="#F2F4FE"/>
<path d="M72.4518 163.039H61.3828V174.11H72.4518V163.039Z" fill="#F2F4FE"/>
<path d="M259.616 222.417H248.547V232.481H259.616V222.417Z" fill="#F2F4FE"/>
<path d="M259.616 202.289H248.547V213.36H259.616V202.289Z" fill="#F2F4FE"/>
<path d="M259.616 183.167H248.547V193.231H259.616V183.167Z" fill="#F2F4FE"/>
<path d="M259.616 163.039H248.547V174.11H259.616V163.039Z" fill="#F2F4FE"/>
<path d="M279.742 222.417H269.68V232.481H279.742V222.417Z" fill="#F2F4FE"/>
<path d="M279.742 202.289H269.68V213.36H279.742V202.289Z" fill="#F2F4FE"/>
<path d="M279.742 183.167H269.68V193.231H279.742V183.167Z" fill="#F2F4FE"/>
<path d="M279.742 163.039H269.68V174.11H279.742V163.039Z" fill="#F2F4FE"/>
<path d="M300.874 222.417H289.805V232.481H300.874V222.417Z" fill="#F2F4FE"/>
<path d="M320.999 222.417H309.93V232.481H320.999V222.417Z" fill="#F2F4FE"/>
<path d="M300.874 202.289H289.805V213.36H300.874V202.289Z" fill="#F2F4FE"/>
<path d="M320.999 202.289H309.93V213.36H320.999V202.289Z" fill="#F2F4FE"/>
<path d="M300.874 183.167H289.805V193.231H300.874V183.167Z" fill="#F2F4FE"/>
<path d="M320.999 183.167H309.93V193.231H320.999V183.167Z" fill="#F2F4FE"/>
<path d="M300.874 163.039H289.805V174.11H300.874V163.039Z" fill="#F2F4FE"/>
<path d="M320.999 163.039H309.93V174.11H320.999V163.039Z" fill="#F2F4FE"/>
<path d="M177.102 222.417H167.039V232.481H177.102V222.417Z" fill="#F2F4FE"/>
<path d="M177.102 202.289H167.039V213.36H177.102V202.289Z" fill="#F2F4FE"/>
<path d="M177.102 183.167H167.039V193.231H177.102V183.167Z" fill="#F2F4FE"/>
<path d="M177.102 163.039H167.039V174.11H177.102V163.039Z" fill="#F2F4FE"/>
<path d="M198.233 222.417H187.164V232.481H198.233V222.417Z" fill="#F2F4FE"/>
<path d="M198.233 202.289H187.164V213.36H198.233V202.289Z" fill="#F2F4FE"/>
<path d="M198.233 183.167H187.164V193.231H198.233V183.167Z" fill="#F2F4FE"/>
<path d="M198.233 163.039H187.164V174.11H198.233V163.039Z" fill="#F2F4FE"/>
<path d="M218.358 222.417H207.289V232.481H218.358V222.417Z" fill="#F2F4FE"/>
<path d="M238.485 222.417H228.422V232.481H238.485V222.417Z" fill="#F2F4FE"/>
<path d="M218.358 202.289H207.289V213.36H218.358V202.289Z" fill="#F2F4FE"/>
<path d="M238.485 202.289H228.422V213.36H238.485V202.289Z" fill="#F2F4FE"/>
<path d="M218.358 183.167H207.289V193.231H218.358V183.167Z" fill="#F2F4FE"/>
<path d="M238.485 183.167H228.422V193.231H238.485V183.167Z" fill="#F2F4FE"/>
<path d="M218.358 163.039H207.289V174.11H218.358V163.039Z" fill="#F2F4FE"/>
<path d="M238.485 163.039H228.422V174.11H238.485V163.039Z" fill="#F2F4FE"/>
<path d="M92.5768 303.937H81.5078V314.001H92.5768V303.937Z" fill="#F2F4FE"/>
<path d="M92.5768 283.809H81.5078V294.879H92.5768V283.809Z" fill="#F2F4FE"/>
<path d="M92.5768 264.687H81.5078V274.751H92.5768V264.687Z" fill="#F2F4FE"/>
<path d="M92.5768 244.559H81.5078V255.629H92.5768V244.559Z" fill="#F2F4FE"/>
<path d="M112.703 303.937H102.641V314.001H112.703V303.937Z" fill="#F2F4FE"/>
<path d="M112.703 283.809H102.641V294.879H112.703V283.809Z" fill="#F2F4FE"/>
<path d="M112.703 264.687H102.641V274.751H112.703V264.687Z" fill="#F2F4FE"/>
<path d="M112.703 244.559H102.641V255.629H112.703V244.559Z" fill="#F2F4FE"/>
<path d="M133.835 303.937H122.766V314.001H133.835V303.937Z" fill="#F2F4FE"/>
<path d="M153.961 303.937H143.898V314.001H153.961V303.937Z" fill="#F2F4FE"/>
<path d="M133.835 283.809H122.766V294.879H133.835V283.809Z" fill="#F2F4FE"/>
<path d="M153.961 283.809H143.898V294.879H153.961V283.809Z" fill="#F2F4FE"/>
<path d="M133.835 264.687H122.766V274.751H133.835V264.687Z" fill="#F2F4FE"/>
<path d="M153.961 264.687H143.898V274.751H153.961V264.687Z" fill="#F2F4FE"/>
<path d="M133.835 244.559H122.766V255.629H133.835V244.559Z" fill="#F2F4FE"/>
<path d="M153.961 244.559H143.898V255.629H153.961V244.559Z" fill="#F2F4FE"/>
<path d="M10.0627 303.937H0V314.001H10.0627V303.937Z" fill="#F2F4FE"/>
<path d="M10.0627 283.809H0V294.879H10.0627V283.809Z" fill="#F2F4FE"/>
<path d="M10.0627 264.687H0V274.751H10.0627V264.687Z" fill="#F2F4FE"/>
<path d="M10.0627 244.559H0V255.629H10.0627V244.559Z" fill="#F2F4FE"/>
<path d="M31.194 303.937H20.125V314.001H31.194V303.937Z" fill="#F2F4FE"/>
<path d="M31.194 283.809H20.125V294.879H31.194V283.809Z" fill="#F2F4FE"/>
<path d="M31.194 264.687H20.125V274.751H31.194V264.687Z" fill="#F2F4FE"/>
<path d="M31.194 244.559H20.125V255.629H31.194V244.559Z" fill="#F2F4FE"/>
<path d="M51.3205 303.937H41.2578V314.001H51.3205V303.937Z" fill="#F2F4FE"/>
<path d="M72.4518 303.937H61.3828V314.001H72.4518V303.937Z" fill="#F2F4FE"/>
<path d="M51.3205 283.809H41.2578V294.879H51.3205V283.809Z" fill="#F2F4FE"/>
<path d="M72.4518 283.809H61.3828V294.879H72.4518V283.809Z" fill="#F2F4FE"/>
<path d="M51.3205 264.687H41.2578V274.751H51.3205V264.687Z" fill="#F2F4FE"/>
<path d="M72.4518 264.687H61.3828V274.751H72.4518V264.687Z" fill="#F2F4FE"/>
<path d="M51.3205 244.559H41.2578V255.629H51.3205V244.559Z" fill="#F2F4FE"/>
<path d="M72.4518 244.559H61.3828V255.629H72.4518V244.559Z" fill="#F2F4FE"/>
<path d="M259.616 303.937H248.547V314.001H259.616V303.937Z" fill="#F2F4FE"/>
<path d="M259.616 283.809H248.547V294.879H259.616V283.809Z" fill="#F2F4FE"/>
<path d="M259.616 264.687H248.547V274.751H259.616V264.687Z" fill="#F2F4FE"/>
<path d="M259.616 244.559H248.547V255.629H259.616V244.559Z" fill="#F2F4FE"/>
<path d="M279.742 303.937H269.68V314.001H279.742V303.937Z" fill="#F2F4FE"/>
<path d="M279.742 283.809H269.68V294.879H279.742V283.809Z" fill="#F2F4FE"/>
<path d="M279.742 264.687H269.68V274.751H279.742V264.687Z" fill="#F2F4FE"/>
<path d="M279.742 244.559H269.68V255.629H279.742V244.559Z" fill="#F2F4FE"/>
<path d="M300.874 303.937H289.805V314.001H300.874V303.937Z" fill="#F2F4FE"/>
<path d="M320.999 303.937H309.93V314.001H320.999V303.937Z" fill="#F2F4FE"/>
<path d="M300.874 283.809H289.805V294.879H300.874V283.809Z" fill="#F2F4FE"/>
<path d="M320.999 283.809H309.93V294.879H320.999V283.809Z" fill="#F2F4FE"/>
<path d="M300.874 264.687H289.805V274.751H300.874V264.687Z" fill="#F2F4FE"/>
<path d="M320.999 264.687H309.93V274.751H320.999V264.687Z" fill="#F2F4FE"/>
<path d="M300.874 244.559H289.805V255.629H300.874V244.559Z" fill="#F2F4FE"/>
<path d="M320.999 244.559H309.93V255.629H320.999V244.559Z" fill="#F2F4FE"/>
<path d="M177.102 303.937H167.039V314.001H177.102V303.937Z" fill="#F2F4FE"/>
<path d="M177.102 283.809H167.039V294.879H177.102V283.809Z" fill="#F2F4FE"/>
<path d="M177.102 264.687H167.039V274.751H177.102V264.687Z" fill="#F2F4FE"/>
<path d="M177.102 244.559H167.039V255.629H177.102V244.559Z" fill="#F2F4FE"/>
<path d="M198.233 303.937H187.164V314.001H198.233V303.937Z" fill="#F2F4FE"/>
<path d="M198.233 283.809H187.164V294.879H198.233V283.809Z" fill="#F2F4FE"/>
<path d="M198.233 264.687H187.164V274.751H198.233V264.687Z" fill="#F2F4FE"/>
<path d="M198.233 244.559H187.164V255.629H198.233V244.559Z" fill="#F2F4FE"/>
<path d="M218.358 303.937H207.289V314.001H218.358V303.937Z" fill="#F2F4FE"/>
<path d="M238.485 303.937H228.422V314.001H238.485V303.937Z" fill="#F2F4FE"/>
<path d="M218.358 283.809H207.289V294.879H218.358V283.809Z" fill="#F2F4FE"/>
<path d="M238.485 283.809H228.422V294.879H238.485V283.809Z" fill="#F2F4FE"/>
<path d="M218.358 264.687H207.289V274.751H218.358V264.687Z" fill="#F2F4FE"/>
<path d="M238.485 264.687H228.422V274.751H238.485V264.687Z" fill="#F2F4FE"/>
<path d="M218.358 244.559H207.289V255.629H218.358V244.559Z" fill="#F2F4FE"/>
<path d="M238.485 244.559H228.422V255.629H238.485V244.559Z" fill="#F2F4FE"/>
</g>
<defs>
<clipPath id="clip0_1186_2">
<rect width="321" height="314" fill="white"/>
</clipPath>
</defs>
</svg>
