<svg width="23" height="15" viewBox="0 0 23 15" fill="none" xmlns="http://www.w3.org/2000/svg">
<path d="M2.56958 8.12013V12.744H5.42497C6.23164 12.744 6.86203 12.5443 7.3161 12.1444C7.7702 11.7448 7.99723 11.1892 7.99723 10.4776C7.99723 8.93988 7.21193 8.15404 5.63864 8.12013H2.56958ZM2.56958 6.22978H5.0911C5.88975 6.22978 6.51479 6.0487 6.9662 5.68623C7.41494 5.32376 7.64196 4.81039 7.64196 4.14635C7.64196 3.41473 7.43363 2.8864 7.01694 2.56105C6.60025 2.23572 5.95117 2.07304 5.06972 2.07304H2.56958V6.22978ZM0 14.7968V0H5.06972C6.74448 0 8.0186 0.335496 8.89205 1.00622C9.76548 1.67691 10.2036 2.67644 10.2036 4.00423C10.2036 4.68164 10.0192 5.29143 9.65329 5.8334C9.28736 6.37535 8.75314 6.79552 8.04797 7.09363C8.84665 7.31052 9.46633 7.71864 9.90172 8.31805C10.3398 8.91796 10.5588 9.63785 10.5588 10.4776C10.5588 11.8668 10.1127 12.9339 9.2206 13.6789C8.33113 14.4244 7.05435 14.7968 5.3956 14.7968H0Z" fill="white"/>
<path d="M17.437 5.57861C16.7612 5.57861 16.2136 5.81581 15.7969 6.28992C15.3802 6.7643 15.1158 7.42488 15.0009 8.2716H19.7047V8.08891C19.6513 7.26221 19.4296 6.63717 19.045 6.21379C18.6576 5.79044 18.1234 5.57861 17.437 5.57861ZM17.7334 14.9993C16.1682 14.9993 14.8994 14.5067 13.9272 13.5206C12.9549 12.5349 12.4688 11.2224 12.4688 9.58257V9.27779C12.4688 8.18025 12.6797 7.19942 13.1045 6.33587C13.5265 5.47177 14.1221 4.79972 14.8887 4.31841C15.6527 3.83761 16.5074 3.59668 17.4476 3.59668C18.9461 3.59668 20.1027 4.07452 20.9201 5.0297C21.7347 5.98515 22.1434 7.33673 22.1434 9.08469V10.0807H14.9582C15.033 10.9886 15.3375 11.7066 15.869 12.235C16.4006 12.7636 17.0683 13.0277 17.875 13.0277C19.0076 13.0277 19.9291 12.5705 20.6396 11.6556L21.9725 12.9262C21.5317 13.5833 20.9414 14.0932 20.2069 14.4557C19.4723 14.8182 18.647 14.9993 17.7334 14.9993Z" fill="white"/>
<path d="M15.2656 2.81168H20.2333V1.2207H15.2656V2.81168Z" fill="white"/>
</svg>
