<svg width="22" height="22" viewBox="0 0 22 22" fill="none" xmlns="http://www.w3.org/2000/svg">
<path d="M16.2609 18.6685C16.1383 17.953 15.6364 15.3354 14.4822 12.1428C15.1304 12.0426 15.7589 12.0023 16.3518 12.0023C18.2925 12.0023 19.8142 12.4285 20.166 12.5362C19.747 15.071 18.2964 17.2651 16.2609 18.6685ZM11 20.3065C8.86958 20.3065 6.90117 19.5843 5.33201 18.3725C5.59682 17.8501 7.52175 14.3777 12.6126 12.603C12.6166 12.6015 12.6206 12.5999 12.6245 12.5999C13.9012 15.9274 14.4387 18.7192 14.5889 19.5843C13.4822 20.0497 12.2727 20.3065 11 20.3065ZM1.70753 11.0137C1.70753 10.9385 1.70753 10.8617 1.70753 10.7845C1.7668 10.7861 1.84584 10.7861 1.95257 10.7861C3.1067 10.7861 7.11066 10.6903 11.2332 9.46426C11.4862 9.95462 11.7233 10.4525 11.9447 10.95C11.8419 10.9793 11.7391 11.0093 11.6364 11.043C6.99211 12.5449 4.43875 16.5223 4.0474 17.1709C2.58891 15.5297 1.70753 13.3736 1.70753 11.0137ZM7.00791 2.62352C7.32806 3.06481 8.91698 5.28778 10.4071 7.92317C6.41105 8.97511 2.8656 9.04355 2.00792 9.04355H1.91699C2.53359 6.20517 4.44664 3.84684 7.00791 2.62352ZM11 1.72119C13.3439 1.72119 15.4862 2.59305 17.1225 4.02967C16.8617 4.38387 15.4585 6.14261 12.3202 7.32833C10.8696 4.67119 9.28457 2.47118 8.90515 1.96063C9.57708 1.80511 10.2767 1.72119 11 1.72119ZM18.2372 5.19203C19.4941 6.74934 20.253 8.71547 20.2885 10.8573C19.8735 10.7714 18.1028 10.4422 15.9921 10.4422C15.3083 10.4422 14.5929 10.477 13.8735 10.5657C13.8103 10.4177 13.751 10.2697 13.6878 10.1216C13.498 9.68194 13.3004 9.24659 13.0909 8.81678C16.3439 7.47477 17.9131 5.6131 18.2372 5.19203ZM11 0C4.93279 0 0 4.93516 0 10.9994C0 17.0649 4.93279 22 11 22C17.0632 22 22 17.0649 22 10.9994C22 4.93516 17.0632 0 11 0Z" fill="white"/>
</svg>
