<svg width="118" height="34" viewBox="0 0 118 34" fill="none" xmlns="http://www.w3.org/2000/svg">
<path d="M0.0859375 11.4175H10.6515L21.4599 22.2259H10.6515V33.0344L0.0859375 22.2259V11.4175ZM0.0859375 0.851929H21.4599V11.4175H10.6515L0.0859375 0.851929Z" fill="#E1E4FF"/>
<path d="M41.6797 23.6833V7.7135H51.5166V10.9317H45.3837V15.1215H51.5166V18.2791H45.3837V23.6833H41.6797Z" fill="#E1E4FF"/>
<path d="M53.7031 23.6833V12.6319H57.4071V15.1215C57.4679 14.3321 57.8322 13.6642 58.3787 13.1177C58.9252 12.6319 59.6538 12.389 60.3825 12.389C60.8683 12.389 61.1112 12.6319 61.354 12.6319V15.8502H60.3825C59.5324 15.7287 58.6823 16.1538 58.1358 16.8217C57.65 17.3075 57.4071 18.279 57.4071 19.4935V23.6833H53.7031Z" fill="#E1E4FF"/>
<path d="M68.2167 21.2544C69.0061 21.3758 69.7955 20.9508 70.1598 20.2828C70.6456 19.7363 70.8885 19.0684 70.8885 18.3398C70.8885 17.5504 70.6456 16.761 70.1598 16.1538C69.674 15.6073 68.9454 15.3644 68.2167 15.4251C67.4881 15.4251 66.7594 15.668 66.2129 16.1538C65.7271 16.761 65.4235 17.5504 65.4842 18.3398C65.4842 19.0684 65.7271 19.7971 66.2129 20.2828C66.6987 20.8901 67.4273 21.2544 68.2167 21.2544ZM67.2452 24.169C65.7271 24.169 64.3305 23.5618 63.2983 22.4688C62.4482 21.2544 62.0231 19.7971 62.0838 18.279C62.0838 17.3075 62.266 16.2752 62.5696 15.3644C62.9947 14.4536 63.7233 13.7249 64.5127 13.1177C65.3021 12.6319 66.2736 12.389 67.2452 12.389C67.9738 12.4498 68.7632 12.5712 69.4311 12.8748C70.0384 13.1784 70.4634 13.7249 70.6456 14.3321V12.5712H74.3496V23.6225H70.6456V22.1652C70.342 22.7117 69.9169 23.1975 69.4311 23.6225C68.7632 23.9869 68.0346 24.1083 67.2452 24.169Z" fill="#E1E4FF"/>
<path d="M77.0859 23.6833V12.632H80.5471V14.3929C80.79 13.6643 81.2757 13.4214 81.7615 12.9356C82.3687 12.632 83.0367 12.5106 83.7653 12.4498C85.4655 12.4498 86.7407 13.1785 87.2264 14.4536C87.7122 13.9679 88.198 13.4821 88.6838 12.9963C89.4124 12.6927 90.1411 12.5713 90.9305 12.5105C93.6022 12.5105 94.8774 13.9679 94.8774 16.9432V23.8048H91.4162V17.5504C91.4162 16.9432 91.2341 16.336 90.9305 15.8502C90.5661 15.5466 90.1411 15.3645 89.6553 15.3645C89.0481 15.3037 88.5016 15.6074 88.198 16.0931C87.8337 16.7003 87.6515 17.3683 87.7122 18.0362V23.6833H84.2511V17.5504C84.2511 16.9432 84.0689 16.336 83.7653 15.8502C83.4617 15.5466 82.9759 15.3645 82.5509 15.3645C82.0044 15.4252 81.4579 15.6681 81.0936 16.0931C80.7292 16.7003 80.5471 17.3683 80.6078 18.0362V23.6833H77.0859Z" fill="#E1E4FF"/>
<path d="M100.216 17.0646H104.892C104.892 16.4574 104.709 15.8502 104.406 15.3644C103.92 14.8786 103.434 14.8786 102.706 14.8786C102.038 14.8786 101.37 15.0608 100.763 15.3644C100.398 15.8502 100.216 16.4574 100.216 17.0646ZM108.292 17.5504V19.2506H100.155C100.155 19.9185 100.398 20.5257 100.884 20.9508C101.37 21.3151 101.977 21.4973 102.584 21.4365C103.799 21.4365 104.284 21.1937 104.77 20.465H108.231C107.988 21.6187 107.26 22.5903 106.288 23.1367C105.135 23.744 103.859 24.1083 102.584 24.1083C100.641 24.1083 99.1231 23.6225 98.1515 22.4081C97.0586 21.3151 96.3906 19.7971 96.3906 18.2183C96.3906 16.5788 96.9978 15.0001 98.1515 13.7856C99.1231 12.8141 100.58 12.3283 102.584 12.3283C104.102 12.2676 105.62 12.8141 106.774 13.7856C107.806 14.8179 108.353 16.1538 108.292 17.5504Z" fill="#E1E4FF"/>
<path d="M110.297 23.6833V12.6319H113.758V15.1215C114.001 14.3929 114.426 13.7249 114.972 13.1177C115.519 12.6319 116.187 12.389 116.916 12.389C117.158 12.389 117.644 12.6319 117.887 12.6319V15.8502H116.673C115.883 15.7894 115.155 16.2145 114.73 16.8217C114.001 17.3075 113.758 18.279 113.758 19.4935V23.6833H110.297Z" fill="#E1E4FF"/>
</svg>
