<svg width="138" height="35" viewBox="0 0 138 35" fill="none" xmlns="http://www.w3.org/2000/svg">
<path d="M84.4792 26.8622H84.4335C84.4564 26.8622 84.4564 26.885 84.4792 26.885H84.5021L84.4792 26.8622ZM84.4792 26.885C84.2963 26.885 83.816 26.9765 83.3129 26.9765C81.7348 26.9765 81.186 26.2447 81.186 25.2841V18.9263H84.4106C84.5936 18.9263 84.7308 18.7662 84.7308 18.5375V15.0842C84.7308 14.9012 84.5707 14.7411 84.4106 14.7411H81.186V10.4416C81.186 10.2815 81.0716 10.19 80.8887 10.19H76.4976C76.3147 10.19 76.2232 10.3044 76.2232 10.4416V14.8555C76.2232 14.8555 74.0048 15.4043 73.8676 15.4272C73.7075 15.473 73.616 15.6102 73.616 15.7703V18.5375C73.616 18.7662 73.7761 18.9263 73.9591 18.9263H76.2003V25.6043C76.2003 30.5671 79.6537 31.0702 82.0093 31.0702C83.0842 31.0702 84.3878 30.7272 84.5936 30.6128C84.7079 30.5671 84.7765 30.4299 84.7765 30.2927V27.251C84.7765 27.068 84.6622 26.9308 84.4792 26.885ZM132.643 22.4254C132.643 18.7434 131.157 18.2631 129.602 18.4232C128.389 18.4918 127.406 19.1093 127.406 19.1093V26.2675C127.406 26.2675 128.389 26.9536 129.876 26.9994C131.957 27.0451 132.643 26.2904 132.643 22.4254ZM137.583 22.1052C137.583 29.0806 135.319 31.0702 131.385 31.0702C128.046 31.0702 126.263 29.3779 126.263 29.3779C126.263 29.3779 126.194 30.3155 126.08 30.4299C126.011 30.5442 125.919 30.59 125.782 30.59H122.786C122.58 30.59 122.398 30.4299 122.398 30.2469L122.443 7.67432C122.443 7.49136 122.603 7.33127 122.786 7.33127H127.109C127.292 7.33127 127.452 7.49136 127.452 7.67432V15.3357C127.452 15.3357 129.121 14.2608 131.568 14.2608L131.545 14.2151C133.97 14.2151 137.583 15.1299 137.583 22.1052ZM119.859 14.764H115.582C115.354 14.764 115.239 14.9241 115.239 15.1528V26.1989C115.239 26.1989 114.119 26.9765 112.586 26.9765C111.077 26.9765 110.62 26.2904 110.62 24.7581V15.107C110.62 14.9241 110.459 14.764 110.276 14.764H105.931C105.748 14.764 105.588 14.9241 105.588 15.107V25.5128C105.588 29.9725 108.081 31.0931 111.511 31.0931C114.347 31.0931 116.634 29.5379 116.634 29.5379C116.634 29.5379 116.749 30.3384 116.794 30.4527C116.84 30.5442 116.977 30.6357 117.115 30.6357H119.836C120.065 30.6357 120.179 30.4756 120.179 30.2927L120.225 15.107C120.248 14.9241 120.065 14.764 119.859 14.764ZM71.695 14.7411H67.3725C67.1896 14.7411 67.0295 14.9241 67.0295 15.1528V30.064C67.0295 30.4756 67.3039 30.6128 67.647 30.6128H71.5577C71.9694 30.6128 72.0609 30.4299 72.0609 30.064V15.0842C72.038 14.9012 71.8779 14.7411 71.695 14.7411ZM69.5452 7.85727C67.99 7.85727 66.7322 9.09225 66.7322 10.6703C66.7322 12.2254 67.9672 13.4833 69.5452 13.4833C71.0775 13.4833 72.3124 12.2483 72.3124 10.6703C72.3124 9.11512 71.0775 7.85727 69.5452 7.85727ZM103.072 7.35414H98.7729C98.59 7.35414 98.4299 7.51423 98.4299 7.69719V15.999H91.7061V7.69719C91.7061 7.51423 91.546 7.35414 91.3631 7.35414H87.0407C86.8577 7.35414 86.6976 7.51423 86.6976 7.69719V30.2698C86.6976 30.4527 86.8806 30.6128 87.0407 30.6128H91.3631C91.546 30.6128 91.7061 30.4527 91.7061 30.2698V20.6187H98.4299L98.3841 30.2698C98.3841 30.4527 98.5442 30.6128 98.7272 30.6128H103.05C103.233 30.6128 103.393 30.4527 103.393 30.2698V7.69719C103.416 7.51423 103.255 7.35414 103.072 7.35414ZM64.7196 17.3483V29.0119C64.7196 29.0805 64.6968 29.2406 64.6053 29.2635C64.6053 29.2635 62.0667 31.0702 57.8815 31.0702C52.8273 31.0702 46.8125 29.4922 46.8125 19.0407C46.8125 8.58912 52.0497 6.43935 57.1726 6.46222C61.6093 6.46222 63.3932 7.46849 63.6676 7.65145C63.7362 7.7658 63.782 7.83441 63.782 7.92589L62.9587 11.5622C62.9587 11.7452 62.7757 11.9739 62.547 11.9053C61.8152 11.6766 60.7174 11.242 58.1331 11.242C55.1371 11.242 51.9354 12.0882 51.9354 18.8348C51.9354 25.5586 54.9771 26.359 57.1726 26.359C59.0479 26.359 59.7111 26.1303 59.7111 26.1303V21.4649H56.7152C56.4865 21.4649 56.3264 21.3048 56.3264 21.1218V17.3712C56.3264 17.1882 56.4865 17.0281 56.7152 17.0281H64.3308C64.5595 17.0052 64.7196 17.1653 64.7196 17.3483Z" fill="#E1E4FF"/>
<path fill-rule="evenodd" clip-rule="evenodd" d="M17.7784 0.67627C8.1502 0.67627 0.351562 8.47491 0.351562 18.1031C0.351562 25.8103 5.3372 32.3282 12.2668 34.6381C13.1358 34.7753 13.4789 34.2722 13.4789 33.8148C13.4789 33.4031 13.456 32.0309 13.456 30.5672C9.08786 31.3677 7.94437 29.4923 7.60132 28.5318C7.39549 28.0287 6.5493 26.4735 5.81747 26.0619C5.19998 25.7417 4.33092 24.9184 5.7946 24.8955C7.16679 24.8726 8.1502 26.1533 8.47038 26.6794C10.0484 29.3094 12.5412 28.5775 13.5475 28.1202C13.7076 26.9995 14.165 26.222 14.6681 25.7874C10.8031 25.3529 6.73226 23.8435 6.73226 17.1883C6.73226 15.2901 7.41836 13.7121 8.51612 12.5C8.33316 12.0655 7.73854 10.2816 8.69908 7.88029C8.69908 7.88029 10.1627 7.42289 13.5018 9.66414C14.8968 9.27536 16.3834 9.06953 17.847 9.06953C19.3336 9.06953 20.7973 9.27536 22.1923 9.66414C25.5313 7.40002 26.9721 7.88029 26.9721 7.88029C27.9327 10.2816 27.3152 12.0655 27.1551 12.5C28.2757 13.7121 28.9389 15.2673 28.9389 17.1883C28.9389 23.8664 24.8681 25.3529 20.9802 25.7874C21.6206 26.3363 22.1694 27.3654 22.1694 29.0121C22.1694 31.3448 22.1466 33.2201 22.1466 33.7919C22.1466 34.2493 22.4668 34.7982 23.3358 34.6152C30.4255 32.2139 35.2053 25.5587 35.2053 18.0803C35.2053 8.47491 27.4067 0.67627 17.7784 0.67627Z" fill="#E1E4FF"/>
</svg>
