<svg width="82" height="34" viewBox="0 0 82 34" fill="none" xmlns="http://www.w3.org/2000/svg">
<path d="M0.242188 31.3208H16.1289V33.595H0.242188V31.3208Z" fill="#E1E4FF"/>
<path d="M0.242188 26.9586H16.1289V29.2408H0.242188V26.9586Z" fill="#E1E4FF"/>
<path d="M4.77344 22.6044H11.5878V24.8866H4.77344V22.6044Z" fill="#E1E4FF"/>
<path d="M4.77344 18.2504H11.5878V20.5326H4.77344V18.2504Z" fill="#E1E4FF"/>
<path d="M4.77344 13.8964H11.5878V16.1786H4.77344V13.8964Z" fill="#E1E4FF"/>
<path d="M4.77344 9.53406H11.5878V11.8163H4.77344V9.53406Z" fill="#E1E4FF"/>
<path d="M16.1289 5.18005H0.242188V7.46231H16.1289V5.18005Z" fill="#E1E4FF"/>
<path d="M16.1289 0.82605H0.242188V3.10831H16.1289V0.82605Z" fill="#E1E4FF"/>
<path d="M18.3906 29.2408H42.8236C43.2363 28.5367 43.5439 27.7678 43.7301 26.9585H18.3906V29.2408Z" fill="#E1E4FF"/>
<path d="M40.9284 18.2504H22.9375V20.5326H42.8303C42.3123 19.6585 41.6729 18.8897 40.9284 18.2504Z" fill="#E1E4FF"/>
<path d="M22.9375 13.8964V16.1786H40.9284C41.6892 15.5393 42.3285 14.7704 42.8303 13.8964H22.9375Z" fill="#E1E4FF"/>
<path d="M42.8237 5.18005H18.3906V7.46231H43.7301C43.5197 6.653 43.2121 5.88421 42.8237 5.18005Z" fill="#E1E4FF"/>
<path d="M35.3133 0.82605H18.3906V3.10831H41.1484C39.6269 1.70008 37.5632 0.82605 35.3133 0.82605Z" fill="#E1E4FF"/>
<path d="M29.7438 9.53418H22.9375V11.8164H29.7438V9.53418Z" fill="#E1E4FF"/>
<path d="M36.5547 11.8164H43.6766C43.8789 11.0881 43.9841 10.3192 43.9841 9.53418H36.5547V11.8164Z" fill="#E1E4FF"/>
<path d="M22.9375 22.6044H29.7438V24.8866H22.9375V22.6044Z" fill="#E1E4FF"/>
<path d="M36.5547 22.6044V24.8866H43.9841C43.9841 24.1016 43.8789 23.3328 43.6766 22.6044H36.5547Z" fill="#E1E4FF"/>
<path d="M18.3906 33.5788L35.3133 33.6031C37.5794 33.6031 39.6269 32.729 41.1564 31.3208H18.3906V33.5788Z" fill="#E1E4FF"/>
<path d="M45.6406 31.3208H56.9871V33.595H45.6406V31.3208Z" fill="#E1E4FF"/>
<path d="M45.6406 26.9587H56.9871V29.2409H45.6406V26.9587Z" fill="#E1E4FF"/>
<path d="M50.1719 22.6044H56.9862V24.8866H50.1719V22.6044Z" fill="#E1E4FF"/>
<path d="M50.1719 18.2504H56.9862V20.5326H50.1719V18.2504Z" fill="#E1E4FF"/>
<path d="M60.1434 5.18005H45.6406V7.46231H60.9284L60.1434 5.18005Z" fill="#E1E4FF"/>
<path d="M58.638 0.82605H45.6406V3.10831H59.4231L58.638 0.82605Z" fill="#E1E4FF"/>
<path d="M70.6016 31.3208H81.9562V33.595H70.6016V31.3208Z" fill="#E1E4FF"/>
<path d="M70.6016 26.9587H81.9562V29.2409H70.6016V26.9587Z" fill="#E1E4FF"/>
<path d="M70.6016 22.6044H77.4159V24.8866H70.6016V22.6044Z" fill="#E1E4FF"/>
<path d="M70.6016 18.2504H77.4159V20.5326H70.6016V18.2504Z" fill="#E1E4FF"/>
<path d="M70.5988 16.1786H77.4132V13.8964H70.5988H64.4319L63.7926 15.7417L63.1532 13.8964H56.9862H50.1719V16.1786H56.9862V14.0825L57.7066 16.1786H69.8786L70.5988 14.0825V16.1786Z" fill="#E1E4FF"/>
<path d="M77.4094 9.53418H65.9335L65.1484 11.8164H77.4094V9.53418Z" fill="#E1E4FF"/>
<path d="M68.9569 0.82605L68.1719 3.10831H81.9544V0.82605H68.9569Z" fill="#E1E4FF"/>
<path d="M63.7851 33.5788L64.57 31.3208H63L63.7851 33.5788Z" fill="#E1E4FF"/>
<path d="M62.2856 29.2409H65.2962L66.1055 26.9587H61.4844L62.2856 29.2409Z" fill="#E1E4FF"/>
<path d="M60.7544 24.8866H66.8242L67.6254 22.6044H59.9531L60.7544 24.8866Z" fill="#E1E4FF"/>
<path d="M59.2304 20.5326H68.3512L69.1282 18.2504H58.4453L59.2304 20.5326Z" fill="#E1E4FF"/>
<path d="M50.1719 11.8164H62.4329L61.6479 9.53418H50.1719V11.8164Z" fill="#E1E4FF"/>
<path d="M66.6719 7.46231H81.9597V5.18005H67.4488L66.6719 7.46231Z" fill="#E1E4FF"/>
</svg>
