<svg width="103" height="30" viewBox="0 0 103 30" fill="none" xmlns="http://www.w3.org/2000/svg">
<path d="M35.5291 17.0901C34.6625 16.6112 34.2064 16.2236 34.2064 15.6763C34.2064 14.9693 34.8222 14.536 35.8028 14.536C36.943 14.536 37.9464 15.0149 37.9464 15.0149L38.7446 12.5748C38.7446 12.5748 38.0148 12.0047 35.8484 12.0047C32.8382 12.0047 30.7401 13.7378 30.7401 16.1552C30.7401 17.5234 31.7207 18.5725 33.0206 19.325C34.0696 19.9179 34.4345 20.3512 34.4345 20.967C34.4345 21.6283 33.91 22.1528 32.9294 22.1528C31.4699 22.1528 30.1016 21.4002 30.1016 21.4002L29.2578 23.8404C29.2578 23.8404 30.5349 24.6841 32.6557 24.6841C35.7572 24.6841 37.9692 23.1562 37.9692 20.4196C38.0148 18.9145 36.8746 17.8655 35.5291 17.0901ZM47.8893 11.9591C46.3614 11.9591 45.1755 12.6888 44.2405 13.7835L44.1949 13.7607L45.5176 6.828H42.0741L38.7218 24.4561H42.1653L43.3055 18.4356C43.7616 16.1552 44.9247 14.7641 46.0193 14.7641C46.7947 14.7641 47.0911 15.2886 47.0911 16.0411C47.0911 16.52 47.0455 17.0901 46.9315 17.569L45.6316 24.4789H49.0751L50.4206 17.3638C50.5803 16.6112 50.6715 15.7219 50.6715 15.1061C50.6943 13.1221 49.6681 11.9591 47.8893 11.9591ZM58.4935 11.9591C54.3431 11.9591 51.5837 15.6991 51.5837 19.8723C51.5837 22.5405 53.2256 24.7069 56.3271 24.7069C60.4091 24.7069 63.1457 21.0582 63.1457 16.7937C63.1685 14.308 61.7318 11.9591 58.4935 11.9591ZM56.806 22.0388C55.6201 22.0388 55.1412 21.0354 55.1412 19.7811C55.1412 17.7971 56.1674 14.5816 58.0374 14.5816C59.2689 14.5816 59.6566 15.6306 59.6566 16.6569C59.6566 18.8005 58.6303 22.0388 56.806 22.0388ZM71.9939 11.9591C69.6679 11.9591 68.3452 14.0115 68.3452 14.0115H68.2996L68.5048 12.1643H65.449C65.2893 13.4186 65.0157 15.3114 64.742 16.7481L62.3475 29.3819H65.791L66.7488 24.2736H66.8173C66.8173 24.2736 67.5242 24.7297 68.8469 24.7297C72.9061 24.7297 75.5515 20.5793 75.5515 16.3832C75.5515 14.0343 74.5253 11.9591 71.9939 11.9591ZM68.7101 22.1072C67.8207 22.1072 67.2962 21.6055 67.2962 21.6055L67.8663 18.39C68.2768 16.2464 69.3942 14.8097 70.58 14.8097C71.6291 14.8097 71.9483 15.7903 71.9483 16.7025C71.9483 18.9145 70.6257 22.1072 68.7101 22.1072ZM80.4773 6.98764C79.3827 6.98764 78.4933 7.85422 78.4933 8.99446C78.4933 10.0207 79.1318 10.7276 80.1124 10.7276H80.158C81.2299 10.7276 82.1649 9.99787 82.1877 8.7208C82.2105 7.71739 81.5263 6.98764 80.4773 6.98764Z" fill="#E1E4FF"/>
<path d="M75.6328 24.4558H79.0991L81.448 12.2324H77.9589L75.6328 24.4558Z" fill="#E1E4FF"/>
<path d="M90.2122 12.187H87.8177L87.9318 11.6169C88.137 10.431 88.8212 9.38201 89.9842 9.38201C90.5999 9.38201 91.0788 9.56445 91.0788 9.56445L91.763 6.87349C91.763 6.87349 91.17 6.57703 89.893 6.57703C88.6615 6.57703 87.4529 6.9191 86.5179 7.71726C85.332 8.72067 84.7847 10.1574 84.5111 11.6169L84.4198 12.187H82.8235L82.3218 14.7867H83.9181L82.0938 24.4332H85.5373L87.3617 14.7867H89.7333L90.2122 12.187ZM98.5132 12.2326C98.5132 12.2326 96.3467 17.6601 95.3889 20.6248H95.3433C95.2749 19.667 94.4995 12.2326 94.4995 12.2326H90.8736L92.9488 23.4526C92.9944 23.7034 92.9716 23.863 92.8804 24.0227C92.4699 24.798 91.8086 25.5506 91.0104 26.0979C90.3719 26.5768 89.6421 26.8733 89.072 27.0785L90.0298 29.9975C90.7368 29.8379 92.1735 29.2678 93.4049 28.1275C94.9784 26.6452 96.4379 24.3875 97.9203 21.2861L102.139 12.2326H98.5132Z" fill="#E1E4FF"/>
<path d="M16.7632 29.2677L25.2922 27.4205C25.2922 27.4205 22.2135 6.59977 22.1907 6.46294C22.1679 6.32612 22.0539 6.2349 21.9399 6.2349C21.8258 6.2349 19.6594 6.07526 19.6594 6.07526C19.6594 6.07526 18.1543 4.57015 17.9718 4.41052C17.9262 4.36491 17.8806 4.3421 17.835 4.3193L16.7632 29.2677ZM17.4701 4.27369C17.4473 4.27369 17.4017 4.29649 17.3789 4.29649C17.3561 4.29649 17.0368 4.38771 16.5351 4.54735C16.0334 3.08784 15.144 1.74236 13.5705 1.74236C13.5249 1.74236 13.4793 1.74236 13.4337 1.74236C12.9776 1.17224 12.4303 0.921387 11.9514 0.921387C8.27981 0.921387 6.52384 5.50514 5.97653 7.83123C4.56263 8.26452 3.53642 8.58379 3.42239 8.6294C2.62423 8.88025 2.60142 8.90305 2.5102 9.65561C2.41898 10.2029 0.34375 26.2803 0.34375 26.2803L16.3755 29.2905L17.4701 4.27369ZM13.2969 5.39112C13.2969 5.43673 13.2969 5.50514 13.2969 5.55075C12.4075 5.82441 11.4269 6.12087 10.4691 6.41734C11.0164 4.3193 12.0426 3.29308 12.932 2.9054C13.16 3.49833 13.2969 4.29649 13.2969 5.39112ZM11.8374 1.90199C11.997 1.90199 12.1566 1.9476 12.3163 2.06162C11.1532 2.60894 9.87614 4.00003 9.35163 6.78221C8.57627 7.03307 7.82371 7.26111 7.11676 7.46636C7.73249 5.34551 9.2148 1.90199 11.8374 1.90199ZM12.4759 14.285C12.4759 14.285 11.5181 13.7833 10.3778 13.7833C8.66749 13.7833 8.59907 14.8551 8.59907 15.1288C8.59907 16.5883 12.4303 17.1584 12.4303 20.6019C12.4303 23.3157 10.7199 25.0488 8.39383 25.0488C5.61165 25.0488 4.19776 23.3157 4.19776 23.3157L4.95031 20.8528C4.95031 20.8528 6.40982 22.107 7.64127 22.107C8.43944 22.107 8.78151 21.4685 8.78151 21.0124C8.78151 19.0968 5.63445 19.0056 5.63445 15.8585C5.63445 13.2132 7.52725 10.6362 11.3813 10.6362C12.8636 10.6362 13.5933 11.0695 13.5933 11.0695L12.4759 14.285ZM13.9354 2.74577C14.7564 2.83699 15.2809 3.77198 15.6229 4.821C15.2125 4.95783 14.7564 5.09466 14.2547 5.25429C14.2547 5.16307 14.2547 5.07186 14.2547 4.95783C14.2547 4.06845 14.1406 3.33869 13.9354 2.74577Z" fill="#E1E4FF"/>
</svg>
