<?xml version="1.0" encoding="utf-8"?>
<!-- Generator: Adobe Illustrator 25.0.1, SVG Export Plug-In . SVG Version: 6.00 Build 0)  -->
<svg version="1.0" id="katman_1" xmlns="http://www.w3.org/2000/svg" xmlns:xlink="http://www.w3.org/1999/xlink" x="0px" y="0px"
	 viewBox="0 0 600 400" style="enable-background:new 0 0 600 400;" xml:space="preserve">
<style type="text/css">
	.st0{fill-rule:evenodd;clip-rule:evenodd;}
</style>
<path class="st0" d="M130.9,152.9l69.5-94.3c1.4-1.9,3.6-3.2,6-3.5l92.8-10.3c0.6-0.1,1.3-0.1,1.9,0l92.8,10.3
	c2.4,0.3,4.6,1.5,6,3.5l69.5,94.3c2.4,3.3,2.2,7.7-0.4,10.8L305,353.2c-2.3,2.7-6.5,3-9.2,0.7c-0.2-0.2-0.5-0.4-0.7-0.7L131.3,163.7
	C128.6,160.6,128.5,156.1,130.9,152.9z M319.8,65l69.5,71.4c1.7,1.7,4.4,1.8,6.1,0.1c0.9-0.9,1.4-2.1,1.3-3.4l-3.6-49.4
	c-0.1-0.9,0.6-1.7,1.5-1.7c0.8-0.1,1.5,0.5,1.7,1.2l13.3,53.2c0.9,3.7,3.7,6.6,7.2,7.7l35.6,11.3c0.9,0.3,1.3,1.2,1.1,2
	c-0.2,0.7-0.8,1.1-1.5,1.1h-34.7c-3.8,0-7.4,2-9.3,5.4l-80.8,138c-0.8,1.3-2.4,1.7-3.7,1c-1.2-0.7-1.7-2.2-1.1-3.5l60.2-131.7
	c1.5-3.3,0.1-7.1-3.2-8.6c-0.8-0.4-1.8-0.6-2.7-0.6H223.5c-3.6,0-6.5,2.9-6.5,6.5c0,0.9,0.2,1.9,0.6,2.7l60.2,131.7
	c0.6,1.4,0,3-1.3,3.6c-1.3,0.6-2.8,0.1-3.5-1.1l-80.8-138c-1.9-3.3-5.5-5.4-9.3-5.4h-35.7c-0.9,0-1.6-0.7-1.6-1.6
	c0-0.7,0.5-1.3,1.1-1.6l36.6-11.3c3.6-1.1,6.4-4,7.3-7.7l13.3-53.1c0.2-0.9,1.1-1.4,2-1.2c0.8,0.2,1.3,0.9,1.2,1.7l-3.5,49.4
	c-0.2,2.4,1.6,4.5,4,4.6c1.3,0.1,2.5-0.4,3.4-1.3L280.3,65c0.6-0.6,1.7-0.7,2.3,0c0.6,0.6,0.7,1.5,0.2,2.2l-50.4,65.4
	c-1.5,1.9-1.1,4.6,0.8,6.1c0.8,0.6,1.7,0.9,2.6,0.9h128.6c2.4,0,4.3-1.9,4.3-4.3c0-1-0.3-1.9-0.9-2.6l-50.4-65.4
	c-0.5-0.7-0.4-1.7,0.3-2.3C318.3,64.3,319.3,64.4,319.8,65z"/>
</svg>
