<svg width="130" height="32" viewBox="0 0 130 32" fill="none" xmlns="http://www.w3.org/2000/svg">
<path fill-rule="evenodd" clip-rule="evenodd" d="M46.5937 19.4252L46.5695 19.1008H46.2441H44.2246H43.8594L43.8743 19.4657C44.041 23.5318 46.7822 26.225 51.6574 26.225C56.3072 26.225 59.4688 23.8092 59.4688 20.1526C59.4688 18.1753 58.7829 16.7761 57.4757 15.8205C56.4702 15.0854 55.268 14.6711 53.2744 14.2389C53.1412 14.21 53.0023 14.1804 52.8359 14.1454C52.7371 14.1246 52.3827 14.0504 52.4015 14.0543C48.7809 13.2953 47.6325 12.636 47.6325 10.6723C47.6325 8.64168 49.2931 7.34856 52.0781 7.34856C54.7878 7.34856 56.5003 9.00349 56.58 11.6086L56.5904 11.9485H56.9305H58.9219H59.2807L59.2724 11.5898C59.1787 7.52904 56.4541 4.79618 52.0501 4.79618C47.7338 4.79618 44.8838 7.39342 44.8838 10.7564C44.8838 12.7281 45.569 14.1011 46.8782 15.0185C47.8756 15.7174 49.031 16.0879 51.0691 16.4994C51.1646 16.5186 51.2642 16.5385 51.3827 16.5621C51.4561 16.5766 51.539 16.593 51.6946 16.6238C53.623 17.0053 54.4739 17.2408 55.2502 17.6922C56.2138 18.2526 56.6921 19.053 56.6921 20.2928C56.6921 22.4454 54.8822 23.6726 51.7135 23.6726C48.6801 23.6726 46.7976 22.1513 46.5937 19.4252ZM65.1486 4.44557V4.09497H64.798H62.8066H62.456V4.44557V25.4817V25.8323H62.8066H64.798H65.1486V25.4817V21.731L67.983 18.9706L73.0446 25.6926L73.1498 25.8323H73.3247H75.7929H76.4993L76.0721 25.2697L69.8906 17.1275L75.5915 11.4537L76.1934 10.8546H75.3441H72.6796H72.5336L72.4308 10.9582L65.1486 18.2921V4.44557ZM90.3079 19.2691H90.6372L90.6578 18.9403C90.6614 18.8825 90.6667 18.7869 90.6721 18.6718C90.6763 18.5806 90.6798 18.4918 90.6823 18.4079C90.685 18.3169 90.6865 18.2341 90.6865 18.1611C90.6865 13.7605 87.7717 10.518 83.4641 10.518C79.1645 10.518 76.1014 13.9695 76.1014 18.3294C76.1014 22.8159 79.0257 26.1689 83.4921 26.1689C86.8693 26.1689 89.4784 24.1651 90.4184 21.1257L90.5589 20.6715H90.0835H88.0079H87.7603L87.6775 20.9048C87.0872 22.5684 85.489 23.6726 83.5202 23.6726C80.9463 23.6726 79.152 21.905 78.8288 19.2691H90.3079ZM78.9104 16.9411C79.3649 14.5809 81.1007 13.0143 83.4641 13.0143C85.9 13.0143 87.5811 14.5295 87.9488 16.9411H78.9104ZM99.5217 13.2387H99.8723V12.8881V11.2052V10.8546H99.5217H96.5906V7.1382V6.7876H96.24H94.2486H93.898V7.1382V10.8546H91.5279H91.1773V11.2052V12.8881V13.2387H91.5279H93.898V21.6391C93.898 24.3949 95.3273 25.8884 97.951 25.8884C98.4089 25.8884 98.8037 25.861 99.1352 25.815C99.34 25.7865 99.4814 25.7571 99.5594 25.7354L99.8162 25.6641V25.3976V23.6025V23.1675L99.3911 23.2599C99.3741 23.2636 99.3397 23.2706 99.2905 23.2798C99.2072 23.2954 99.1144 23.3111 99.0149 23.3258C98.76 23.3632 98.5071 23.3873 98.2743 23.3915C98.2503 23.3919 98.2267 23.3921 98.2034 23.3921C97.0541 23.3921 96.5906 22.8523 96.5906 21.4989V13.2387H99.5217ZM107.894 26.1689C111.621 26.1689 114.253 23.8105 114.913 20.4731L114.996 20.0544H114.57H112.55H112.28L112.211 20.3149C111.645 22.4447 110.108 23.6726 107.894 23.6726C105.131 23.6726 103.224 21.4927 103.224 18.3575C103.224 15.1981 105.127 13.0143 107.894 13.0143C110.108 13.0143 111.645 14.2422 112.211 16.372L112.28 16.6325H112.55H114.57H114.996L114.913 16.2138C114.253 12.8765 111.621 10.518 107.894 10.518C103.565 10.518 100.503 13.9939 100.503 18.3575C100.503 22.697 103.569 26.1689 107.894 26.1689ZM119.955 4.44557V4.09497H119.604H117.613H117.262V4.44557V25.4817V25.8323H117.613H119.604H119.955V25.4817V17.0392C119.955 14.4669 121.52 12.9582 123.896 12.9582C126.164 12.9582 127.303 14.2714 127.303 16.7587V25.4817V25.8323H127.654H129.645H129.996V25.4817V16.3661C129.996 12.8526 127.82 10.518 124.232 10.518C122.386 10.518 120.902 11.1944 119.955 12.1651V4.44557Z" fill="#E1E4FF"/>
<path fill-rule="evenodd" clip-rule="evenodd" d="M0.786465 11.3581L7.63805 2.05872C7.77607 1.87135 7.99295 1.74315 8.22956 1.71356L17.3782 0.697826C17.4373 0.687964 17.5063 0.687964 17.5655 0.697826L26.7141 1.71356C26.9507 1.74315 27.1675 1.86149 27.3056 2.05872L34.1571 11.3581C34.3937 11.6836 34.374 12.1175 34.1177 12.4232L17.9499 31.1108C17.7232 31.377 17.3091 31.4066 17.043 31.1798C17.0232 31.1601 16.9937 31.1403 16.974 31.1108L0.8259 12.4232C0.559723 12.1175 0.549864 11.6737 0.786465 11.3581ZM19.409 2.68985L26.2606 9.73098C26.4282 9.89862 26.6943 9.90849 26.8619 9.74084C26.9507 9.65209 26.9999 9.53375 26.9901 9.40555L26.6352 4.53396C26.6253 4.4452 26.6943 4.36631 26.7831 4.36631C26.8619 4.35645 26.9309 4.41562 26.9507 4.48465L28.2618 9.73098C28.3505 10.0959 28.6266 10.3818 28.9716 10.4903L32.4812 11.6047C32.5699 11.6343 32.6094 11.723 32.5897 11.8019C32.5699 11.8709 32.5108 11.9104 32.4418 11.9104H29.0209C28.6463 11.9104 28.2914 12.1076 28.1041 12.4429L20.1385 26.0518C20.0596 26.18 19.9019 26.2194 19.7737 26.1504C19.6554 26.0814 19.6061 25.9335 19.6653 25.8053L25.6001 12.8176C25.7479 12.4922 25.6099 12.1175 25.2846 11.9695C25.2057 11.9301 25.1071 11.9104 25.0184 11.9104H9.91534C9.56044 11.9104 9.27455 12.1964 9.27455 12.5514C9.27455 12.6401 9.29426 12.7387 9.3337 12.8176L15.2685 25.8053C15.3276 25.9433 15.2685 26.1011 15.1403 26.1603C15.0121 26.2194 14.8643 26.1701 14.7952 26.0518L6.82966 12.4429C6.64235 12.1175 6.28745 11.9104 5.91283 11.9104H2.39338C2.30466 11.9104 2.23565 11.8413 2.23565 11.7526C2.23565 11.6836 2.28494 11.6244 2.34409 11.5948L5.95227 10.4805C6.30717 10.372 6.5832 10.086 6.67193 9.72112L7.9831 4.48465C8.00281 4.3959 8.09154 4.34659 8.18026 4.36631C8.25913 4.38603 8.30842 4.45507 8.29857 4.53396L7.95352 9.40555C7.93381 9.64223 8.11126 9.84932 8.34786 9.85918C8.47602 9.86904 8.59432 9.81973 8.68304 9.73098L15.5149 2.68985C15.5741 2.63068 15.6825 2.62082 15.7417 2.68985C15.8008 2.74902 15.8107 2.83778 15.7614 2.90681L10.7927 9.35624C10.6449 9.54361 10.6843 9.80987 10.8716 9.95779C10.9505 10.017 11.0392 10.0465 11.1279 10.0465H23.8058C24.0424 10.0465 24.2297 9.85918 24.2297 9.6225C24.2297 9.52389 24.2002 9.43513 24.141 9.3661L19.1724 2.91667C19.1231 2.84764 19.1329 2.74902 19.202 2.68985C19.2611 2.62082 19.3597 2.63068 19.409 2.68985Z" fill="#E1E4FF"/>
</svg>
