<svg width="78" height="33" viewBox="0 0 78 33" fill="none" xmlns="http://www.w3.org/2000/svg">
<path fillRule="evenodd" clipRule="evenodd" d="M77.9633 16.7625C77.9633 11.2184 75.2779 6.84364 70.1452 6.84364C64.9908 6.84364 61.8722 11.2184 61.8722 16.7192C61.8722 23.238 65.5539 26.5298 70.8382 26.5298C73.4154 26.5298 75.3645 25.9451 76.8372 25.1221V20.7907C75.3645 21.5271 73.6752 21.9819 71.5312 21.9819C69.4305 21.9819 67.568 21.2455 67.3297 18.69H77.92C77.92 18.4085 77.9633 17.2823 77.9633 16.7625ZM67.2648 14.7051C67.2648 12.2579 68.7591 11.24 70.1235 11.24C71.4446 11.24 72.8523 12.2579 72.8523 14.7051H67.2648Z" fill="#E1E4FF"/>
<path fillRule="evenodd" clipRule="evenodd" d="M53.5152 6.84364C51.3929 6.84364 50.0285 7.83987 49.2705 8.53289L48.9889 7.19016H44.2244V32.4422L49.6386 31.2944L49.6603 25.1655C50.4399 25.7285 51.5878 26.5298 53.4936 26.5298C57.3702 26.5298 60.9003 23.4112 60.9003 16.546C60.8786 10.2654 57.3052 6.84364 53.5152 6.84364ZM52.2158 21.7653C50.9381 21.7653 50.1801 21.3105 49.6603 20.7474L49.6386 12.7127C50.2017 12.0846 50.9814 11.6515 52.2158 11.6515C54.1866 11.6515 55.551 13.8605 55.551 16.6976C55.551 19.5996 54.2083 21.7653 52.2158 21.7653Z" fill="#E1E4FF"/>
<path fillRule="evenodd" clipRule="evenodd" d="M36.7721 5.56585L42.208 4.39637V0L36.7721 1.14782V5.56585Z" fill="#E1E4FF"/>
<path d="M42.208 7.21155H36.7721V26.1614H42.208V7.21155Z" fill="#E1E4FF"/>
<path fillRule="evenodd" clipRule="evenodd" d="M30.9483 8.81437L30.6018 7.21175H25.9238V26.1616H31.3381V13.319C32.6159 11.6514 34.7816 11.9546 35.4529 12.1929V7.21175C34.7599 6.95187 32.226 6.47541 30.9483 8.81437Z" fill="#E1E4FF"/>
<path fillRule="evenodd" clipRule="evenodd" d="M20.1096 2.51232L14.8253 3.63848L14.8036 20.9857C14.8036 24.191 17.2076 26.5516 20.4128 26.5516C22.1887 26.5516 23.4881 26.2267 24.2028 25.8369V21.4405C23.5097 21.7221 20.0879 22.7183 20.0879 19.5131V11.8248H24.2028V7.21189H20.0879L20.1096 2.51232Z" fill="#E1E4FF"/>
<path fillRule="evenodd" clipRule="evenodd" d="M5.47922 12.7127C5.47922 11.8681 6.17224 11.5432 7.32006 11.5432C8.96599 11.5432 11.0451 12.0413 12.691 12.9293V7.83987C10.8935 7.12519 9.11759 6.84364 7.32006 6.84364C2.92369 6.84364 0 9.13929 0 12.9726C0 18.9499 8.22965 17.997 8.22965 20.5742C8.22965 21.5704 7.36337 21.8953 6.15058 21.8953C4.35305 21.8953 2.05741 21.1589 0.238226 20.1627V25.3171C2.25233 26.1833 4.28808 26.5515 6.15058 26.5515C10.6552 26.5515 13.7522 24.3208 13.7522 20.4442C13.7305 13.9904 5.47922 15.1383 5.47922 12.7127Z" fill="#E1E4FF"/>
</svg>
