<svg width="139" height="39" viewBox="0 0 139 39" fill="none" xmlns="http://www.w3.org/2000/svg">
<path fill-rule="evenodd" clip-rule="evenodd" d="M65.1728 22.5654L58.6728 8.76208C58.4294 8.27518 57.9425 7.86133 57.3825 7.86133C56.8226 7.86133 56.2383 8.27518 56.0923 8.76208L49.5923 22.5654C49.5193 22.7358 49.4219 22.9793 49.4219 23.2227C49.4219 24.0504 50.0792 24.6104 50.8095 24.6104C51.3694 24.6104 51.9537 24.1965 52.0998 23.7096L53.39 21.0317H61.3507L62.641 23.7096C62.8844 24.1965 63.3713 24.6104 63.9312 24.6104C64.7589 24.6104 65.3189 23.9531 65.3189 23.2227C65.3189 22.9793 65.3189 22.7358 65.1728 22.5654ZM54.7777 18.1834L57.4556 12.4868L60.1335 18.1834H54.7777Z" fill="#848484"/>
<path fill-rule="evenodd" clip-rule="evenodd" d="M71.9909 24.5135C73.5246 24.5135 74.9123 23.9536 75.9591 23.1259C76.0321 23.0528 76.1295 22.9555 76.2025 22.8824C76.3729 22.639 76.519 22.3225 76.519 21.9817C76.519 21.154 75.8617 20.594 75.1314 20.594C74.8149 20.594 74.4741 20.7645 74.2306 20.9105C74.1576 20.9836 74.0602 20.9836 73.9872 21.0809C73.4272 21.4948 72.7699 21.6409 72.0396 21.6409C70.092 21.6409 68.7044 20.1072 68.7044 18.1596C68.7044 16.212 70.1651 14.6783 72.0396 14.6783C72.7699 14.6783 73.4272 14.9218 73.9872 15.2382C74.0602 15.3113 74.1576 15.3113 74.2306 15.4087C74.4741 15.6521 74.7905 15.7251 75.1314 15.7251C75.9591 15.7251 76.519 15.0678 76.519 14.3375C76.519 14.021 76.446 13.6802 76.2025 13.4367C76.1295 13.3637 76.0321 13.2663 75.9591 13.1933C74.9123 12.2926 73.5246 11.8057 71.9909 11.8057C68.5096 11.8057 65.7344 14.654 65.7344 18.0622C65.7344 21.7626 68.5096 24.5135 71.9909 24.5135Z" fill="#848484"/>
<path fill-rule="evenodd" clip-rule="evenodd" d="M78.6641 13.3886V18.2575V23.1264C78.6641 23.9541 79.3214 24.5141 80.0517 24.5141C80.8794 24.5141 81.4393 23.8568 81.4393 23.1264V18.2575C81.4393 16.31 82.973 14.7763 84.9206 14.7763C85.7483 14.7763 86.3083 14.119 86.3083 13.3886C86.3083 12.5609 85.6509 12.001 84.9206 12.001C83.6304 12.001 82.4131 12.4148 81.4393 13.0478C81.2689 12.3905 80.709 12.001 80.0517 12.001C79.224 12.001 78.6641 12.5852 78.6641 13.3886Z" fill="#848484"/>
<path fill-rule="evenodd" clip-rule="evenodd" d="M92.8503 21.7631C90.9027 21.7631 89.5151 20.2294 89.5151 18.2819C89.5151 16.3343 90.9758 14.8006 92.8503 14.8006C94.7979 14.8006 96.1855 16.3343 96.1855 18.2819C96.1855 20.2051 94.7492 21.7631 92.8503 21.7631ZM92.8503 12.001C89.369 12.001 86.5938 14.8493 86.5938 18.2575C86.5938 21.7388 89.4421 24.5141 92.8503 24.5141C96.3316 24.5141 99.1068 21.6658 99.1068 18.2575C99.1068 14.7763 96.3559 12.001 92.8503 12.001Z" fill="#848484"/>
<path fill-rule="evenodd" clip-rule="evenodd" d="M107.382 21.7628C105.434 21.7628 104.046 20.2291 104.046 18.2816C104.046 16.334 105.507 14.8003 107.382 14.8003C109.329 14.8003 110.717 16.334 110.717 18.2816C110.717 20.2048 109.329 21.7628 107.382 21.7628ZM103.9 9.1767C103.9 8.44637 103.243 7.78906 102.513 7.78906C101.782 7.78906 101.125 8.34899 101.125 9.1767V18.1842V23.0531C101.125 23.8808 101.782 24.4407 102.513 24.4407C103.17 24.4407 103.73 23.9538 103.9 23.3939C104.874 24.0512 106.091 24.4407 107.382 24.4407C110.863 24.4407 113.638 21.5924 113.638 18.1842C113.638 14.7029 110.79 11.9276 107.382 11.9276C106.091 11.9276 104.874 12.3415 103.9 12.9744V9.1767Z" fill="#848484"/>
<path fill-rule="evenodd" clip-rule="evenodd" d="M115.855 13.4613V23.2235C115.855 24.0512 116.513 24.6111 117.243 24.6111C118.071 24.6111 118.63 23.9538 118.63 23.2235V13.4613C118.63 12.6336 117.973 12.0737 117.243 12.0737C116.415 12.098 115.855 12.658 115.855 13.4613ZM117.243 7.78906C118.071 7.78906 118.704 8.44637 118.704 9.24973C118.704 10.0774 118.046 10.7104 117.243 10.7104C116.415 10.7104 115.782 10.0531 115.782 9.24973C115.685 8.42202 116.415 7.78906 117.243 7.78906Z" fill="#848484"/>
<path fill-rule="evenodd" clip-rule="evenodd" d="M122.435 10.5399V11.9276C121.607 11.9276 121.047 12.5849 121.047 13.3152C121.047 14.1429 121.704 14.7028 122.435 14.7028V20.9594C122.435 22.9069 123.968 24.4406 125.916 24.4406C126.744 24.4406 127.303 23.7833 127.303 23.053C127.303 22.2253 126.646 21.6654 125.916 21.6654C125.502 21.6654 125.185 21.3489 125.185 20.935V14.6785H125.843C126.573 14.6785 127.23 14.0212 127.23 13.2908C127.23 12.5605 126.573 11.9032 125.843 11.9032H125.112V10.5156C125.112 9.68786 124.455 9.12793 123.725 9.12793C122.994 9.17662 122.435 9.80958 122.435 10.5399Z" fill="#848484"/>
<path fill-rule="evenodd" clip-rule="evenodd" d="M136.815 15.0923C137.96 14.6784 138.033 13.1447 136.986 12.5848C136.815 12.5118 136.669 12.4144 136.499 12.4144C134.868 11.7571 132.75 11.6841 131.387 12.244C130.559 12.5605 129.853 13.2178 129.439 14.0455C128.879 15.3357 129.123 17.1372 130.486 18.111C131.776 19.0848 133.651 19.4987 134.624 20.1316C135.671 20.7889 135.282 21.5192 134.138 21.5923C132.92 21.6653 131.046 21.0324 130.388 21.0324C128.928 21.0324 128.514 22.9799 129.658 23.6372C132.02 24.9275 136.085 25.1709 137.619 22.5904C138.106 21.7627 138.276 20.8863 138.033 20.0829C137.473 17.8189 133.894 17.1616 132.433 16.2608C131.533 15.7009 131.703 14.8732 132.847 14.8002C133.334 14.8002 134.138 14.8732 135.525 15.1166C136.061 15.1897 136.304 15.3357 136.815 15.0923Z" fill="#848484"/>
<path fill-rule="evenodd" clip-rule="evenodd" d="M8.52656 0H30.461C35.1838 0 39.079 3.82209 39.079 8.52059V30.455C39.079 35.1779 35.2569 38.9756 30.5584 38.9756H8.62394C3.9011 38.9756 0.10335 35.1535 0.10335 30.455V8.54493C0.0059716 3.84644 3.9011 0 8.52656 0Z" fill="#9F9F9F"/>
<path fill-rule="evenodd" clip-rule="evenodd" d="M0 25.927L7.13295 13.5843C8.42321 11.3203 10.7846 9.93262 13.3895 9.93262H19.4756L17.3577 11.7341C18.015 12.3914 18.5749 13.1948 19.0618 14.0955L29.5543 32.1348C30.2846 33.3521 30.6985 34.5693 30.7715 35.8839C29.2378 37.7584 26.8764 38.8783 24.2715 38.8783H13.4138H7.05992C3.09176 38.1479 0 34.6667 0 30.5038V25.927Z" fill="#848484"/>
<path fill-rule="evenodd" clip-rule="evenodd" d="M1.63281 35.4209C1.70585 34.2767 2.04667 33.2299 2.60659 32.183L13.2452 13.7542C14.5354 11.4902 16.8968 10.1025 19.5017 10.1025C22.1796 10.1025 23.8837 11.904 25.2714 14.1681L35.7395 32.2074C36.4698 33.4246 36.8837 34.6418 36.9567 35.9564C35.423 37.831 33.0616 38.9508 30.4567 38.9508H19.5017H8.52232C5.69835 38.9995 3.16652 37.6119 1.63281 35.4209Z" fill="#9F9F9F"/>
<path fill-rule="evenodd" clip-rule="evenodd" d="M24.052 39.0002L13.4134 20.6444C12.5127 19.1107 12.1962 17.4066 12.5857 15.7025C12.9996 13.7549 14.2168 12.0508 15.9939 10.9796C17.625 10.0059 19.5726 9.76241 21.3497 10.2493C23.1512 10.7362 24.6849 11.9534 25.6587 13.5845L36.5407 32.3298C37.1007 33.3036 37.4415 34.3504 37.4415 35.4216C35.9078 37.6126 33.3759 39.0002 30.4546 39.0002H24.052Z" fill="#848484"/>
<path d="M59.0312 35.6405L60.3215 34.8858C60.5893 35.397 61.0032 35.6648 61.6118 35.6648C62.1717 35.6648 62.5369 35.397 62.5369 35.0319C62.5369 34.6667 62.05 34.545 61.1979 34.3502C60.0294 34.0824 59.2747 33.6199 59.2747 32.6461C59.2747 31.5749 60.3702 30.8446 61.5631 30.8446C62.5856 30.8446 63.2915 31.1124 63.9245 31.9158L62.6829 32.6218C62.4395 32.2079 62.0987 32.0131 61.5874 32.0131C61.0518 32.0131 60.7597 32.2566 60.7597 32.5731C60.7597 32.9626 61.344 33.0356 62.1474 33.2547C63.2429 33.5225 64.0706 33.912 64.0706 34.9832C64.0706 36.103 62.9751 36.8821 61.5874 36.8821C60.4676 36.8577 59.5912 36.5656 59.0312 35.6405ZM64.8739 36.7116V31.6967L66.3346 30.8446V36.6873H64.8739V36.7116ZM67.3571 36.7116V33.6442C67.3571 32.0618 68.5256 30.869 70.1324 30.869C71.7634 30.869 72.9076 32.1592 72.9076 33.6442V36.7116H71.4226V33.7416C71.4226 32.8409 70.8627 32.3053 70.1324 32.3053C69.329 32.3053 68.8421 32.8652 68.8421 33.7416V36.7116H67.3571ZM73.6867 33.8633C73.6867 32.1105 74.9526 30.869 76.7297 30.869C77.8252 30.869 78.8234 31.4289 79.2859 32.3296L78.02 33.0843C77.7765 32.6218 77.2897 32.3053 76.7054 32.3053C75.829 32.3053 75.196 32.9626 75.196 33.8877C75.196 34.7884 75.8046 35.4944 76.7054 35.4944C77.2897 35.4944 77.8009 35.2023 78.0443 34.7154L79.3103 35.4457C78.799 36.3465 77.8252 36.9307 76.7297 36.9307C74.9769 36.8577 73.6867 35.6161 73.6867 33.8633ZM80.1136 36.7116V29.2622L81.5743 28.4102V31.2828C81.8908 31.0394 82.4507 30.8446 82.9376 30.8446C84.5443 30.8446 85.6642 31.9401 85.6642 33.5712V36.6873H84.1792V33.7173C84.1792 32.8165 83.6192 32.2809 82.8889 32.2809C82.0855 32.2809 81.5986 32.8409 81.5986 33.7173V36.6873H80.1136V36.7116Z" fill="#848484"/>
<path d="M55.5807 31.063V36.6866H54.6069V35.7128C54.1444 36.3944 53.4384 36.8326 52.4889 36.8326C50.9309 36.8326 49.6406 35.5424 49.6406 33.8626C49.6406 32.2072 50.9309 30.8926 52.4889 30.8926C53.4384 30.8926 54.1687 31.3308 54.6069 32.0124V31.0386H55.5807V31.063ZM54.5826 33.887C54.5826 32.7428 53.7062 31.8664 52.5863 31.8664C51.4665 31.8664 50.5901 32.7428 50.5901 33.887C50.5901 35.0312 51.4665 35.9076 52.5863 35.9076C53.7305 35.9076 54.5826 35.0312 54.5826 33.887Z" fill="#848484"/>
<path d="M89.1719 33.887C89.1719 32.2316 90.4378 30.917 92.1419 30.917C93.2618 30.917 94.2112 31.5013 94.6251 32.402L93.7973 32.8646C93.5052 32.2559 92.8966 31.8664 92.1419 31.8664C91.0221 31.8664 90.17 32.7428 90.17 33.8627C90.17 34.9825 91.0221 35.8589 92.1419 35.8589C92.8966 35.8589 93.5296 35.4694 93.846 34.8851L94.6737 35.372C94.2112 36.2484 93.2374 36.8327 92.1419 36.8327C90.4134 36.8571 89.1719 35.5425 89.1719 33.887Z" fill="#848484"/>
<path d="M95.2344 33.887C95.2344 32.2316 96.549 30.917 98.2044 30.917C99.8598 30.917 101.174 32.2073 101.174 33.887C101.174 35.5425 99.8355 36.8571 98.2044 36.8571C96.5733 36.8571 95.2344 35.5425 95.2344 33.887ZM100.176 33.887C100.176 32.7428 99.2999 31.8908 98.1801 31.8908C97.0602 31.8908 96.2082 32.7672 96.2082 33.887C96.2082 35.0312 97.0846 35.8833 98.1801 35.8833C99.3243 35.8833 100.176 35.0312 100.176 33.887Z" fill="#848484"/>
<path d="M110.524 33.2049V36.7106H109.55V33.2536C109.55 32.3529 109.063 31.8903 108.308 31.8903C107.529 31.8903 106.921 32.3772 106.921 33.5945V36.7349H105.947V33.278C105.947 32.3772 105.484 31.9147 104.754 31.9147C103.999 31.9147 103.318 32.4016 103.318 33.6188V36.7592H102.344V31.1357H103.318V31.8903C103.731 31.2574 104.316 30.9896 104.997 30.9896C105.752 30.9896 106.336 31.3304 106.653 31.939C107.042 31.3061 107.7 30.9896 108.43 30.9896C109.647 30.9166 110.524 31.793 110.524 33.2049Z" fill="#848484"/>
<path d="M117.823 33.887C117.823 35.5425 116.533 36.8571 114.975 36.8571C114.025 36.8571 113.295 36.4189 112.857 35.7372V38.9507H111.883V31.0631H112.857V32.0368C113.295 31.3552 114.025 30.917 114.975 30.917C116.557 30.917 117.823 32.2073 117.823 33.887ZM116.849 33.887C116.849 32.7428 115.973 31.8664 114.853 31.8664C113.709 31.8664 112.857 32.7428 112.857 33.887C112.857 35.0312 113.733 35.9076 114.853 35.9076C115.997 35.9076 116.849 35.0312 116.849 33.887Z" fill="#848484"/>
<path d="M124.643 31.063V36.6866H123.669V35.7128C123.231 36.3944 122.501 36.8326 121.551 36.8326C119.993 36.8326 118.703 35.5424 118.703 33.8626C118.703 32.2072 119.993 30.8926 121.551 30.8926C122.501 30.8926 123.231 31.3308 123.669 32.0124V31.0386H124.643V31.063ZM123.669 33.887C123.669 32.7428 122.793 31.8664 121.673 31.8664C120.553 31.8664 119.677 32.7428 119.677 33.887C119.677 35.0312 120.553 35.9076 121.673 35.9076C122.793 35.9076 123.669 35.0312 123.669 33.887Z" fill="#848484"/>
<path d="M131.115 33.2537V36.7106H130.141V33.3023C130.141 32.3773 129.605 31.866 128.753 31.866C127.853 31.866 127.122 32.4016 127.122 33.7162V36.7106H126.148V31.087H127.122V31.8904C127.536 31.2331 128.169 30.9409 128.948 30.9409C130.238 30.9166 131.115 31.793 131.115 33.2537Z" fill="#848484"/>
<path d="M137.328 31.0625L135.039 37.0513C134.577 38.3172 133.7 39.0232 132.532 38.9501V38.0494C133.286 38.0981 133.749 37.6355 134.041 36.9052L134.138 36.6861L131.68 31.0868H132.727L134.65 35.4932L136.281 31.0868H137.328V31.0625Z" fill="#848484"/>
</svg>
