<?xml version="1.0" encoding="UTF-8"?>
<!DOCTYPE svg PUBLIC "-//W3C//DTD SVG 1.1//EN" "http://www.w3.org/Graphics/SVG/1.1/DTD/svg11.dtd">
<!-- Creator: CorelDRAW 2020 (64-Bit) -->
<svg xmlns="http://www.w3.org/2000/svg" xml:space="preserve" width="21.59cm" height="27.94cm" version="1.1" shape-rendering="geometricPrecision" text-rendering="geometricPrecision" image-rendering="optimizeQuality" fillRule="evenodd" clipRule="evenodd"
viewBox="0 0 21590 27940"
 xmlns:xlink="http://www.w3.org/1999/xlink"
 xmlns:xodm="http://www.corel.com/coreldraw/odm/2003">
 <g id="Layer_x0020_1">
  <metadata id="CorelCorpID_0Corel-Layer"/>
  <path fill="#2B2A29" d="M9953.71 11072.28l-588.87 -1250.54c-22.05,-44.1 -66.15,-81.59 -116.9,-81.59 -50.71,0 -103.65,37.49 -116.9,81.59l-588.84 1250.54c-6.64,15.41 -15.44,37.5 -15.44,59.55 0,74.99 59.55,125.7 125.7,125.7 50.71,0 103.65,-37.5 116.9,-81.6l116.9 -242.6 721.17 0 116.9 242.6c22.05,44.1 66.16,81.6 116.9,81.6 74.99,0 125.73,-59.55 125.73,-125.7 0,-22.05 0,-44.14 -13.25,-59.55zm-941.76 -397.02l242.63 -516.07 242.6 516.07 -485.23 0z"/>
  <path fill="#2B2A29" d="M10571.41 11248.76c138.92,0 264.65,-50.74 359.5,-125.7 6.61,-6.64 15.44,-15.44 22.05,-22.08 15.44,-22.05 28.66,-50.71 28.66,-81.6 0,-74.99 -59.55,-125.7 -125.7,-125.7 -28.69,0 -59.54,15.45 -81.63,28.66 -6.61,6.61 -15.41,6.61 -22.05,15.45 -50.71,37.49 -110.26,50.71 -176.44,50.71 -176.45,0 -302.14,-138.92 -302.14,-315.36 0,-176.48 132.34,-315.39 302.14,-315.39 66.18,0 125.73,22.05 176.44,50.71 6.64,6.61 15.44,6.61 22.05,15.44 22.09,22.05 50.75,28.66 81.63,28.66 74.99,0 125.7,-59.54 125.7,-125.7 0,-28.69 -6.61,-59.54 -28.66,-81.59 -6.61,-6.65 -15.44,-15.45 -22.05,-22.05 -94.85,-81.63 -220.58,-125.74 -359.5,-125.74 -315.39,0 -566.82,258.04 -566.82,566.83 0,335.21 251.43,584.45 566.82,584.45z"/>
  <path fill="#2B2A29" d="M11175.59 10240.88l0 441.13 0 441.09c0,74.98 59.55,125.69 125.73,125.69 74.99,0 125.7,-59.54 125.7,-125.69l0 -441.09c0,-176.44 138.95,-315.39 315.39,-315.39 74.99,0 125.7,-59.55 125.7,-125.74 0,-74.98 -59.54,-125.69 -125.7,-125.69 -116.89,0 -227.15,37.49 -315.39,94.84 -15.44,-59.58 -66.15,-94.84 -125.7,-94.84 -74.98,0 -125.73,52.93 -125.73,125.69z"/>
  <path fill="#2B2A29" d="M12461.16 10999.59c-176.44,0 -302.14,-138.95 -302.14,-315.39 0,-176.44 132.31,-315.39 302.14,-315.39 176.44,0 302.14,138.95 302.14,315.39 0,174.25 -130.11,315.39 -302.14,315.39zm0 -884.4c-315.39,0 -566.82,258.03 -566.82,566.82 0,315.36 258.04,566.78 566.82,566.78 315.39,0 566.82,-258.03 566.82,-566.78 0,-315.39 -249.24,-566.82 -566.82,-566.82z"/>
  <path fill="#2B2A29" d="M13777.92 10999.56c-176.37,0 -302.1,-138.95 -302.1,-315.39 0,-176.45 132.34,-315.4 302.1,-315.4 176.48,0 302.25,138.95 302.25,315.4 0,174.25 -125.77,315.39 -302.25,315.39zm-315.35 -1140.25c0,-66.16 -59.51,-125.7 -125.67,-125.7 -66.22,0 -125.73,50.71 -125.73,125.7l0 816.06 0 441.08c0,74.99 59.51,125.7 125.73,125.7 59.55,0 110.26,-44.1 125.67,-94.81 88.23,59.54 198.49,94.81 315.35,94.81 315.46,0 566.86,-258.04 566.86,-566.78 0,-315.4 -258,-566.83 -566.86,-566.83 -116.86,0 -227.12,37.5 -315.35,94.82l0 -344.05z"/>
  <path fill="#2B2A29" d="M14545.64 10247.49l0 884.41c0,74.98 59.54,125.69 125.76,125.69 74.92,0 125.63,-59.54 125.63,-125.69l0 -884.41c0,-74.98 -59.51,-125.73 -125.63,-125.73 -75.02,2.23 -125.76,52.94 -125.76,125.73zm125.76 -513.88c74.92,0 132.27,59.54 132.27,132.3 0,74.99 -59.54,132.34 -132.27,132.34 -75.02,0 -132.37,-59.54 -132.37,-132.34 -8.8,-74.95 57.35,-132.3 132.37,-132.3z"/>
  <path fill="#2B2A29" d="M15141.05 9982.81l0 125.73c-75.02,0 -125.77,59.55 -125.77,125.7 0,74.99 59.55,125.7 125.77,125.7l0 566.82c0,176.44 138.88,315.39 315.36,315.39 75.02,0 125.73,-59.54 125.73,-125.7 0,-74.98 -59.62,-125.73 -125.73,-125.73 -37.53,0 -66.16,-28.66 -66.16,-66.15l0 -566.82 59.55 0c66.12,0 125.63,-59.55 125.63,-125.73 0,-66.16 -59.51,-125.7 -125.63,-125.7l-66.16 0 0 -125.7c0,-74.99 -59.61,-125.73 -125.73,-125.73 -66.15,4.42 -116.86,61.77 -116.86,127.92z"/>
  <path fill="#2B2A29" d="M16444.15 10395.24c103.75,-37.49 110.36,-176.44 15.51,-227.15 -15.51,-6.64 -28.73,-15.44 -44.14,-15.44 -147.75,-59.55 -339.63,-66.19 -463.1,-15.45 -75.02,28.66 -138.99,88.21 -176.48,163.19 -50.74,116.9 -28.63,280.09 94.85,368.33 116.86,88.21 286.73,125.73 374.86,183.05 94.85,59.55 59.62,125.7 -44.03,132.34 -110.32,6.61 -280.12,-50.74 -339.7,-50.74 -132.27,0 -169.8,176.44 -66.15,235.99 214,116.89 582.26,138.95 721.24,-94.82 44.1,-74.98 59.51,-154.39 37.5,-227.18 -50.75,-205.11 -374.97,-264.65 -507.35,-346.25 -81.53,-50.74 -66.12,-125.73 37.53,-132.34 44.1,0 116.93,6.61 242.59,28.66 48.56,6.65 70.57,19.86 116.87,-2.19z"/>
  <path fill="#2B2A29" d="M4780 9003.7l2071.16 0c205.61,0 401.09,81.87 546.34,227.15 145.32,145.28 227.19,340.73 227.19,546.38l0 2069.58c0,205.62 -81.9,400.96 -227.19,546.21 -145.32,145.32 -340.62,227.32 -546.34,227.32l-2071.16 0c-205.65,0 -401.09,-81.87 -546.38,-227.18 -145.28,-145.25 -227.15,-340.73 -227.15,-546.35l0 -2069.58c0,-205.58 81.9,-400.99 227.15,-546.24 145.32,-145.32 340.66,-227.29 546.38,-227.29zm2613.26 3235.2c-12.74,-101.56 -48.59,-197.33 -106.08,-293.1l-948.37 -1634.28c-125.69,-205.13 -280.09,-368.32 -522.68,-368.32 -235.99,0 -449.93,125.69 -566.82,330.83l-963.81 1669.54c-42.15,78.86 -70.61,157.72 -82.8,241.61 28.66,48.62 63.62,93.85 104.34,134.56 125.8,125.77 294.88,196.78 472.96,196.78l2071.16 0c178.01,0 347.16,-70.87 472.93,-196.64 25.34,-25.34 48.42,-52.42 69.17,-80.98z"/>
  <path fill="#2B2A29" fillRule="nonzero" d="M9397.68 12256.81l116.89 -68.38c24.25,46.33 61.74,70.57 116.87,70.57 50.74,0 83.82,-24.24 83.82,-57.32 0,-33.08 -44.1,-44.1 -121.32,-61.77 -105.83,-24.24 -174.21,-66.15 -174.21,-154.39 0,-97.04 99.23,-163.19 207.32,-163.19 92.63,0 156.59,24.24 213.91,97.04l-112.48 63.96c-22.06,-37.5 -52.91,-55.13 -99.23,-55.13 -48.52,0 -74.99,22.05 -74.99,50.71 0,35.3 52.94,41.91 125.73,61.77 99.23,24.24 174.22,59.55 174.22,156.58 0,101.46 -99.23,172.03 -224.96,172.03 -101.46,-2.19 -180.86,-28.66 -231.57,-112.48zm529.29 97.04l0 -454.34 132.34 -77.18 0 529.33 -132.34 0 0 2.19zm225 0l0 -277.9c0,-143.37 105.83,-251.43 251.43,-251.43 147.74,0 251.39,116.9 251.39,251.43l0 277.9 -134.53 0 0 -269.07c0,-81.59 -50.71,-130.11 -116.86,-130.11 -72.8,0 -116.9,50.71 -116.9,130.11l0 269.07 -134.53 0zm573.43 -258.04c0,-158.81 114.67,-271.29 275.67,-271.29 99.23,0 189.66,50.74 231.57,132.34l-114.67 68.38c-22.06,-41.91 -66.16,-70.57 -119.09,-70.57 -79.41,0 -136.76,59.54 -136.76,143.33 0,81.63 55.13,145.59 136.76,145.59 52.93,0 99.23,-26.47 121.28,-70.6l114.7 66.18c-46.32,81.6 -134.56,134.54 -233.79,134.54 -158.81,-6.61 -275.67,-119.09 -275.67,-277.9zm582.22 258.04l0 -674.89 132.35 -77.18 0 260.23c28.65,-22.05 79.4,-39.68 123.5,-39.68 145.56,0 247.01,99.23 247.01,247.01l0 282.32 -134.53 0 0 -269.07c0,-81.63 -50.74,-130.15 -116.9,-130.15 -72.79,0 -116.89,50.75 -116.89,130.15l0 269.07 -134.54 0 0 2.19z"/>
  <path fill="#2B2A29" fillRule="nonzero" d="M9084.72 11842.12l0 509.47 -88.24 0 0 -88.24c-41.88,61.77 -105.84,101.45 -191.89,101.45 -141.14,0 -258.04,-116.86 -258.04,-269.06 0,-149.97 116.9,-269.06 258.04,-269.06 86.05,0 152.2,39.68 191.89,101.45l0 -88.24 88.24 0 0 2.23zm-90.43 255.85c0,-103.69 -79.41,-183.09 -180.86,-183.09 -101.46,0 -180.83,79.4 -180.83,183.09 0,103.64 79.37,183.05 180.83,183.05 103.68,0 180.86,-79.41 180.86,-183.05z"/>
  <path fill="#2B2A29" fillRule="nonzero" d="M12127.93 12097.97c0,-149.98 114.67,-269.1 269.06,-269.1 101.46,0 187.47,52.93 224.97,134.56l-74.99 41.91c-26.47,-55.16 -81.6,-90.46 -149.98,-90.46 -101.45,0 -178.66,79.4 -178.66,180.86 0,101.46 77.21,180.86 178.66,180.86 68.38,0 125.7,-35.3 154.36,-88.24l74.99 44.14c-41.88,79.37 -130.12,132.3 -229.35,132.3 -156.61,2.23 -269.06,-116.86 -269.06,-266.83z"/>
  <path fill="#2B2A29" fillRule="nonzero" d="M12677.15 12097.97c0,-149.98 119.09,-269.1 269.07,-269.1 149.97,0 269.03,116.9 269.03,269.1 0,149.97 -121.25,269.06 -269.03,269.06 -147.79,0 -269.07,-119.09 -269.07,-269.06zm447.7 0c0,-103.69 -79.37,-180.86 -180.83,-180.86 -101.45,0 -178.66,79.4 -178.66,180.86 0,103.64 79.4,180.82 178.66,180.82 103.65,0 180.83,-77.18 180.83,-180.82z"/>
  <path fill="#2B2A29" fillRule="nonzero" d="M14062.33 12036.16l0 317.58 -88.24 0 0 -313.16c0,-81.6 -44.14,-123.51 -112.52,-123.51 -70.6,0 -125.66,44.1 -125.66,154.39l0 284.51 -88.24 0 0 -313.2c0,-81.6 -41.94,-123.51 -108.1,-123.51 -68.37,0 -130.08,44.11 -130.08,154.39l0 284.51 -88.24 0 0 -509.47 88.24 0 0 68.38c37.43,-57.35 90.4,-81.59 152.1,-81.59 68.41,0 121.32,30.85 150.04,86.01 35.24,-57.35 94.85,-86.01 160.97,-86.01 110.25,-6.65 189.73,72.76 189.73,200.68z"/>
  <path fill="#2B2A29" fillRule="nonzero" d="M14723.58 12097.97c0,149.97 -116.89,269.06 -258.03,269.06 -86.05,0 -152.2,-39.69 -191.89,-101.46l0 291.12 -88.24 0 0 -714.57 88.24 0 0 88.2c39.69,-61.73 105.84,-101.45 191.89,-101.45 143.33,0 258.03,116.9 258.03,269.1zm-88.23 0c0,-103.69 -79.37,-183.09 -180.86,-183.09 -103.62,0 -180.83,79.4 -180.83,183.09 0,103.64 79.37,183.05 180.83,183.05 103.64,0 180.86,-79.41 180.86,-183.05z"/>
  <path fill="#2B2A29" fillRule="nonzero" d="M15341.42 11842.12l0 509.47 -88.23 0 0 -88.24c-39.69,61.77 -105.81,101.45 -191.89,101.45 -141.14,0 -258,-116.86 -258,-269.06 0,-149.97 116.86,-269.06 258,-269.06 86.08,0 152.2,39.68 191.89,101.45l0 -88.24 88.23 0 0 2.23zm-88.23 255.85c0,-103.69 -79.37,-183.09 -180.83,-183.09 -101.45,0 -180.82,79.4 -180.82,183.09 0,103.64 79.37,183.05 180.82,183.05 101.46,0 180.83,-79.41 180.83,-183.05z"/>
  <path fill="#2B2A29" fillRule="nonzero" d="M15928.14 12040.58l0 313.16 -88.24 0 0 -308.74c0,-83.83 -48.59,-130.15 -125.76,-130.15 -81.63,0 -147.75,48.52 -147.75,167.64l0 271.25 -88.24 0 0 -509.46 88.24 0 0 72.79c37.49,-59.54 94.84,-86.01 165.41,-86.01 116.87,-2.23 196.34,77.18 196.34,209.52z"/>
  <path fill="#2B2A29" fillRule="nonzero" d="M16490.27 11842.05l-207.36 542.58c-41.88,114.67 -121.32,178.63 -227.12,172.02l0 -81.59c68.38,4.38 110.25,-37.49 136.69,-103.68l8.87 -19.83 -222.77 -507.27 94.88 0 174.18 399.17 147.78 -399.17 94.85 0 0 -2.23z"/>
 </g>
</svg>
