<svg width="459" height="118" viewBox="0 0 459 118" fill="none" xmlns="http://www.w3.org/2000/svg">
<path d="M177.378 50.6876C184.173 50.6876 190.052 54.6051 193.447 60.3874L193.582 60.6032L203.478 55.0371L203.37 54.8213C198.84 45.3109 188.513 39.6094 177.244 39.6094C168.32 39.6094 160.717 42.7166 155.325 48.0121C149.959 53.3083 146.832 60.765 146.832 69.4658C146.832 86.6494 159.261 99.1053 176.84 99.1053C188.19 99.1053 198.409 93.2152 203.045 84.3258L203.154 84.11L193.258 78.3545L193.151 78.5711C190.266 84.0287 183.58 88.055 176.974 88.055C166.568 88.055 158.937 79.9219 158.937 69.4658C158.937 59.0094 166.783 50.6876 177.378 50.6876Z" fill="#2B2A29"/>
<path d="M328.955 48.418C324.481 43.203 318.469 39.6367 310.405 39.6367C294.175 39.6367 282.069 52.8219 282.069 69.3846C282.069 85.9472 294.067 99.2406 310.513 99.2406C318.495 99.2406 324.669 95.7547 329.17 90.4592V97.8898H341.035V18.0756H328.955V48.418ZM311.969 88.1628C301.158 88.1628 294.148 79.7061 294.148 69.3574C294.148 59.0094 301.158 50.6604 311.969 50.6604C322.781 50.6604 329.791 59.1984 329.791 69.3574C329.791 79.5167 322.781 88.1628 311.969 88.1628Z" fill="#2B2A29"/>
<path d="M399.298 48.418C394.687 43.203 388.405 39.6094 380.318 39.6094C363.979 39.6094 351.982 52.0649 351.982 69.0334C351.982 86.0012 363.87 99.1865 380.318 99.1865C388.405 99.1865 394.687 95.7007 399.298 90.4864V97.8085H410.837V40.9874H399.298V48.418ZM381.908 88.1628C371.097 88.1628 364.087 79.7061 364.087 69.4658C364.087 59.2252 370.989 50.6604 381.908 50.6604C392.827 50.6604 399.837 59.2252 399.837 69.3573C399.837 79.4895 392.612 88.1628 381.908 88.1628Z" fill="#2B2A29"/>
<path d="M454.038 85.0556L454.28 84.9203L458.405 94.3767L458.243 94.4855C454.038 97.6732 448.134 99.2406 442.552 99.2406C436.298 99.2406 431.607 97.268 428.479 93.5123C425.351 89.757 423.841 84.3258 423.841 77.4364L423.949 20.9937H435.811V41.0147H455.225V51.3362H435.811V77.6523C435.811 81.0293 436.406 83.6504 437.752 85.434C439.074 87.1899 441.176 88.1628 444.252 88.1628C447.837 88.1628 451.018 86.8116 454.038 85.0556Z" fill="#2B2A29"/>
<path d="M242.895 39.5286C225.208 39.5286 212.887 53.0381 212.887 69.3845C212.887 85.7306 225.208 99.3487 242.895 99.3487C260.583 99.3487 272.903 85.9472 272.903 69.3845C272.903 52.8219 260.583 39.5286 242.895 39.5286ZM242.895 88.055C232.812 88.055 224.966 79.7061 224.966 69.3573C224.966 59.0094 232.812 50.6604 242.895 50.6604C252.978 50.6604 260.824 59.2252 260.824 69.3573C260.824 79.4895 252.978 88.055 242.895 88.055Z" fill="#2B2A29"/>
<path d="M41.0351 0.0808956L10.8113 20.8857C10.5146 21.0743 10.5146 21.5066 10.8113 21.7232L22.4587 29.7203C22.6205 29.8292 22.8631 29.8292 23.0249 29.7203L41.6281 16.9134C41.7634 16.8329 41.8439 16.6704 41.8439 16.5082V0.512884C41.8439 0.107718 41.3854 -0.135671 41.0351 0.0808956Z" fill="#2B2A29"/>
<path d="M106.174 72.3568L65.3541 100.483C65.2195 100.591 65.1386 100.727 65.1386 100.888V116.884C65.1386 117.289 65.5967 117.532 65.9206 117.289L106.74 89.1625C106.875 89.0544 106.955 88.9191 106.955 88.7573V72.762C106.955 72.3568 106.498 72.1134 106.174 72.3568Z" fill="#2B2A29"/>
<path d="M83.9304 71.2218C84.0922 71.3299 84.3348 71.3299 84.4966 71.2218L96.1168 63.2239C96.4135 63.035 96.4135 62.603 96.1168 62.3864L65.893 41.5816C65.5699 41.3386 65.1114 41.5816 65.1114 41.9875V57.9825C65.1114 58.1443 65.1927 58.3068 65.3272 58.3876L83.9304 71.2218Z" fill="#2B2A29"/>
<path d="M0.781595 30.8553C0.457689 30.6395 0 30.8553 0 31.2612V47.283C0 47.4452 0.0805017 47.6069 0.215053 47.6882L41.0351 75.8151C41.359 76.0585 41.8174 75.8151 41.8174 75.4099V59.4145C41.8174 59.2524 41.7358 59.0907 41.6012 59.0094L0.781595 30.8553Z" fill="#2B2A29"/>
</svg>
