<svg width="60" height="60" viewBox="0 0 60 60" fill="none" xmlns="http://www.w3.org/2000/svg">
<path fillRule="evenodd" clipRule="evenodd" d="M20.3122 24.1428C18.3723 22.3145 18.7256 18.6661 21.9934 17.2025C22.1977 12.6947 29.9782 13.0797 31.0515 16.6808C31.4366 16.4558 31.8718 16.3298 32.3178 16.3146C32.7634 16.2998 33.2064 16.3959 33.6059 16.5943C34.3759 17.0226 34.9472 17.736 35.1966 18.5811C35.8332 20.5933 34.7325 22.2273 32.7276 22.5857C33.0457 24.2351 33.9377 24.7073 34.6212 26.0955C34.6785 26.2119 34.7287 26.3312 34.7724 26.4536C34.8969 26.8404 34.9538 27.2458 34.9397 27.6522C34.997 27.6829 34.8821 27.6201 34.9397 27.6522C34.9261 28.1817 34.8629 28.709 34.7517 29.2266C34.7358 29.2798 34.7222 29.3242 34.7103 29.3659C35.7245 30.2446 36.6047 31.2669 37.3219 32.4013C38.4171 34.2089 39.3375 36.1173 40.0702 38.0997C40.794 39.673 41.2677 41.3501 41.4739 43.0697C41.601 43.9373 41.4015 44.8211 40.9138 45.5502C40.6688 45.9111 40.3063 46.1764 39.8884 46.3006C39.4701 46.4248 39.0216 46.4004 38.6192 46.2319C37.97 45.9167 37.2066 44.5237 37.2066 44.5237C36.9032 44.4842 36.5216 44.5237 36.2796 44.513C34.4882 44.4317 32.6929 44.4975 30.9123 44.7099C30.4962 44.7169 30.0942 44.8611 29.7683 45.1193C29.5699 45.365 29.411 45.6403 29.2976 45.9351C29.1306 46.2592 28.8982 46.5456 28.6151 46.7757C28.3324 47.006 28.005 47.1752 27.6537 47.2727C27.3023 47.3706 26.9347 47.3943 26.5737 47.3433C26.2126 47.2923 25.8661 47.1674 25.5553 46.976C24.5898 46.584 21.7998 45.4914 21.1698 45.1814C21.2759 45.1403 23.9125 46.1084 24.0267 46.1402C24.3249 46.223 24.6191 46.3201 24.9083 46.4321C24.8688 46.3878 24.8315 46.3387 24.7949 46.2887L24.7882 46.2784C23.5804 45.7936 21.4791 44.9641 20.9437 44.7025C21.0498 44.6596 23.6861 45.6277 23.7995 45.6569C24.0537 45.729 24.3072 45.8114 24.5566 45.9034C24.5263 45.8469 24.4971 45.787 24.4694 45.7275C23.2419 45.2368 21.3113 44.4701 20.8018 44.2218C20.9079 44.1801 23.5456 45.1466 23.6587 45.1762C23.8856 45.2394 24.1099 45.3133 24.3315 45.3913C24.3087 45.3292 24.2865 45.2678 24.2658 45.2043C23.0365 44.7136 21.1971 43.9842 20.7017 43.7392C20.8077 43.6975 23.4444 44.6663 23.5579 44.6944C23.7618 44.7524 23.9636 44.8152 24.1623 44.8843C24.1224 44.7473 24.0497 44.622 23.9502 44.5193C23.829 44.4206 23.6883 44.3493 23.5372 44.3105C22.4479 43.9428 21.3583 43.5741 20.2683 43.205C19.8736 43.7939 19.285 44.4638 18.5992 44.278C18.5172 44.2555 18.4385 44.2211 18.3661 44.1764C17.3149 43.7418 14.135 42.4464 13.509 42.1394C13.6151 42.0976 16.7536 43.3184 16.867 43.3495C17.2188 43.4477 17.5643 43.5656 17.9024 43.7034C17.8451 43.6206 17.7967 43.5345 17.7435 43.4488L17.7154 43.4012C16.3896 42.8547 13.9089 41.8371 13.3668 41.5729C13.4729 41.5312 16.6117 42.7541 16.7255 42.7852C16.9975 42.8606 17.2658 42.9493 17.5292 43.0505C17.4645 42.9238 17.4058 42.7967 17.3459 42.6699C15.9503 42.0961 13.733 41.185 13.2663 40.9547C13.3724 40.9115 16.5112 42.1345 16.6239 42.1637C16.8212 42.2206 17.0163 42.2816 17.2099 42.3467C17.1734 42.2579 17.1379 42.1692 17.1039 42.078L15.4175 41.3172L15.4127 41.2998C14.3145 40.845 13.2331 40.3942 12.9201 40.2394C12.9918 40.2125 14.3792 40.7334 15.3491 41.1022C15.2919 40.9156 15.2349 40.7312 15.1836 40.5454C14.1114 40.1001 13.0753 39.6671 12.7723 39.5174C12.8417 39.4919 14.1653 39.9885 15.129 40.354C15.0683 40.1352 15.0111 39.9217 14.9568 39.7066C13.9266 39.2791 12.9515 38.8704 12.6585 38.7267C12.7261 38.7001 13.9576 39.1609 14.9094 39.5222C14.8563 39.3046 14.8034 39.0855 14.7584 38.8701C13.6447 38.4093 12.5447 37.9489 12.2314 37.7959C12.3052 37.7675 13.7466 38.3099 14.7177 38.6779C14.6644 38.4403 14.6209 38.2049 14.5773 37.9685C13.5294 37.5339 12.5288 37.1142 12.2328 36.9701C12.3005 36.9431 13.5859 37.4224 14.5469 37.7867C14.5045 37.5517 14.4679 37.3178 14.4328 37.0809C13.3528 36.635 12.3045 36.1945 12 36.0453C12.0717 36.0168 13.4366 36.5326 14.4062 36.8992C14.3748 36.68 14.3475 36.462 14.3208 36.2426L14.3072 36.2356L14.2865 36.2263L14.2747 36.2196L14.2625 36.2149C14.1842 36.1783 14.1084 36.1351 14.0371 36.0859C13.1078 35.6994 12.2701 35.3476 12.0023 35.2165C12.5809 35.3802 13.1492 35.5764 13.7056 35.8047C13.6709 35.77 13.6384 35.7312 13.6033 35.6902C13.2667 35.2963 13.0302 34.8266 12.9138 34.3215C12.81 34.3711 12.6988 34.404 12.5846 34.418C12.5509 34.4217 12.5174 34.4236 12.4834 34.4236C12.3499 34.4254 12.2184 34.3962 12.0987 34.3375C11.9786 34.2791 11.8744 34.1938 11.7939 34.0877C11.7089 33.972 11.6538 33.8371 11.6331 33.6952C11.6121 33.5537 11.6265 33.4093 11.6745 33.2744C11.6431 33.2234 11.6158 33.1706 11.5928 33.1156C11.5142 32.9267 11.5086 32.715 11.5774 32.5225C11.6461 32.3297 11.7839 32.1689 11.9642 32.0724C11.9679 32.0724 11.9694 32.0684 11.9731 32.0684C11.9842 31.9942 11.999 31.9202 12.0181 31.8474C11.8822 31.6834 11.8153 31.4731 11.8315 31.2603C11.8419 31.1033 11.8822 30.9492 11.9506 30.8073C11.6819 30.7456 11.4443 30.5896 11.2806 30.368C11.0966 30.1285 10.9706 29.8503 10.9127 29.554C10.8546 29.2576 10.8657 28.9517 10.9455 28.6606C11.1561 27.9019 11.6313 27.2435 12.2849 26.8046C12.7446 26.4513 13.301 26.2477 13.8801 26.2215C14.0046 26.2211 14.1291 26.2333 14.2514 26.2577C14.4564 26.2773 14.6527 26.349 14.8223 26.4657C14.9915 26.5825 15.129 26.7403 15.2206 26.9247C15.2494 26.7894 15.2919 26.6575 15.347 26.5304C15.5199 26.1225 15.8439 25.7973 16.2511 25.6225C16.4296 25.5509 16.6202 25.5136 16.8123 25.5128C17.1357 25.5106 17.449 25.6222 17.6984 25.8277C17.9677 26.0804 18.1577 26.4055 18.2456 26.7639C18.3624 27.1275 18.4843 27.4889 18.6099 27.8521C18.8682 26.8644 19.2362 25.9093 19.7069 25.0033C19.857 24.6822 20.0635 24.391 20.317 24.1435L20.3122 24.1428ZM26.8619 43.9728C27.0496 44.9837 26.8619 45.8679 26.4477 45.9462C26.0334 46.0239 25.5406 45.2664 25.3536 44.2536C25.1663 43.2408 25.3529 42.3614 25.7693 42.2827C26.1857 42.2036 26.676 42.9622 26.8619 43.9728ZM19.9357 42.4131C20.303 42.4253 20.6654 42.5037 21.0047 42.6452C21.0486 42.2148 20.9984 41.7806 20.8576 41.3712C20.7168 40.9621 20.4884 40.5885 20.1888 40.2763C19.8891 39.9641 19.5252 39.7202 19.122 39.5629C18.719 39.4054 18.2863 39.3386 17.8543 39.3648C17.8454 39.4583 17.8366 39.5522 17.8263 39.6456C18.1473 39.643 18.4633 39.7254 18.7426 39.884C19.0215 40.0421 19.2547 40.2712 19.4173 40.5476C19.7369 41.1055 19.9253 41.7285 19.9679 42.3699L19.9335 42.4154L19.9357 42.4131ZM29.9903 44.1671C32.1571 43.9794 34.3353 43.8641 36.5134 43.8297C36.7514 43.8453 36.9893 43.8032 37.2073 43.7075C37.3149 43.6554 37.4002 43.5671 37.4486 43.4577C37.4974 43.3487 37.5059 43.2257 37.4727 43.1108C35.143 43.2485 32.8151 43.3842 30.4884 43.5179C30.3041 43.5102 30.123 43.5649 29.9738 43.6731C29.8389 43.7983 29.8422 44.071 30.017 44.1268L29.9933 44.1671H29.9903ZM37.8773 42.5801C38.3938 41.6704 38.801 40.7024 39.0899 39.6966C39.22 39.0504 39.2086 38.3842 39.0574 37.7423C38.9063 37.1005 38.6188 36.4979 38.2142 35.9773C38.1067 35.8328 37.9785 35.7046 37.8347 35.5963C37.6718 35.4918 37.4959 35.409 37.3112 35.3506C35.3673 34.6837 33.2885 34.5071 31.2596 34.8359C29.2307 35.1644 27.3141 35.988 25.6802 37.2347C25.5963 37.5085 25.6074 37.8019 25.7109 38.0686C25.8147 38.335 26.0054 38.5593 26.2519 38.7045C26.5141 38.8242 26.7894 38.9129 27.0721 38.9698C27.8961 39.2155 28.6192 39.7192 29.1357 40.4064C29.6523 41.0936 29.9349 41.9277 29.9424 42.7874C32.6578 42.8232 35.3732 42.7146 38.0772 42.4623L37.8773 42.5845V42.5801ZM34.1786 35.3953C35.1803 35.4478 36.1687 35.6499 37.1109 35.995C37.1844 36.0176 37.2543 36.0501 37.3189 36.0914C37.3936 36.1491 37.4578 36.2193 37.5074 36.2995C38.0291 37.044 38.297 37.9371 38.2707 38.8456C38.2382 39.7568 37.8891 40.6285 37.2838 41.3106C37.5861 40.6916 37.7372 40.0096 37.7239 39.3208C37.7594 38.8531 37.7417 38.3831 37.6711 37.9194C37.62 37.5857 37.5251 37.2602 37.3895 36.9509C37.3666 36.8836 37.3378 36.8179 37.3034 36.7554C37.2458 36.6672 37.1796 36.5851 37.1058 36.5097C36.2189 35.9469 35.2243 35.576 34.186 35.4201V35.3964L34.1786 35.3953ZM38.0011 36.0479C38.0453 36.3852 38.2161 36.693 38.4784 36.9099C38.5209 36.9513 38.5753 36.9778 38.634 36.9875C38.6779 36.9867 38.7197 36.9734 38.7563 36.949C38.7928 36.9247 38.822 36.8899 38.8391 36.8496C38.8708 36.7684 38.8845 36.6808 38.8786 36.5936C38.8845 36.4994 38.8719 36.4052 38.842 36.315C38.8043 36.227 38.7448 36.1498 38.6691 36.0904C38.546 35.9702 38.3831 35.8993 38.2112 35.8904C38.1603 35.8871 38.1093 35.8985 38.0653 35.9248C38.0428 35.9366 38.0239 35.9548 38.0106 35.9765C37.9969 35.9983 37.9903 36.0235 37.9899 36.049H37.9992L38.0011 36.0479ZM27.6093 37.6633C27.6093 37.7967 27.5698 37.9271 27.4955 38.0383C27.4213 38.1492 27.3156 38.2356 27.1922 38.2866C27.0688 38.338 26.9324 38.3513 26.8017 38.3251C26.6705 38.2991 26.5511 38.2353 26.4565 38.1407C26.3623 38.0461 26.2973 37.9256 26.2714 37.7948C26.2452 37.6637 26.2585 37.5277 26.3095 37.4043C26.3608 37.2809 26.4473 37.1751 26.5581 37.1009C26.6693 37.0267 26.7994 36.9871 26.9332 36.9867C27.0222 36.9864 27.1109 37.0037 27.1933 37.0377C27.2753 37.0713 27.35 37.1209 27.4128 37.1837C27.4756 37.2465 27.5251 37.3222 27.5587 37.4043C27.5927 37.4863 27.6097 37.5742 27.6093 37.6633ZM32.4195 33.1252C32.4726 33.1189 32.521 33.1156 32.5728 33.114C32.8916 33.1022 33.205 33.2013 33.4595 33.3934C33.5815 33.2394 33.7311 33.1096 33.9007 33.0102C33.6354 32.7981 33.3221 32.6552 32.9881 32.5931C32.6545 32.5307 32.3104 32.5517 31.9868 32.654C32.1741 32.766 32.3253 32.9293 32.4216 33.1252H32.4195ZM25.1988 24.6689C28.4141 21.5056 30.8505 22.8558 31.4443 22.732C31.6893 22.6791 31.8434 22.3817 30.8398 21.482C32.36 21.0822 33.3809 20.8853 33.7685 20.2841C34.3807 19.3297 33.8125 18.1706 33.0967 17.5221C31.8958 16.434 30.886 17.6685 30.0864 18.5907C29.5854 14.2949 24.8895 14.197 23.3276 16.6413C24.5474 17.1589 25.1337 17.2532 25.5912 18.5907C19.9168 16.8363 19.1712 23.0232 22.3318 23.5623C24.2041 23.8804 25.6521 21.5171 24.7746 23.9222C24.5392 24.5691 24.3811 25.4751 25.1988 24.6678V24.6689ZM33.4186 25.5886C33.4186 25.5886 33.6 25.7593 33.4186 25.7593C33.1059 25.8058 32.7864 25.7752 32.4882 25.6702C32.197 25.5712 31.8866 25.5435 31.5829 25.5897C31.5278 25.4116 31.4174 25.256 31.267 25.1463C31.1166 25.0365 30.9348 24.9778 30.7486 24.9797C30.4496 24.9896 30.1534 25.0373 29.8658 25.1208C28.7079 25.4644 29.7022 25.763 30.2372 25.5413C30.5886 25.3979 30.9182 25.1548 31.1834 25.3166C31.5999 25.5734 31.2208 25.9067 30.8927 26.0977C30.6755 26.2333 30.4286 26.3139 30.1733 26.3316C29.9176 26.3498 29.6619 26.3039 29.428 26.1997C29.0456 26.0224 28.4407 26.2888 27.9323 26.5485C27.1131 26.9682 24.6563 27.0292 26.8153 28.1148C27.1249 28.2681 27.4619 28.3586 27.807 28.3816C28.1521 28.4041 28.4984 28.3586 28.8257 28.2474C31.2285 28.9484 32.4789 27.664 30.9947 27.6237C28.116 27.5465 30.525 26.8286 31.6139 27.2221C32.7357 27.6881 32.8411 27.5894 33.6783 26.7093C34.2998 30.8346 25.9636 32.6685 25.2409 27.3418C24.5684 27.3995 23.8782 26.6021 24.864 26.2281C25.7866 26.0434 25.9713 25.126 26.7473 24.4199C27.0788 24.1176 27.7272 24.0274 28.0132 23.8627C28.7611 23.4126 29.6431 23.2393 30.5054 23.3724C31.5556 23.4344 32.2288 23.7307 32.4572 24.0463C32.7505 24.5769 33.0716 25.0916 33.4186 25.5886ZM27.7213 24.6016C27.8189 24.6013 27.9145 24.6301 27.9959 24.6844C28.0771 24.7384 28.1407 24.8156 28.178 24.9057C28.2157 24.9962 28.2249 25.0953 28.2061 25.1914C28.1869 25.287 28.1404 25.375 28.0716 25.4441C28.0022 25.5132 27.9145 25.5601 27.8189 25.5793C27.7228 25.5981 27.623 25.5886 27.5329 25.5513C27.4424 25.5139 27.3655 25.4504 27.3112 25.3687C27.2568 25.2878 27.2284 25.1921 27.2284 25.0946C27.2288 24.9638 27.2809 24.8389 27.3733 24.7465C27.4657 24.6541 27.5909 24.602 27.7213 24.6016ZM31.0896 23.8678C31.1871 23.8678 31.2829 23.8963 31.3638 23.9506C31.4454 24.0049 31.509 24.0821 31.5463 24.1723C31.5836 24.2624 31.5933 24.3618 31.5744 24.4576C31.5552 24.5532 31.5086 24.6412 31.4395 24.7103C31.3704 24.7794 31.2829 24.8263 31.1868 24.8455C31.0911 24.8643 30.9914 24.8552 30.9012 24.8175C30.8107 24.7801 30.7334 24.7165 30.6795 24.6353C30.6252 24.5539 30.5964 24.4583 30.5964 24.3608C30.5971 24.2299 30.6492 24.1051 30.7416 24.0127C30.8339 23.9203 30.9588 23.8682 31.0896 23.8678ZM29.7354 34.6368C29.7373 34.6397 29.7391 34.6423 29.7413 34.6449C29.7439 34.6482 29.7458 34.6512 29.7476 34.6549C29.7443 34.6549 29.7336 34.636 29.7336 34.636L29.7354 34.6368ZM31.1746 32.9167C31.3431 32.916 31.5098 32.946 31.6675 33.0051C31.7739 33.0498 31.8667 33.1211 31.938 33.212C32.0089 33.3032 32.0559 33.4108 32.0736 33.5249C32.0884 33.5922 32.0787 33.6628 32.0466 33.7238C32.0315 33.7515 32.0093 33.7743 31.9823 33.791C31.9557 33.808 31.9251 33.8176 31.8933 33.819H31.8788C31.9849 33.8874 32.1072 33.9886 32.0736 34.1114C32.0403 34.2336 31.8881 34.2628 31.7662 34.2706C31.1458 34.2632 30.531 34.3873 29.9626 34.6363C29.9187 34.6608 29.8707 34.6759 29.8208 34.6807C29.806 34.6819 29.7916 34.6796 29.7783 34.6737C29.765 34.6674 29.7532 34.6582 29.7443 34.6467C29.6867 34.5004 29.6597 34.3438 29.6656 34.1867C29.6711 34.0297 29.7099 33.8748 29.7783 33.7329L29.7879 33.7156C30.0196 33.4411 30.3026 33.2138 30.6215 33.0486C30.7918 32.9585 30.9821 32.9146 31.1746 32.9179V32.9167ZM34.6852 33.2548C34.9021 33.2548 35.1145 33.3166 35.2982 33.4322C35.446 33.5298 35.5686 33.6613 35.6566 33.8154C35.7445 33.9691 35.7955 34.1416 35.8048 34.3186C35.3924 34.2392 34.9749 34.1878 34.5555 34.1653C34.2773 34.1457 33.9983 34.1228 33.7186 34.1228H33.6317L33.6059 34.0999C33.6498 33.9281 33.7341 33.7696 33.8512 33.6361C33.9684 33.5028 34.1154 33.3986 34.2799 33.3324C34.4092 33.2807 34.547 33.2552 34.6859 33.2559L34.6852 33.2548ZM30.8421 33.6014C31.0841 33.5537 31.3357 33.583 31.5607 33.6842C31.6032 33.7093 31.6513 33.723 31.7004 33.7248C31.7492 33.7204 31.7995 33.6761 31.7846 33.6284C31.7783 33.6066 31.7643 33.5867 31.7451 33.5744C31.6934 33.5397 31.6365 33.5146 31.5763 33.4979C31.3944 33.4466 31.2023 33.4444 31.0191 33.4917C30.9533 33.5021 30.8938 33.5368 30.8524 33.5889L30.8409 33.5992L30.8421 33.6014ZM24.929 30.2597C24.5474 30.5047 24.207 30.8088 23.9211 31.1609C23.5519 31.6561 23.3698 32.2657 23.4064 32.8824C23.4492 33.4976 23.7053 34.0788 24.1305 34.5259C24.466 34.8452 24.861 35.0953 25.2938 35.2605C25.7261 35.4256 26.1875 35.5025 26.6505 35.4885C27.5743 35.4925 28.1532 35.0425 29.0367 34.7683C28.9728 34.5743 28.9514 34.3696 28.9747 34.1668C28.9983 33.9639 29.0659 33.768 29.1727 33.5937C28.6902 33.594 28.2146 33.4751 27.7889 33.2478C27.524 33.1421 27.2838 32.9825 27.0836 32.7797C26.9838 32.6777 26.9059 32.5565 26.8545 32.4235C26.8031 32.2904 26.7795 32.1486 26.7847 32.006C26.5127 31.9631 26.2607 31.8374 26.0627 31.6464C26.0161 31.5888 25.9799 31.4968 26.0287 31.4435C26.0774 31.3904 26.1687 31.4155 26.237 31.4435C26.4362 31.5337 26.635 31.6206 26.8316 31.7085C26.7388 31.6413 26.6627 31.5537 26.6095 31.4517C26.5563 31.3501 26.5275 31.2371 26.5253 31.1225C26.7203 31.1768 26.9003 31.2758 27.0503 31.4125C26.7528 30.9097 26.3176 30.5028 25.7959 30.2401C25.6728 30.1548 25.5272 30.109 25.3776 30.1064C25.228 30.1038 25.0809 30.1455 24.9549 30.2264L24.9261 30.2534L24.929 30.2597ZM26.4702 35.0857C25.8121 35.0225 25.1854 34.7761 24.6604 34.3744C24.4014 34.1708 24.1956 33.9074 24.0611 33.6066C23.9262 33.3062 23.8664 32.9774 23.8871 32.6485C24.1313 33.1074 24.4346 33.532 24.7887 33.9122C24.9069 34.0423 25.0365 34.1612 25.1758 34.2687C25.6303 34.5591 26.1381 34.755 26.6701 34.8444C26.5907 34.9072 26.5223 34.983 26.468 35.0683L26.4702 35.0857ZM28.8838 32.7039C28.7367 32.7084 28.59 32.6796 28.4559 32.6189C28.3217 32.5584 28.2039 32.4679 28.11 32.3548C28.018 32.2402 27.9541 32.1061 27.9227 31.9623C27.8909 31.8186 27.8931 31.6701 27.9289 31.5275C29.029 31.6652 30.1455 31.5644 31.2038 31.2334C32.2003 30.9429 33.1695 30.5661 34.0999 30.1064C34.1568 30.0813 34.115 30.0594 34.1745 30.0657C34.363 30.1382 34.5403 30.2376 34.7018 30.3591C35.3676 30.9496 35.8602 31.7096 36.127 32.5591C36.1968 32.7401 36.2333 32.9326 36.2338 33.1266C36.2326 33.2234 36.2071 33.3188 36.1591 33.403C36.111 33.4872 36.0412 33.5575 35.9581 33.607C35.8255 33.3587 35.6267 33.1521 35.3832 33.0106C35.1396 32.8691 34.8611 32.7978 34.5795 32.8055C34.6489 32.299 34.387 31.7976 34.4021 31.2869C34.2388 31.5722 34.0903 31.8655 33.958 32.1663C33.9931 31.9727 34.0293 31.7799 34.0637 31.5862C34.0781 31.4942 34.0677 31.366 33.9765 31.3597C33.8774 31.6878 33.6735 31.7366 33.5956 32.0703C32.1379 31.8448 30.6473 32.0633 29.3157 32.6976C29.1753 32.7464 29.0264 32.7645 28.8786 32.7505H28.859L28.8763 32.7017L28.8838 32.7039ZM26.5944 29.2351C26.8489 29.5274 27.1604 29.7653 27.5099 29.9331C27.616 29.9889 27.7586 30.0624 27.8684 30.1094C28.229 30.239 28.6129 30.2937 28.9953 30.2686C29.36 30.2908 29.7247 30.2257 30.0599 30.0813C29.5219 30.0613 28.9868 30.0037 28.4566 29.9084C27.9252 29.813 27.4165 29.6187 26.9568 29.3356C26.8552 29.2539 26.7337 29.2008 26.6047 29.1811C26.6047 29.1967 26.5995 29.2133 26.5995 29.2277V29.2329L26.5944 29.2351ZM28.2837 38.7156C28.6454 38.9288 28.978 39.1878 29.2732 39.4864C29.472 39.721 29.6471 39.9748 29.7949 40.2446C30.1699 40.8032 30.433 41.4303 30.5687 42.0891C30.5683 42.1064 30.5716 42.1227 30.5779 42.139C30.5845 42.1548 30.5938 42.1704 30.6059 42.1826C30.6299 42.1977 30.6577 42.2044 30.6858 42.2011C30.8218 42.2011 30.9581 42.2011 31.0937 42.2051C31.0597 41.4377 30.8424 40.689 30.4611 40.0218C30.0736 39.3512 29.445 38.8531 28.7034 38.6299C28.5379 38.5759 28.3617 38.5656 28.1906 38.5988C28.1943 38.6306 28.2042 38.6609 28.2216 38.6879C28.239 38.7149 28.2626 38.7378 28.29 38.754L28.2807 38.7167L28.2837 38.7156ZM38.6255 42.252C39.2256 41.454 39.6116 40.5154 39.7461 39.5259C40.0676 39.844 40.2933 40.2453 40.3987 40.685C40.5804 41.1369 40.6902 41.6147 40.7238 42.1009C40.7323 42.1752 40.7257 42.2509 40.7042 42.3223C40.6828 42.3943 40.6474 42.4605 40.5997 42.5181C40.4922 42.5994 40.3595 42.6408 40.2246 42.6352C39.7816 42.6673 39.3368 42.6615 38.8948 42.6178C38.7917 42.6175 38.692 42.582 38.6133 42.5162C38.5446 42.4405 38.5574 42.286 38.6565 42.2653L38.6237 42.2532L38.6255 42.252ZM29.0788 43.1406C29.1838 42.6057 29.1257 42.0514 28.9129 41.5496C28.8065 41.2459 28.6657 40.9554 28.4936 40.6839C28.2733 40.3935 27.9973 40.1515 27.6811 39.9712C27.3644 39.7909 27.0145 39.6767 26.6527 39.6357C25.9282 39.5585 25.1958 39.6116 24.4901 39.7942C24.4291 40.4508 24.6135 41.1077 25.0074 41.6364C25.4013 41.6213 25.7952 41.6623 26.1768 41.7599C26.4218 41.8097 26.6512 41.9158 26.8482 42.0695C27.0843 42.3056 27.2484 42.6042 27.3215 42.9304C27.3337 43.0117 27.3766 43.086 27.4412 43.1373C27.4834 43.1592 27.5303 43.1702 27.5779 43.1706C28.0775 43.2083 28.58 43.1961 29.0778 43.1352C29.0818 43.0568 29.0877 42.9763 29.0914 42.8972L29.0778 43.1352L29.0788 43.1406ZM25.1548 41.3849C24.8607 40.9806 24.7177 40.4859 24.7506 39.9866C24.7506 39.9748 24.7528 39.9631 24.758 39.9527C24.7675 39.9438 24.7783 39.9372 24.7901 39.9331C24.9534 39.8651 25.1297 39.8322 25.3063 39.8367C25.3052 40.4242 25.5143 40.9924 25.8964 41.4388C25.6481 41.4118 25.3987 41.4037 25.1489 41.414L25.1548 41.3849ZM38.8623 42.3097C39.3611 41.6778 39.6974 40.9329 39.8411 40.1408C39.9176 40.2737 39.9859 40.4116 40.0462 40.5531C40.065 40.5889 40.078 40.627 40.0846 40.6669C40.0857 40.7197 40.0761 40.7722 40.0554 40.8214C39.8862 41.3239 39.6649 41.8075 39.3947 42.2642C39.3722 42.3082 39.3393 42.3467 39.2983 42.3751C39.2651 42.3902 39.2285 42.3976 39.1919 42.3965C39.0685 42.4017 38.9458 42.3728 38.8375 42.3137L38.8605 42.3097H38.8623ZM43.0841 44.6656C43.3613 44.5481 48.0942 39.2133 48.0942 39.2133L49.3763 40.4334L43.0841 44.6656ZM43.4278 45.7943C43.6155 45.815 47.7668 44.3929 47.7668 44.3929L48.0845 45.436L43.4307 45.7922L43.4278 45.7943ZM43.1148 43.0745C43.2142 42.92 43.7071 38.6539 43.7071 38.6539L44.7606 38.8131L43.1148 43.0745ZM33.8771 46.8182C33.8782 46.6915 33.9007 46.5663 33.9444 46.4476C33.9905 46.3276 34.0574 46.2167 34.1424 46.1203C34.2325 46.022 34.3404 45.9414 34.4605 45.883C34.595 45.8213 34.741 45.7903 34.8892 45.7918C35.0617 45.7889 35.2328 45.8328 35.382 45.9193C35.5158 45.9961 35.624 46.1103 35.6939 46.2474L35.7054 46.2736L35.3521 46.5179L35.3336 46.4805C35.3118 46.4318 35.2819 46.3871 35.2453 46.3479C35.2136 46.3131 35.1759 46.2843 35.1338 46.2633C35.0946 46.2411 35.0532 46.2259 35.0093 46.2175C34.9664 46.2075 34.922 46.2027 34.8777 46.2031C34.796 46.2019 34.7151 46.2212 34.6416 46.257C34.5758 46.2921 34.5186 46.3401 34.4738 46.3996C34.4265 46.4602 34.3907 46.5286 34.3681 46.6017C34.3194 46.7547 34.3213 46.9191 34.3733 47.071C34.3992 47.1445 34.4372 47.2136 34.486 47.2738C34.5344 47.3326 34.5939 47.381 34.6612 47.4161C34.7295 47.4512 34.8053 47.4693 34.8818 47.4686C34.9265 47.4697 34.9712 47.4648 35.0144 47.4541C35.0602 47.4434 35.1038 47.426 35.1441 47.4013C35.1862 47.3784 35.225 47.3496 35.259 47.3156C35.293 47.2783 35.3199 47.235 35.3388 47.1881L35.3543 47.1508L35.7301 47.3673L35.7198 47.3943C35.6876 47.4737 35.6384 47.5458 35.5756 47.6046C35.5151 47.6647 35.4463 47.7147 35.3706 47.7545C35.2926 47.7941 35.2103 47.8259 35.1252 47.8477C35.0421 47.8687 34.9564 47.8791 34.8706 47.8787C34.7303 47.8798 34.5921 47.848 34.4665 47.7856C34.2273 47.6618 34.0419 47.4534 33.9465 47.2014C33.8978 47.0788 33.8727 46.9483 33.873 46.816L33.8771 46.8182ZM32.4328 47.4504H33.4477V47.8606H31.979V45.8025H32.4328V47.4504ZM1.48794 27.9947C1.71072 27.9615 1.93132 27.9149 2.1486 27.8551C2.39612 27.7763 2.48005 27.6766 1.88885 27.7213C0.764121 27.8081 -0.728305 27.1312 0.403803 26.8763C0.947391 26.7536 1.51565 26.7994 2.03255 27.0074C2.34482 27.0998 2.46305 26.9815 2.13384 26.8056C1.48534 26.4576 1.62317 26.2906 2.22283 26.3634C2.7047 26.418 3.15951 26.6136 3.53047 26.9258C4.55549 27.8898 2.52621 28.522 1.649 28.4784C1.17161 28.4525 0.688005 28.1373 1.48686 27.9977L1.48794 27.9947ZM58.147 27.6951C57.9249 27.6614 57.7047 27.6148 57.4882 27.5554C57.2395 27.4759 57.1527 27.3762 57.745 27.4217C58.8701 27.5066 60.3621 26.8315 59.2303 26.5766C58.6875 26.4539 58.12 26.4997 57.6042 26.7081C57.2913 26.8012 57.1734 26.6823 57.5026 26.5071C58.1492 26.1583 58.0143 25.992 57.4158 26.0627C56.9328 26.1188 56.4772 26.315 56.1044 26.6272C55.0831 27.5916 57.112 28.2223 57.9896 28.1798C58.4644 28.1539 58.9491 27.8388 58.1492 27.7025L58.147 27.6951ZM5.52394 24.6796L0 22.9604L1.16684 19.2115L2.28607 19.5606L1.5171 22.0351L2.70839 22.4065L3.34466 20.3676L4.37888 20.6902L3.74261 22.7287L5.92036 23.4071L5.52278 24.6833L5.52394 24.6796ZM7.08431 19.9142L1.98602 17.1822L3.21682 14.8843C3.33837 14.653 3.51202 14.4531 3.72445 14.3009C3.92805 14.1527 4.15827 14.0448 4.40254 13.9827C4.64413 13.9214 4.89432 13.9036 5.14184 13.9299C5.38423 13.9536 5.61923 14.0248 5.8339 14.1394C6.13916 14.3005 6.39738 14.5381 6.58398 14.8285C6.76465 15.1078 6.86262 15.4326 6.86667 15.7651L9.36148 15.6591L8.64981 16.9875L6.4824 17.0836L6.07115 17.8525L7.71501 18.7329L7.08394 19.9095L7.08431 19.9142ZM5.04431 17.3056L5.62147 16.2281C5.65844 16.1557 5.67726 16.0755 5.67617 15.9947C5.67545 15.9137 5.65475 15.8339 5.6159 15.7626C5.52575 15.5778 5.37648 15.4286 5.19177 15.3384C5.01363 15.2305 4.80048 15.1958 4.59724 15.2405C4.51707 15.256 4.44096 15.2886 4.37403 15.3354C4.30718 15.3828 4.25139 15.4438 4.21001 15.5143L3.65209 16.5555L5.0454 17.3016L5.04431 17.3056ZM11.9106 13.2172C11.6372 13.5157 11.2999 13.7488 10.9241 13.8992C10.5727 14.0378 10.198 14.1073 9.82041 14.1032C9.06852 14.0902 8.34795 13.7995 7.79778 13.287C7.52212 13.0294 7.30006 12.7202 7.14378 12.3769C6.82601 11.6896 6.78795 10.9056 7.03771 10.1906C7.16889 9.81411 7.37951 9.47051 7.65517 9.18298C7.92859 8.88409 8.26598 8.65096 8.64207 8.5009C8.99349 8.36162 9.36886 8.29289 9.74726 8.29846C10.1193 8.30548 10.4874 8.3816 10.8317 8.52312C11.1728 8.66015 11.4857 8.85934 11.754 9.11099C12.0296 9.36813 12.2517 9.67736 12.4076 10.0207C12.728 10.7068 12.7697 11.4897 12.5244 12.2058C12.3958 12.5835 12.1863 12.9285 11.9106 13.2172ZM8.74112 12.3071C8.90109 12.4571 9.08291 12.582 9.27986 12.6781C9.46935 12.7723 9.67448 12.8299 9.8851 12.8491C10.0924 12.8673 10.3011 12.8399 10.497 12.7689C10.7094 12.6851 10.9008 12.5546 11.056 12.3873C11.2115 12.2195 11.3272 12.0192 11.3948 11.8012C11.4499 11.5988 11.4599 11.3871 11.4244 11.1805C11.3882 10.9725 11.3143 10.7729 11.2068 10.5915C10.9858 10.2124 10.6584 9.90687 10.2653 9.71289C10.0761 9.61897 9.87062 9.56283 9.66007 9.54734C9.45459 9.53295 9.24846 9.56211 9.0552 9.63265C8.84567 9.71289 8.65799 9.8411 8.50793 10.0077C8.34615 10.1721 8.22749 10.3739 8.16251 10.5952C8.10745 10.7955 8.09558 11.0053 8.12778 11.2108C8.16027 11.4188 8.23233 11.6187 8.33985 11.8001C8.44773 11.9878 8.58296 12.1586 8.74076 12.3071H8.74112ZM18.7795 8.18501L17.0706 5.1736L17.2206 7.98438L16.5966 8.33797L14.2632 6.76725L15.9722 9.77866L14.8089 10.4374L11.9565 5.40564L13.2168 4.69072L16.0124 6.58065L15.8324 3.20828L17.0862 2.49734L19.9386 7.52949L18.7758 8.1887L18.7795 8.18501ZM27.5255 1.61499C27.4682 1.57324 27.4061 1.53967 27.3403 1.51413C27.2147 1.45835 27.0862 1.41067 26.9546 1.3708C26.7921 1.32124 26.6258 1.28318 26.4576 1.25735C26.2836 1.23 26.1066 1.22595 25.9311 1.24512C25.4571 1.30098 25.2368 1.48751 25.2756 1.8068C25.283 1.89471 25.3207 1.97712 25.3817 2.04064C25.453 2.10685 25.5376 2.15742 25.6296 2.18846C25.7571 2.23282 25.8886 2.2653 26.022 2.28636C26.1809 2.31226 26.3586 2.33924 26.5644 2.36992C26.8253 2.4087 27.0836 2.46152 27.3385 2.52917C27.5521 2.58423 27.7553 2.67359 27.9401 2.79406C28.1089 2.90823 28.25 3.05829 28.3531 3.23375C28.4673 3.43851 28.5375 3.66497 28.559 3.89853C28.6011 4.18186 28.5719 4.4712 28.4736 4.74057C28.3845 4.9708 28.2408 5.17585 28.055 5.33878C27.8628 5.50469 27.6418 5.63362 27.4028 5.719C27.1479 5.81248 26.8826 5.87528 26.6125 5.9056C26.1735 5.95545 25.7298 5.94257 25.2945 5.86754C25.0791 5.83165 24.8662 5.78072 24.6579 5.71567C24.4572 5.65583 24.2629 5.57712 24.0774 5.48031L24.5237 4.25472C24.5946 4.30638 24.6715 4.35001 24.7524 4.38365C24.9032 4.45384 25.0595 4.51222 25.2195 4.55802C25.4197 4.61605 25.6237 4.6604 25.8299 4.69072C26.0504 4.72429 26.2744 4.72834 26.4961 4.70288C26.9646 4.64709 27.1856 4.47786 27.1501 4.19221C27.146 4.14272 27.132 4.09432 27.1087 4.05076C27.0854 4.00677 27.0529 3.96835 27.0141 3.93767C26.9192 3.86785 26.8131 3.8154 26.7 3.78211C26.5497 3.73631 26.3956 3.70079 26.24 3.67604C26.0637 3.64869 25.8738 3.61512 25.6658 3.58039C25.4223 3.53784 25.1821 3.47728 24.9475 3.39892C24.761 3.33685 24.5854 3.24561 24.4276 3.12847C24.2891 3.0224 24.1753 2.88754 24.0947 2.73278C24.009 2.55833 23.9551 2.36992 23.9358 2.17631C23.8978 1.90064 23.9236 1.61948 24.0105 1.35488C24.0928 1.1151 24.2266 0.895946 24.4029 0.713471C24.5835 0.527596 24.7986 0.378332 25.0355 0.273782C25.2889 0.160694 25.5583 0.0875471 25.8343 0.0572312C26.0327 0.0339335 26.233 0.0298822 26.4325 0.0450039C26.6258 0.0586787 26.8179 0.0856652 27.0078 0.125242C27.1844 0.161781 27.3585 0.209823 27.5292 0.268574C27.6914 0.325878 27.8429 0.384991 27.9807 0.444465L27.5273 1.6113L27.5255 1.61499ZM29.7886 2.65955C29.8163 2.3056 29.9091 1.95975 30.0624 1.63937C30.2162 1.30836 30.4323 1.00976 30.6987 0.760356C30.9766 0.503213 31.3025 0.303302 31.6575 0.171403C32.0533 0.0276372 32.476 -0.0266259 32.8953 0.0121554C33.389 0.0365384 33.8671 0.194338 34.2783 0.468845C34.6394 0.709419 34.9246 1.04818 35.0998 1.44504L34.0223 2.08167C33.975 1.93682 33.9004 1.80239 33.8025 1.68597C33.628 1.48128 33.396 1.33347 33.1366 1.26176C33.018 1.22776 32.8968 1.20598 32.7738 1.19715C32.5425 1.17458 32.309 1.21075 32.0954 1.30315C31.9044 1.38744 31.7333 1.5108 31.5933 1.66564C31.4543 1.82084 31.3465 2.00078 31.2751 2.1962C31.2008 2.39503 31.155 2.60341 31.1395 2.81511C31.1218 3.03868 31.1406 3.26334 31.1953 3.48098C31.2459 3.68972 31.3346 3.88738 31.4565 4.06443C31.5744 4.2362 31.7278 4.38105 31.9062 4.48857C32.0947 4.60013 32.3067 4.66518 32.5251 4.67849C32.7815 4.69622 33.0387 4.65266 33.2752 4.55101C33.3986 4.49558 33.5131 4.42135 33.6147 4.33156C33.726 4.23287 33.8157 4.1132 33.88 3.97942L34.9195 4.70324C34.8148 4.91053 34.6689 5.0938 34.4905 5.24198C34.3039 5.39898 34.0947 5.52683 33.8701 5.62067C33.6369 5.719 33.3927 5.7881 33.1429 5.82652C32.899 5.86646 32.6519 5.87825 32.4054 5.86161C32.0071 5.83578 31.6202 5.71792 31.2751 5.51801C30.9466 5.3262 30.6588 5.07275 30.4268 4.77161C30.1962 4.4712 30.0225 4.13164 29.9139 3.76879C29.8034 3.41224 29.7609 3.03796 29.7883 2.66549L29.7886 2.65955ZM35.8077 6.3246L37.6703 0.847978L40.1393 1.68633C40.3872 1.76838 40.613 1.90694 40.7984 2.09093C40.9773 2.26863 41.1211 2.4778 41.2227 2.70832C41.3221 2.93631 41.3805 3.18021 41.3956 3.42852C41.4122 3.67127 41.3808 3.91437 41.3032 4.14496C41.1935 4.47192 41.002 4.76532 40.7471 4.99772C40.6248 5.10972 40.4873 5.20356 40.3388 5.27671C40.1902 5.34949 40.0325 5.40087 39.8699 5.43002L40.3805 7.87462L38.9539 7.38985L38.5062 5.2686L37.6814 4.98816L37.0817 6.75466L35.8159 6.32387L35.8077 6.3246ZM38.0483 3.88522L39.206 4.2791C39.2832 4.30385 39.3652 4.30899 39.445 4.29531C39.5252 4.28127 39.6002 4.24843 39.6649 4.19886C39.8319 4.07992 39.9542 3.90772 40.0115 3.71077C40.0894 3.51715 40.0894 3.30067 40.0115 3.10705C39.9834 3.03058 39.939 2.96069 39.8817 2.90273C39.8241 2.84435 39.755 2.79927 39.6786 2.7704L38.5611 2.39018L38.052 3.8863L38.0483 3.88522ZM45.6038 4.34371L46.6114 5.00473L45.2092 11.0009L44.0637 10.2508L44.3984 8.92251L42.8916 7.93778L41.8142 8.7799L40.6684 8.03018L45.6004 4.3456L45.6038 4.34371ZM44.7195 8.03018L45.2741 5.94807L43.5741 7.28009L44.7195 8.03018ZM51.8323 11.0379L50.573 9.80854L47.3511 13.1078L46.3967 12.1748L49.6186 8.87598L48.3543 7.64149L49.1738 6.8027L52.6541 10.201L51.8349 11.0401L51.8323 11.0379ZM51.5141 13.0446C51.819 12.8628 52.1549 12.7379 52.5048 12.6765C52.864 12.6104 53.2327 12.6141 53.5908 12.6873C53.9613 12.7653 54.3135 12.9152 54.6264 13.1285C54.9738 13.3668 55.2638 13.6794 55.4748 14.0437C55.7408 14.4605 55.889 14.9412 55.9038 15.4352C55.9174 15.8686 55.8074 16.2969 55.5857 16.6701L54.4421 16.1609C54.5326 16.0386 54.5987 15.8997 54.6371 15.7523C54.6711 15.6192 54.6841 15.4818 54.6752 15.3447C54.6671 15.2143 54.6408 15.0857 54.5969 14.9626C54.5551 14.8466 54.5015 14.7351 54.4376 14.6297C54.3223 14.4284 54.1583 14.2591 53.9603 14.1383C53.7821 14.0311 53.5834 13.9636 53.3768 13.9395C53.1699 13.9166 52.9608 13.9332 52.7598 13.9883C52.5547 14.0426 52.3581 14.1261 52.1763 14.2358C51.9842 14.3512 51.812 14.4964 51.6657 14.6663C51.5249 14.8293 51.4152 15.0166 51.3417 15.2191C51.2703 15.4145 51.2419 15.6233 51.2577 15.8309C51.2763 16.0486 51.3464 16.2592 51.4621 16.4443C51.5267 16.5515 51.6039 16.6505 51.6923 16.7392C51.7835 16.8337 51.8873 16.9154 52.0008 16.9815C52.1176 17.0503 52.2439 17.1009 52.3759 17.1315C52.5199 17.1634 52.6692 17.1671 52.8148 17.1423L52.827 18.41C52.5972 18.4447 52.3626 18.4322 52.1375 18.373C51.9017 18.3125 51.6764 18.2153 51.4699 18.0859C51.0449 17.82 50.6872 17.4589 50.4257 17.031C50.2161 16.6918 50.0879 16.3087 50.051 15.9115C50.0151 15.532 50.0539 15.1496 50.1659 14.7853C50.2775 14.4231 50.4541 14.0848 50.6872 13.7862C50.9145 13.4887 51.1953 13.2371 51.5157 13.0435L51.5141 13.0446ZM59.3094 22.6138L53.8819 24.6157L53.42 23.362L55.6473 22.5421L54.8485 20.3783L52.6212 21.1979L52.1593 19.9438L57.5872 17.9423L58.0491 19.1956L55.9463 19.9715L56.7418 22.1353L58.8446 21.3593L59.3064 22.613L59.3094 22.6138ZM0.221691 30.8616L3.76439 30.7622L3.83088 33.1012L3.43149 33.1133L3.3786 31.2201L2.19628 31.2551L2.24136 32.8462L1.86664 32.8588L1.82156 31.2677L0.234572 31.3132L0.222415 30.8616H0.221691ZM0.726788 36.1646C0.68135 35.9341 0.690901 35.6954 0.7545 35.4688C0.815059 35.2531 0.91816 35.0524 1.05787 34.8773C1.19932 34.7033 1.3708 34.5551 1.5637 34.4402C1.75804 34.3241 1.97199 34.244 2.19476 34.204C2.42238 34.1598 2.65666 34.1598 2.88428 34.204C3.1067 34.2469 3.31913 34.3297 3.51202 34.4487C3.70159 34.5662 3.86641 34.7196 3.99679 34.9002C4.13238 35.0872 4.22296 35.3022 4.2621 35.5298C4.30754 35.7611 4.29647 36.0009 4.22918 36.227C4.16421 36.4413 4.05814 36.6405 3.91662 36.8142C3.7751 36.9893 3.60326 37.1371 3.40928 37.2513C3.01503 37.4892 2.54654 37.5727 2.09462 37.4844C1.87293 37.4434 1.66123 37.361 1.47022 37.2421C1.28174 37.1249 1.11771 36.9713 0.987259 36.7913C0.852031 36.6051 0.761518 36.3904 0.721941 36.1639L0.726788 36.1646ZM2.27862 34.6505C2.10388 34.6811 1.93573 34.7424 1.78169 34.8296C1.63243 34.9143 1.49865 35.0225 1.38592 35.1519C1.27805 35.2789 1.19788 35.4271 1.15056 35.5867C1.10215 35.7523 1.09369 35.9271 1.12618 36.0963C1.15613 36.2717 1.22892 36.4369 1.33832 36.577C1.44359 36.707 1.57332 36.8149 1.72034 36.8951C1.87076 36.9745 2.03442 37.0274 2.2033 37.0503C2.37289 37.0739 2.54546 37.0706 2.71389 37.0399C2.8887 37.0104 3.05721 36.9501 3.21089 36.8619C3.36051 36.7787 3.49357 36.6682 3.60326 36.5367C3.7086 36.4099 3.78841 36.2633 3.83717 36.1058C3.88413 35.9385 3.89187 35.7637 3.85975 35.593C3.82755 35.4223 3.75664 35.2615 3.65246 35.1226C3.54971 34.9918 3.42078 34.8829 3.27405 34.8038C3.12442 34.7228 2.96148 34.6696 2.79297 34.6452C2.62157 34.6201 2.44749 34.6227 2.27681 34.6538L2.27862 34.6505ZM2.02256 40.7656C1.93393 40.5472 1.89732 40.3118 1.91656 40.0768C1.93501 39.8544 1.99781 39.6375 2.10164 39.4398C2.20511 39.2392 2.34518 39.0592 2.51441 38.9096C2.68437 38.7592 2.87907 38.6391 3.09005 38.5553C3.52056 38.3878 3.99794 38.3842 4.43097 38.5449C4.6408 38.6232 4.83224 38.743 4.99446 38.897C5.16217 39.0544 5.29227 39.2481 5.37468 39.4627C5.46403 39.6807 5.49876 39.9168 5.4759 40.1515C5.45332 40.3739 5.38792 40.5908 5.28373 40.7885C5.17845 40.9884 5.03874 41.1676 4.87066 41.3187C4.7044 41.4694 4.5115 41.588 4.3024 41.669C4.08621 41.7532 3.85606 41.7972 3.62395 41.7972C3.39893 41.7994 3.17507 41.7595 2.96481 41.6793C2.7568 41.6021 2.56651 41.4838 2.40538 41.3313C2.23723 41.1739 2.10721 40.9806 2.02516 40.7656H2.02256ZM3.25372 38.9801C3.08861 39.0441 2.93522 39.1369 2.80035 39.2525C2.66882 39.363 2.55833 39.4952 2.47411 39.6449C2.39279 39.7897 2.34221 39.9508 2.32594 40.1164C2.30929 40.2882 2.3352 40.4619 2.4006 40.6218C2.46232 40.7885 2.56571 40.9366 2.70058 41.0527C2.82806 41.1613 2.97624 41.2425 3.13665 41.2909C3.29959 41.342 3.47027 41.363 3.64059 41.353C3.81171 41.3431 3.98058 41.3069 4.14091 41.2463C4.30682 41.182 4.46049 41.0896 4.59427 40.9728C4.72617 40.8635 4.83557 40.7297 4.91682 40.5794C4.99663 40.4338 5.04655 40.2741 5.06319 40.109C5.07832 39.9361 5.05285 39.7616 4.98889 39.6006C4.925 39.4391 4.8245 39.2949 4.69514 39.179C4.56881 39.0703 4.42172 38.9887 4.26283 38.9384C4.10097 38.8867 3.93065 38.8649 3.7607 38.8745C3.58777 38.8833 3.41709 38.9185 3.25488 38.9801H3.25372ZM3.3757 43.8316L6.44246 42.0562L7.0584 43.1166C7.1911 43.3365 7.2772 43.5815 7.31113 43.8357C7.33848 44.0548 7.31815 44.2776 7.25166 44.4882C7.18408 44.6959 7.0736 44.8869 6.92802 45.0495C6.77247 45.2228 6.58992 45.3699 6.3874 45.4847C6.17425 45.6133 5.93997 45.7027 5.69534 45.7497C5.47923 45.7911 5.25674 45.784 5.04286 45.7312C4.82928 45.6784 4.62973 45.5805 4.45753 45.443C4.26912 45.2926 4.11168 45.1068 3.99346 44.8962L3.37788 43.8316H3.3757ZM6.15869 45.0931C6.32127 45.0014 6.46836 44.8843 6.59469 44.7473C6.70778 44.6235 6.79352 44.4775 6.84598 44.3183C6.89547 44.162 6.91102 43.9964 6.89177 43.8335C6.86811 43.651 6.80683 43.4754 6.71183 43.3176L6.32163 42.6445L3.94469 44.02L4.33561 44.6955C4.42649 44.8585 4.54992 45.0011 4.69847 45.1138C4.83152 45.211 4.98448 45.2778 5.14669 45.3085C5.3118 45.3381 5.48104 45.3336 5.64513 45.2971C5.8258 45.2571 5.99945 45.1895 6.15942 45.0961L6.15869 45.0931ZM11.1968 49.2218L10.3484 48.3413L8.08191 50.5224L7.76934 50.1995L10.0358 48.0162L9.18747 47.1386L9.47492 46.8589L11.482 48.9473L11.1942 49.2248L11.1968 49.2218ZM10.0233 52.5133L12.2096 49.7228L13.4041 50.6573C13.5235 50.7486 13.6188 50.8672 13.6831 51.0031C13.7456 51.1321 13.7817 51.2725 13.7891 51.4155C13.7969 51.5589 13.7788 51.7018 13.7359 51.8389C13.6964 51.9742 13.6314 52.1006 13.5438 52.2111C13.4695 52.3067 13.3816 52.391 13.2826 52.4615C13.1884 52.5295 13.0834 52.5813 12.9722 52.6149C12.8647 52.6478 12.752 52.6625 12.6393 52.6585C12.5251 52.6541 12.4127 52.6289 12.3078 52.5838L12.1456 54.183L11.7447 53.8682L11.8933 52.3662L11.1539 51.7883L10.3695 52.7907L10.0158 52.5133H10.0233ZM11.4096 51.4713L12.2531 52.1364C12.3215 52.1911 12.4024 52.2284 12.4885 52.2432C12.5716 52.2583 12.6574 52.2553 12.7394 52.2358C12.8259 52.2114 12.9079 52.1744 12.9833 52.126C13.062 52.0725 13.1318 52.0085 13.1909 51.9343C13.2508 51.8589 13.2959 51.7721 13.3236 51.6797C13.3498 51.5914 13.3613 51.4997 13.3583 51.4081C13.3554 51.3212 13.3343 51.2348 13.2959 51.1565C13.2586 51.0797 13.2042 51.0131 13.1366 50.9606L12.3152 50.3155L11.407 51.4764L11.4096 51.4713ZM14.9094 55.5335C15.0628 55.627 15.2379 55.6776 15.4171 55.6806C15.5697 55.678 15.7194 55.6396 15.8547 55.569C15.9939 55.4929 16.1177 55.3909 16.219 55.2686C16.3287 55.1411 16.4259 55.0029 16.5087 54.8562L17.3836 53.2922L17.776 53.5117L16.901 55.0757C16.7898 55.2764 16.6539 55.4622 16.4961 55.6289C16.3535 55.7833 16.1816 55.9078 15.991 55.9958C15.804 56.08 15.5993 56.118 15.3942 56.1055C15.1551 56.0866 14.9235 56.0128 14.7177 55.8901C14.4978 55.7774 14.309 55.6122 14.1682 55.4093C14.0526 55.2379 13.9798 55.041 13.9562 54.8355C13.9343 54.6275 13.9532 54.4169 14.0116 54.2162C14.0718 54.0016 14.1579 53.7947 14.268 53.6007L15.143 52.037L15.5354 52.2565L14.6597 53.8205C14.5758 53.9705 14.5071 54.1287 14.4557 54.2928C14.4069 54.4431 14.3862 54.6009 14.3947 54.7587C14.404 54.9102 14.4494 55.0584 14.527 55.1888C14.6231 55.3369 14.7558 55.4577 14.9128 55.5387L14.9094 55.5335ZM18.1406 55.685C18.2194 55.4826 18.3328 55.2952 18.4754 55.1319C18.6192 54.9642 18.7928 54.8248 18.9883 54.7218C19.1878 54.6164 19.4065 54.5514 19.6316 54.531C19.8777 54.5141 20.1249 54.5536 20.3532 54.6471C20.6229 54.7425 20.8598 54.9146 21.0353 55.1411C21.1898 55.3447 21.2829 55.5886 21.3036 55.8432L20.8905 55.927C20.8842 55.8125 20.8583 55.6994 20.8136 55.5938C20.7741 55.4991 20.7194 55.4123 20.6514 55.3358C20.5878 55.262 20.5143 55.1973 20.4334 55.1429C20.3558 55.0924 20.2738 55.0495 20.1877 55.0147C20.0203 54.9453 19.8378 54.9198 19.6575 54.9401C19.4912 54.9597 19.3304 55.0133 19.1864 55.0987C19.0422 55.1855 18.9148 55.2978 18.8102 55.43C18.7038 55.5612 18.6188 55.709 18.5594 55.8672C18.4921 56.0361 18.4563 56.2156 18.4533 56.3974C18.4489 56.5707 18.4754 56.7432 18.5316 56.9069C18.5863 57.0651 18.6716 57.2106 18.7825 57.3359C18.8963 57.4623 19.0386 57.5605 19.1978 57.6215C19.2883 57.6548 19.3826 57.6777 19.4782 57.6903C19.5787 57.7054 19.6811 57.7054 19.7816 57.6903C19.8869 57.6733 19.9893 57.6426 20.0864 57.599C20.1903 57.5517 20.2856 57.4863 20.3669 57.4065L20.6429 57.7317C20.5442 57.8348 20.4256 57.9175 20.2945 57.974C20.1626 58.0317 20.0236 58.0705 19.8814 58.09C19.5947 58.1266 19.3035 58.0934 19.0326 57.9925C18.8146 57.9094 18.6199 57.7745 18.4658 57.599C18.3162 57.4309 18.2006 57.2354 18.1259 57.023C17.9733 56.5896 17.9796 56.1162 18.1433 55.6869L18.1406 55.685ZM21.9369 58.9329L22.7246 55.4858L23.1621 55.5852L22.7265 57.4944L24.9446 55.9884L25.4171 56.0981L23.6824 57.3038L24.7063 59.5699L24.2289 59.4602L23.3569 57.4944L22.6145 57.9811L22.3736 59.0374L21.9361 58.9381L21.9369 58.9329ZM29.4517 56.4203L29.8319 56.4284L31.2108 60L30.7334 59.9897L30.3344 58.9455L28.8494 58.9166L28.4149 59.9449L27.9378 59.9386L29.4517 56.4203ZM30.2398 58.5944L29.6316 56.9453L28.9421 58.5704L30.2394 58.5951L30.2398 58.5944ZM32.8292 57.0924L33.1869 59.7731L32.7424 59.8329L32.2731 56.3198L32.6201 56.2743L35.1622 58.7208L34.7978 55.9884L35.2424 55.9281L35.7094 59.4354L35.3329 59.4893L32.8274 57.0913L32.8292 57.0924ZM37.5743 58.9484L36.4041 55.6019L37.5639 55.1992C37.803 55.1086 38.0587 55.0691 38.3136 55.0831C38.535 55.0968 38.7507 55.1589 38.9451 55.2653C39.1365 55.3706 39.3035 55.5154 39.435 55.6902C39.5765 55.8753 39.6874 56.0826 39.7628 56.3032C39.8485 56.5375 39.8924 56.785 39.8917 57.0344C39.8914 57.2546 39.8437 57.4716 39.7517 57.6714C39.6597 57.8713 39.5252 58.0494 39.3578 58.1924C39.1746 58.3494 38.9629 58.4699 38.7337 58.5467L37.5743 58.9484ZM39.3352 56.4502C39.2754 56.2725 39.1879 56.1055 39.0755 55.9551C38.9754 55.8225 38.849 55.7116 38.7042 55.6299C38.5597 55.552 38.4004 55.5062 38.2368 55.4951C38.0539 55.484 37.8702 55.511 37.698 55.5738L36.9627 55.8309L37.8694 58.4222L38.6055 58.1654C38.7821 58.107 38.9447 58.0125 39.0829 57.8879C39.2037 57.776 39.2983 57.6389 39.3596 57.4859C39.4192 57.3285 39.4469 57.1612 39.4417 56.993C39.4328 56.8083 39.3952 56.6265 39.3298 56.4532L39.3352 56.4502ZM42.885 54.9121C42.7701 54.7284 42.6885 54.5259 42.6445 54.3135C42.5957 54.0973 42.5887 53.8745 42.6238 53.6557C42.6596 53.4333 42.7402 53.2197 42.8607 53.0291C42.994 52.8211 43.1736 52.6467 43.3856 52.5196C43.6247 52.3625 43.9037 52.2768 44.1897 52.2731C44.4461 52.2709 44.6978 52.3437 44.9135 52.4822L44.7343 52.8665C44.6397 52.8 44.5329 52.7512 44.4202 52.7246C44.3205 52.701 44.2178 52.691 44.1154 52.6958C44.0186 52.7028 43.9229 52.7232 43.8313 52.7556C43.7441 52.7867 43.6602 52.8266 43.5819 52.8758C43.4256 52.9692 43.2955 53.1011 43.2035 53.2581C43.1192 53.403 43.0664 53.5638 43.0483 53.7304C43.0313 53.8985 43.0443 54.0685 43.0871 54.2318C43.1289 54.3947 43.1954 54.5496 43.2844 54.6925C43.4714 54.997 43.7596 55.2264 44.0984 55.3399C44.2573 55.392 44.4251 55.4109 44.5917 55.3968C44.7613 55.3828 44.925 55.3288 45.0691 55.2383C45.15 55.1866 45.2254 55.1259 45.2937 55.0584C45.3643 54.9852 45.4249 54.9032 45.473 54.8137C45.5232 54.7188 45.5609 54.6179 45.5849 54.5133C45.61 54.4018 45.6145 54.2869 45.5986 54.1738L46.0228 54.1487C46.046 54.2898 46.0405 54.4335 46.0072 54.5724C45.9736 54.7132 45.92 54.8488 45.848 54.9745C45.7763 55.1019 45.6884 55.2194 45.5864 55.3244C45.4884 55.4271 45.3788 55.5177 45.2586 55.5938C45.0631 55.7197 44.8393 55.7944 44.6068 55.8114C44.3818 55.8291 44.1553 55.804 43.9395 55.7367C43.7223 55.6673 43.5191 55.5616 43.3376 55.4238C43.1566 55.286 43.0021 55.116 42.8824 54.9224L42.885 54.9121ZM46.179 50.5372L46.4647 50.2886L49.8873 52.0015L49.5267 52.3197L48.5276 51.8142L47.4083 52.7952L47.7794 53.8486L47.4183 54.1641L46.1768 50.5435L46.179 50.5372ZM48.2227 51.6143L46.6642 50.8054L47.2476 52.473L48.2238 51.6176L48.2227 51.6143ZM50.2856 47.1212L49.4373 48.0036L51.7037 50.1851L51.3911 50.508L49.1247 48.3287L48.2763 49.2093L47.9885 48.9336L49.9952 46.8456L50.283 47.1231L50.2856 47.1212ZM54.5067 45.8077L54.8348 46.0356L53.4559 48.0076L50.5524 45.9754L51.9059 44.0407L52.2336 44.2695L51.1365 45.8357L52.0784 46.4935L53.0332 45.1315L53.3402 45.3458L52.3858 46.707L53.3886 47.409L54.5096 45.8036L54.5067 45.8077ZM55.6348 44.5835L52.4752 42.9781L53.1647 41.6254C53.232 41.4912 53.3288 41.3734 53.4474 41.2814C53.5623 41.1949 53.6935 41.1325 53.8328 41.097C53.9713 41.0615 54.1147 41.0501 54.2569 41.0641C54.3977 41.0766 54.5345 41.1159 54.6601 41.1801C54.7679 41.2344 54.8673 41.3039 54.9549 41.387C55.0403 41.4668 55.112 41.5607 55.167 41.6638C55.2199 41.7632 55.2557 41.8704 55.2734 41.9816C55.2908 42.0954 55.2871 42.211 55.2627 42.3233L56.8637 42.1722L56.6317 42.6259L55.1304 42.7708L54.7062 43.6077L55.8409 44.1838L55.6348 44.5835ZM54.3482 43.4233L54.8348 42.4686C54.8755 42.3909 54.8961 42.3053 54.8954 42.2176C54.8943 42.1331 54.8747 42.0499 54.8381 41.9735C54.7993 41.8925 54.7465 41.819 54.683 41.7558C54.6161 41.6882 54.5389 41.6317 54.4542 41.588C54.3686 41.5437 54.2751 41.5171 54.1786 41.5082C54.0873 41.4998 53.9957 41.5061 53.9066 41.5271C53.8213 41.5463 53.7407 41.5836 53.6713 41.6368C53.6025 41.6878 53.5464 41.7525 53.5073 41.8282L53.0347 42.7586L54.3482 43.4233ZM57.4675 40.6662L54.1006 39.5599L54.2403 39.1353L57.6071 40.2394L57.4675 40.6662ZM55.6684 37.3392L58.2992 37.9755L58.1931 38.4122L54.7462 37.5816L54.8282 37.2421L58.0261 35.7526L55.3481 35.1082L55.4541 34.6712L58.8948 35.5039L58.8054 35.875L55.6673 37.3455L55.6684 37.3392ZM58.8243 31.073C58.9684 31.2193 59.0796 31.3948 59.1505 31.5877C59.2218 31.7806 59.2506 31.9867 59.2355 32.1915C59.2174 32.419 59.1446 32.6385 59.0234 32.8318C58.9067 33.0209 58.7537 33.1857 58.5737 33.3166C58.3912 33.4507 58.1865 33.5516 57.9689 33.6147C57.7494 33.6794 57.52 33.7031 57.292 33.6853C57.0603 33.6639 56.8342 33.6018 56.6243 33.5009C56.4233 33.4037 56.2415 33.2708 56.0871 33.1093C55.9356 32.9489 55.8181 32.7594 55.742 32.5521C55.6562 32.3048 55.6292 32.0407 55.6632 31.7813C55.6976 31.5223 55.7922 31.2747 55.9393 31.0586C56.0945 30.855 56.3018 30.6964 56.5389 30.6008L56.7485 30.9662C56.5485 31.0416 56.3763 31.1757 56.2548 31.3516C56.138 31.523 56.0689 31.7225 56.0545 31.9295C56.0379 32.0991 56.0634 32.2698 56.1292 32.4268C56.1934 32.5775 56.2881 32.7136 56.4067 32.8266C56.5308 32.9426 56.6742 33.0358 56.8309 33.1022C56.9934 33.1728 57.1667 33.2161 57.3437 33.2305C57.5259 33.2471 57.7095 33.2312 57.8861 33.1828C58.0531 33.1366 58.2105 33.0616 58.3517 32.9611C58.4869 32.8646 58.6011 32.7413 58.6864 32.5986C58.7725 32.453 58.8243 32.2897 58.8379 32.1212C58.8476 31.9162 58.8106 31.7118 58.7297 31.5234C58.6487 31.3349 58.5261 31.1676 58.3709 31.0338L57.8828 30.9921L57.8181 31.7525L57.4797 31.7233L57.5772 30.5841L59.3386 30.7353L59.3057 31.1122L58.8283 31.0741L58.8243 31.073ZM13.11 27.9789C13.1241 27.9789 13.1381 27.9762 13.1514 27.9703C13.1643 27.9648 13.1758 27.9559 13.1854 27.9456C13.1931 27.9359 13.1987 27.9252 13.202 27.9134C13.2054 27.9016 13.2061 27.8894 13.2042 27.8772C13.2024 27.865 13.1984 27.8543 13.1917 27.844C13.1854 27.8336 13.1765 27.824 13.1665 27.817C13.1473 27.8044 13.1251 27.7974 13.1023 27.7963C13.0879 27.7959 13.0734 27.7989 13.0602 27.8048C13.0472 27.8107 13.0358 27.8196 13.0265 27.8307C13.0191 27.8399 13.0132 27.8514 13.0099 27.8628C13.0069 27.8742 13.0062 27.8861 13.0081 27.8979C13.0095 27.9098 13.0139 27.9208 13.0202 27.9312C13.0269 27.9412 13.0353 27.9503 13.0453 27.957C13.0638 27.9707 13.0867 27.9785 13.11 27.9789ZM13.2331 27.6293C13.2471 27.6289 13.2608 27.6267 13.2737 27.6208C13.2866 27.6153 13.2981 27.6071 13.3077 27.5971C13.3154 27.5876 13.321 27.5768 13.3243 27.565C13.3277 27.5532 13.3284 27.541 13.3266 27.5288C13.3247 27.5166 13.3203 27.5048 13.3136 27.4944C13.307 27.4845 13.2985 27.4752 13.2881 27.4685C13.2696 27.4549 13.2471 27.4471 13.2238 27.4468C13.2098 27.4468 13.1954 27.4494 13.1824 27.4552C13.1695 27.4612 13.1581 27.4704 13.1488 27.4811C13.1411 27.4903 13.1355 27.5003 13.1322 27.5122C13.1293 27.5236 13.1281 27.5366 13.13 27.5484C13.1322 27.5602 13.1366 27.5716 13.1433 27.5816C13.1495 27.5916 13.1584 27.6008 13.1684 27.6075C13.1865 27.623 13.2098 27.6304 13.2331 27.6293ZM13.4932 27.9334C13.5076 27.9334 13.5213 27.9308 13.5342 27.9249C13.5471 27.9189 13.5586 27.9101 13.5678 27.899C13.5756 27.8901 13.5815 27.8798 13.5848 27.868C13.5881 27.8565 13.5888 27.8436 13.587 27.8318C13.5852 27.82 13.5807 27.8085 13.5741 27.7986C13.5674 27.7886 13.5586 27.78 13.5483 27.7737C13.5294 27.7593 13.5065 27.7516 13.4829 27.752C13.4688 27.7516 13.4548 27.7553 13.4418 27.7612C13.4292 27.7671 13.4182 27.7752 13.4093 27.7863C13.4015 27.7952 13.3957 27.8066 13.3923 27.8181C13.389 27.8299 13.3879 27.8414 13.3897 27.8535C13.3915 27.8654 13.3957 27.8776 13.4023 27.8875C13.4085 27.8979 13.4178 27.9061 13.4281 27.9123C13.447 27.9263 13.4699 27.9338 13.4932 27.9334ZM12.4774 29.9149L14.3434 27.8C14.8052 27.2738 14.6157 27.0296 14.1117 26.9276C13.5907 26.8774 13.0709 27.0352 12.6659 27.367C12.1419 27.7165 11.7621 28.243 11.597 28.8512C11.5489 29.0363 11.543 29.2307 11.5796 29.4187C11.6161 29.6064 11.6949 29.7842 11.8094 29.9375C12.0636 30.2527 12.2587 30.1648 12.479 29.9139L12.4774 29.9149ZM13.1433 27.4829C13.1355 27.4918 13.13 27.5026 13.1267 27.514C13.1233 27.5255 13.1226 27.5373 13.1244 27.5491C13.1263 27.5609 13.1307 27.5724 13.137 27.5824C13.1437 27.5923 13.1525 27.6008 13.1625 27.6071C13.1832 27.6227 13.2087 27.63 13.2345 27.6278C13.2604 27.626 13.2844 27.6153 13.3025 27.5968C13.3103 27.5876 13.3159 27.5764 13.3191 27.5646C13.3224 27.5532 13.3229 27.5403 13.321 27.5284C13.3195 27.5166 13.3154 27.5055 13.3088 27.4952C13.3022 27.4852 13.2936 27.4771 13.2833 27.4704C13.2626 27.4552 13.2368 27.4475 13.2109 27.4497C13.185 27.4519 13.161 27.4641 13.1433 27.4829ZM13.4085 27.7874C13.4008 27.7967 13.3952 27.8077 13.392 27.8196C13.3886 27.831 13.3879 27.8428 13.3897 27.8547C13.3915 27.8668 13.396 27.8776 13.4027 27.8879C13.4093 27.8979 13.4178 27.9071 13.4281 27.9138C13.4488 27.9286 13.4743 27.9352 13.4995 27.9334C13.525 27.9315 13.549 27.9201 13.5671 27.9024C13.5752 27.8931 13.5811 27.8831 13.5844 27.8713C13.5881 27.8595 13.5888 27.8462 13.587 27.834C13.5856 27.8218 13.5811 27.8103 13.5745 27.8C13.5678 27.7896 13.559 27.7815 13.5486 27.7749C13.5276 27.7597 13.5017 27.752 13.4762 27.7542C13.4503 27.7567 13.4263 27.7686 13.4085 27.7874ZM13.0269 27.831C13.0188 27.8399 13.0132 27.8506 13.0099 27.8621C13.0066 27.8735 13.0055 27.8854 13.0073 27.8972C13.0092 27.909 13.0136 27.9205 13.0202 27.9304C13.0269 27.9404 13.0358 27.9489 13.0461 27.9552C13.0664 27.9707 13.0919 27.9777 13.1178 27.9759C13.1433 27.974 13.1673 27.9622 13.1854 27.9438C13.1931 27.9345 13.1987 27.9234 13.202 27.9116C13.2054 27.9001 13.2061 27.8875 13.2042 27.8754C13.2024 27.8635 13.1979 27.8524 13.1913 27.8421C13.185 27.8321 13.1761 27.8233 13.1662 27.8163C13.1451 27.8014 13.1193 27.7941 13.0937 27.7967C13.0683 27.7996 13.0446 27.8118 13.0272 27.831H13.0269ZM21.5345 24.3603C21.7699 24.3633 22.0016 24.422 22.2099 24.5314C22.4183 24.6404 22.5979 24.7971 22.7338 24.9892C22.9171 25.294 23.0247 25.6388 23.0472 25.9939C23.0698 26.3486 23.0069 26.7041 22.8639 27.0299C22.2864 26.8375 21.6819 26.7392 21.0733 26.7392H21.0142C21.6417 26.948 22.2284 27.2628 22.7501 27.6692C22.6673 27.9666 22.5842 28.2615 22.5 28.5567C22.0769 28.3812 21.6228 28.2911 21.165 28.2914C21.0242 28.2914 20.8838 28.2999 20.7445 28.3177C21.1971 28.5238 21.6501 28.7274 22.1039 28.9358C22.1671 28.9568 22.2199 29.0008 22.2524 29.0592C22.265 29.112 22.2602 29.1678 22.2387 29.2181C22.1497 29.4996 22.0603 29.7842 21.9738 30.0665C21.7728 30.1019 21.5696 30.1241 21.366 30.1326C21.3446 30.1108 21.3239 30.0861 21.3017 30.0643C21.056 29.8359 20.7493 29.6837 20.419 29.626C20.2819 29.598 20.1422 29.5839 20.0022 29.5847C19.7369 29.581 19.4742 29.639 19.2351 29.7535C19.1605 29.7288 19.0955 29.6811 19.05 29.6168C18.9761 29.4494 18.9672 29.2602 19.0245 29.0866L19.0552 28.9924C19.2876 27.7117 19.7111 26.4728 20.3107 25.3181C20.4389 25.0276 20.6315 24.7709 20.8742 24.5669C21.0675 24.4309 21.2988 24.3596 21.5352 24.3629L21.5345 24.3603ZM16.8123 26.1964C16.9745 26.1934 17.1331 26.247 17.2598 26.3486C17.4275 26.5204 17.544 26.7358 17.596 26.9701C17.9334 28.0132 18.3011 29.0459 18.699 30.0691C18.3484 30.1271 18.0331 30.3185 17.8207 30.6038L17.8144 30.6004C17.2679 29.9058 16.7581 29.1827 16.287 28.4347C16.1111 28.1946 15.9787 27.9252 15.8968 27.6392C15.8328 27.3603 15.8612 27.068 15.9769 26.8064C16.0792 26.5604 16.2718 26.363 16.5153 26.2544C16.6102 26.2156 16.7115 26.1949 16.8146 26.1942L16.8123 26.1964ZM16.2016 27.5081C16.4484 27.5214 16.6956 27.4829 16.9269 27.395C16.9439 27.3858 16.9627 27.3817 16.9824 27.3824C17.0015 27.3832 17.0204 27.3887 17.0366 27.3991C17.0747 27.4342 17.047 27.4985 17.0185 27.5387C16.9605 27.6285 16.8833 27.7035 16.7921 27.7586C16.7207 27.7919 16.6439 27.8126 16.5652 27.8184C16.4643 27.8414 16.359 27.831 16.2644 27.7886C16.2418 27.7767 16.2219 27.7601 16.2064 27.7398C16.1909 27.7198 16.1798 27.6962 16.1739 27.6714C16.1679 27.6467 16.1676 27.6208 16.1724 27.596C16.1768 27.5709 16.1872 27.5473 16.2016 27.5266V27.5099V27.5081ZM16.4606 28.0982C16.7081 28.1089 16.955 28.0701 17.1874 27.984C17.204 27.9747 17.2228 27.9696 17.2421 27.9696C17.2613 27.9696 17.2802 27.9747 17.2972 27.984C17.3341 28.0191 17.3071 28.0834 17.2772 28.127C17.2192 28.2157 17.1423 28.29 17.0514 28.3446C16.9805 28.3782 16.9036 28.3986 16.8253 28.4045C16.7241 28.4289 16.6183 28.4182 16.5245 28.3735C16.502 28.3616 16.4824 28.345 16.4669 28.3251C16.4514 28.3047 16.4396 28.2822 16.4336 28.2574C16.4277 28.233 16.427 28.2068 16.4317 28.182C16.4362 28.1569 16.4462 28.1333 16.4606 28.1126V28.096V28.0982ZM16.812 28.7086C17.0592 28.72 17.3063 28.6813 17.538 28.5936C17.555 28.5848 17.5743 28.5804 17.5934 28.5811C17.6127 28.5818 17.6315 28.5878 17.6478 28.5978C17.6855 28.6317 17.6585 28.6953 17.6282 28.7385C17.5827 28.8198 17.5177 28.8885 17.4387 28.9377C17.3596 28.9864 17.269 29.0141 17.176 29.0182C17.075 29.0415 16.9694 29.0301 16.8756 28.9861C16.8533 28.9742 16.8334 28.9576 16.8175 28.9377C16.802 28.9173 16.7909 28.894 16.785 28.8693C16.7791 28.8446 16.7784 28.8187 16.7828 28.7935C16.7876 28.7684 16.7976 28.7451 16.812 28.7241V28.7097V28.7086ZM17.2535 29.3356C17.4294 29.3444 17.6053 29.3167 17.7701 29.2547C17.7823 29.2492 17.7952 29.2466 17.8089 29.2466C17.8222 29.2466 17.8358 29.2492 17.8481 29.2547C17.8761 29.2809 17.8569 29.3249 17.834 29.3604C17.793 29.4224 17.7387 29.4749 17.6751 29.5137C17.6234 29.5355 17.5683 29.5506 17.5126 29.5584C17.4401 29.5747 17.3651 29.5662 17.2982 29.5344C17.2823 29.5259 17.2683 29.5137 17.2572 29.4993C17.2462 29.4849 17.238 29.4682 17.2339 29.4505C17.2299 29.4328 17.2295 29.4147 17.2328 29.3966C17.2362 29.3788 17.2432 29.3619 17.2535 29.347V29.3356ZM20.2442 30.4836C20.3606 30.5065 20.4663 30.5668 20.5442 30.6558C20.6229 30.7448 20.6692 30.8576 20.6769 30.9758C20.6802 30.9998 20.6743 31.0242 20.6606 31.0442C20.6499 31.0534 20.6385 31.0612 20.6263 31.0682C20.5908 31.0807 20.5528 31.0845 20.5158 31.0774C20.4792 31.0704 20.4449 31.053 20.4164 31.0286C20.3946 31.0083 20.3754 30.9854 20.3584 30.9603C20.286 30.8613 20.2147 30.7637 20.1415 30.665C20.1278 30.651 20.1178 30.6348 20.1108 30.6166C20.1042 30.5982 20.1012 30.5789 20.1027 30.5594C20.1079 30.5446 20.1168 30.5305 20.1286 30.5202C20.1404 30.5095 20.1541 30.5021 20.1696 30.4984C20.2006 30.4921 20.2331 30.4921 20.2641 30.4984L20.2446 30.4891L20.2442 30.4836ZM21.4266 31.2548C21.4776 31.2991 21.519 31.3538 21.5489 31.4144C21.5747 31.4672 21.5933 31.5234 21.621 31.5729C21.6328 31.6003 21.6501 31.625 21.6719 31.6453C21.6938 31.6657 21.7196 31.6819 21.7477 31.6919C21.7522 31.6945 21.7573 31.6948 21.7625 31.6948C21.768 31.6948 21.7732 31.6945 21.7776 31.6919C21.7828 31.6882 21.7869 31.683 21.7894 31.6775C21.8034 31.6461 21.8109 31.6121 21.8109 31.5781C21.8109 31.5437 21.8034 31.5098 21.7894 31.4787C21.7613 31.417 21.7233 31.3601 21.6768 31.3109C21.6512 31.2773 21.6195 31.2489 21.5829 31.2278C21.5275 31.2057 21.4669 31.2001 21.4085 31.2112C21.4081 31.2204 21.4107 31.2297 21.4163 31.2371C21.4218 31.2448 21.4292 31.2504 21.4381 31.2525L21.4266 31.2548ZM16.989 32.2986C17.2502 32.3041 17.5066 32.3695 17.7383 32.4904C17.97 32.6112 18.171 32.7845 18.3251 32.9958C18.5198 33.2951 18.645 33.6343 18.6927 33.9879C18.7404 34.3419 18.709 34.7021 18.6007 35.0425C18.5394 35.2859 18.4293 35.5143 18.2763 35.7138C18.1229 35.9218 17.9415 36.1077 17.7379 36.2666C17.2388 36.6135 16.6487 36.8049 16.0412 36.8168C15.9792 36.8168 15.9182 36.8168 15.8572 36.8105C15.6511 36.7917 15.4475 36.7506 15.2494 36.6904C15.1337 36.659 14.9911 36.5732 15.0299 36.4606C15.5018 36.2607 16.3128 36.3257 16.7418 36.046C16.4953 36.0479 16.25 36.0187 16.0106 35.9592C16.1713 35.8697 16.3051 35.7397 16.3996 35.5823C16.4938 35.4245 16.5456 35.2457 16.5485 35.0621C16.5655 34.9811 16.5736 34.8976 16.5729 34.8148C16.5545 34.6486 16.5031 34.4882 16.4214 34.3422C16.2684 34.0093 16.1339 33.6687 16.0183 33.321C15.9706 33.2053 15.9507 33.0801 15.961 32.9556C15.9862 32.8332 16.0434 32.7201 16.1262 32.6271C16.209 32.534 16.3142 32.4645 16.4329 32.425L16.444 32.4179C16.6162 32.3411 16.8031 32.3019 16.9915 32.303L16.989 32.2986ZM16.8656 32.8063C16.8504 32.6788 16.7958 32.5595 16.7093 32.4645C16.6102 32.3311 16.5123 32.1962 16.4126 32.0628C16.3974 32.0447 16.3852 32.024 16.3778 32.0015C16.3719 31.9693 16.3756 31.9365 16.3878 31.9062C16.4096 31.816 16.4506 31.7081 16.5404 31.6937C16.6306 31.6797 16.7144 31.7757 16.7602 31.8637C16.8689 32.081 16.9435 32.313 16.9819 32.5524C16.9912 32.6012 16.9912 32.6511 16.9819 32.6999C16.9761 32.7239 16.962 32.745 16.9428 32.7608C16.924 32.7767 16.9003 32.7863 16.8756 32.7878L16.8685 32.8044L16.8656 32.8063ZM17.6371 33.2197C18.0029 33.5981 18.2275 34.091 18.2733 34.6157C18.3199 34.6157 18.3354 34.5562 18.3354 34.51C18.3558 34.2658 18.3339 34.02 18.2715 33.7829C18.2142 33.6207 18.1333 33.4677 18.031 33.3295C17.987 33.2556 17.9256 33.1935 17.8528 33.148C17.8137 33.1259 17.7686 33.117 17.7239 33.1222C17.7018 33.1263 17.6814 33.1373 17.6655 33.1533C17.6497 33.1695 17.6393 33.1902 17.6356 33.2124V33.2216L17.6371 33.2197ZM16.2193 40.095C16.2027 39.5562 16.1092 39.0223 15.9415 38.5101C15.821 38.0472 15.7216 37.579 15.6418 37.1087C15.7833 37.1397 15.9263 37.1604 16.0708 37.1711C16.1476 37.1763 16.2245 37.1793 16.3014 37.1793C17.0425 37.1681 17.7638 36.938 18.3749 36.5183C18.6332 36.328 18.8616 36.1003 19.0537 35.8431L19.0681 35.8243C19.2813 35.5531 19.4354 35.2409 19.5204 34.9069C19.5869 34.6726 19.6279 34.4309 19.6431 34.1878C19.9002 34.265 20.167 34.3053 20.4356 34.3061H20.504C20.8709 34.3145 21.2356 34.2433 21.5729 34.0977C21.9694 33.9107 22.303 33.6121 22.5332 33.2394C22.7479 34.3422 23.362 35.3285 24.258 36.0069C23.7969 37.7907 23.7762 39.6593 24.1989 41.4528C24.3711 42.0196 24.4077 42.6197 24.305 43.2031C24.3035 43.2271 24.2954 43.25 24.2817 43.2697C24.268 43.2892 24.2492 43.3055 24.2274 43.3151C24.2056 43.3246 24.1819 43.3273 24.1579 43.3243C24.1342 43.3213 24.1114 43.3125 24.0928 43.2974C23.3343 43.0365 22.5772 42.7745 21.8208 42.5114C21.9372 41.8807 21.8792 41.2307 21.6538 40.6303C21.523 40.1881 21.305 39.7757 21.0128 39.4184C20.3141 38.6125 19.1697 38.3579 18.1045 38.3154C17.9796 38.3044 17.854 38.3165 17.7335 38.3517C17.5421 38.4389 17.3873 38.5907 17.2964 38.7807C17.0019 39.2902 16.8674 39.8766 16.9106 40.4637C16.7714 40.4578 16.635 40.4231 16.5097 40.361C16.3849 40.2989 16.274 40.2106 16.1853 40.1031L16.2208 40.0968L16.2193 40.095ZM19.9959 30.2686C20.0898 30.2686 20.1836 30.2782 20.2753 30.2974C20.4759 30.3284 20.6629 30.4171 20.8143 30.5524C20.8886 30.6215 20.9418 30.7094 20.9688 30.8073C20.9954 30.9049 20.9947 31.0083 20.9662 31.1055C20.9984 31.1036 21.0298 31.0952 21.0586 31.0807C21.0878 31.0659 21.1136 31.0452 21.1343 31.0205C21.155 30.9958 21.1701 30.9665 21.1794 30.9355C21.1887 30.9045 21.1912 30.8723 21.1871 30.8402C21.202 30.8395 21.2164 30.8395 21.2311 30.8402C21.3893 30.8505 21.5408 30.9052 21.6694 30.9976C21.798 31.0903 21.8981 31.2178 21.9579 31.3645C22.0758 31.6767 22.0961 32.0177 22.0167 32.3422C21.9772 32.6448 21.8674 32.9337 21.6956 33.1865C21.5242 33.4388 21.2958 33.648 21.0286 33.7965C20.7792 33.8996 20.5106 33.9491 20.2405 33.9414H20.1851C19.8947 33.948 19.6064 33.883 19.346 33.754C19.2817 33.3376 19.1213 32.9423 18.8786 32.5979C18.6834 32.3271 18.4337 32.1005 18.1448 31.9332C18.1411 31.8918 18.1396 31.8523 18.1396 31.8086V31.7236C18.1444 31.4986 18.205 31.2781 18.3155 31.0815C18.372 30.9847 18.4518 30.9041 18.5475 30.8453C18.6432 30.787 18.7518 30.7523 18.8642 30.746H18.87C19.1206 30.7759 19.353 30.8916 19.5274 31.0733C19.5259 30.9821 19.4978 30.8937 19.4476 30.8176C19.3973 30.7411 19.3267 30.6802 19.2436 30.6425C19.323 30.518 19.435 30.4179 19.5677 30.3525C19.7003 30.2871 19.8488 30.259 19.9959 30.2716V30.2686ZM15.1774 31.5633C15.3758 31.5619 15.572 31.6084 15.749 31.6989C15.5804 31.9413 15.4537 32.2099 15.3739 32.4944C15.3636 32.5314 15.3547 32.5712 15.3477 32.6082C15.32 32.6873 15.3 32.769 15.2882 32.8518C15.2609 33.0664 15.2856 33.2852 15.3591 33.4888C15.3768 33.5852 15.3983 33.6772 15.4223 33.7703C15.5431 34.1668 15.6972 34.5532 15.8835 34.9231L15.8794 34.946C15.8731 34.9863 15.8672 35.0181 15.8602 35.0517C15.7386 35.2287 15.576 35.3736 15.3865 35.4741C15.1969 35.5749 14.9859 35.6284 14.7712 35.6307C14.7055 35.6307 14.6401 35.6251 14.5755 35.6141L14.554 35.6067C14.3859 35.5195 14.2373 35.3976 14.1191 35.2494C13.8575 34.9427 13.6731 34.578 13.58 34.1856C13.4869 33.7936 13.488 33.3853 13.5837 32.9936C13.6909 32.5163 13.9717 32.0961 14.3715 31.8138C14.6109 31.6557 14.891 31.5703 15.1781 31.5684L15.1774 31.5633ZM15.0816 27.6799C14.945 27.7398 14.8267 27.8358 14.7398 27.9578C14.7029 28.0376 14.6807 28.1244 14.6752 28.2123C14.6744 28.2774 14.6567 28.3413 14.6246 28.3979C14.5943 28.423 14.5606 28.4429 14.5241 28.457C14.3988 28.4983 14.288 28.5748 14.2056 28.6776C14.166 28.7451 14.1431 28.8209 14.1387 28.8993C14.1353 29.0016 14.1136 29.1021 14.074 29.1963C14.0651 29.2059 14.0544 29.2133 14.0423 29.2181C13.9783 29.2562 13.9099 29.2913 13.8457 29.3249C13.7977 29.3511 13.754 29.3844 13.7167 29.4243C13.7086 29.4342 13.7009 29.4454 13.6938 29.4564C13.6532 29.5159 13.631 29.5861 13.6295 29.6582C13.6229 29.7974 13.6435 29.85 13.5334 29.9597C13.4776 30.0118 13.4164 30.0576 13.3506 30.0953C13.2789 30.1396 13.2161 30.1958 13.1658 30.2634C13.1 30.358 13.0664 30.4711 13.0694 30.5864C13.0672 30.6145 13.0616 30.6425 13.0531 30.6691C13.0409 30.7034 13.0209 30.7349 12.9951 30.7604C12.9696 30.7859 12.939 30.8051 12.9046 30.8173C12.7132 30.9097 12.5935 30.9932 12.541 31.151C12.643 31.1062 12.7527 31.0829 12.8636 31.0826H12.8843C12.9231 31.0608 12.9681 31.0349 13.0236 31.0091C13.0842 30.9854 13.1388 30.9481 13.1835 30.9012C13.2286 30.8542 13.2626 30.7992 13.2837 30.7375C13.2952 30.6976 13.3029 30.6558 13.3066 30.6145C13.3025 30.5361 13.3217 30.4581 13.362 30.3905C13.3967 30.3436 13.4404 30.3041 13.4902 30.2737C13.5704 30.2279 13.6443 30.1722 13.7105 30.1078C13.7829 30.041 13.8335 29.9542 13.8553 29.8581C13.8645 29.7967 13.8682 29.7339 13.8668 29.6718C13.8671 29.6364 13.8775 29.6024 13.8971 29.5724C13.9008 29.5691 13.9018 29.565 13.9063 29.561C13.9273 29.5399 13.9517 29.5222 13.978 29.5082C14.0411 29.4701 14.1054 29.438 14.1705 29.4025C14.2052 29.3829 14.2366 29.3581 14.2636 29.329C14.3368 29.2074 14.3752 29.0681 14.3748 28.9262C14.3773 28.8778 14.3899 28.8294 14.4117 28.7862C14.4724 28.7226 14.5485 28.6753 14.6323 28.6483C14.7181 28.6213 14.7919 28.5671 14.8429 28.4931C14.8943 28.4193 14.9191 28.3302 14.9146 28.2404C14.918 28.1765 14.9324 28.1141 14.9564 28.055C15.0266 27.9726 15.1141 27.9068 15.2128 27.8624C15.2221 27.8558 15.2279 27.8525 15.2361 27.848C15.2302 27.8284 15.225 27.8085 15.2217 27.7889C15.2109 27.7442 15.2025 27.6988 15.1951 27.6562C15.1762 27.6518 15.1567 27.6511 15.1371 27.6541C15.1179 27.6574 15.099 27.6644 15.0824 27.6748L15.0816 27.6799ZM15.4681 28.417L13.4806 31.3265C13.5434 31.3815 13.6 31.4436 13.6488 31.5119C13.7544 31.4096 13.8689 31.3169 13.9913 31.2352C14.0441 31.199 14.1021 31.1654 14.1601 31.1336L15.7275 28.8405L15.7083 28.8106C15.6267 28.6849 15.5435 28.5538 15.4681 28.417ZM16.2696 29.6637L15.4478 30.8982C15.3573 30.886 15.266 30.8797 15.1748 30.8797C15.0262 30.879 14.878 30.8949 14.7332 30.9274L15.9222 29.1394C16.035 29.3156 16.1509 29.4897 16.2696 29.6637ZM12.9094 33.5427C12.8787 33.5656 12.613 33.7548 12.4664 33.8357C12.4139 33.8701 12.3544 33.893 12.2927 33.9029C12.2617 33.9099 12.2295 33.9085 12.1992 33.8981C12.1693 33.8874 12.143 33.8685 12.1228 33.8442C12.1005 33.8046 12.0898 33.7607 12.0917 33.7156C12.0935 33.6705 12.1083 33.6273 12.1335 33.5903C12.1926 33.4547 12.2979 33.3443 12.4301 33.2785C12.3718 33.2833 12.3134 33.2759 12.2572 33.2578C12.2014 33.2397 12.1497 33.2101 12.105 33.1717C12.0588 33.1314 12.0218 33.0816 11.9964 33.0258C11.9827 32.9958 11.9797 32.9622 11.9886 32.9304C11.9971 32.8986 12.0167 32.8706 12.044 32.8518C12.0721 32.8395 12.1024 32.8348 12.1331 32.8362C12.2598 32.8185 12.3887 32.8248 12.5132 32.8558C12.4479 32.7338 12.4113 32.5986 12.4054 32.4604C12.3995 32.3218 12.4246 32.1836 12.479 32.0562C12.4911 32.0111 12.5188 31.9716 12.5572 31.9446C12.5802 31.9332 12.6056 31.9272 12.6312 31.928C12.657 31.9284 12.6821 31.935 12.7047 31.9476C12.7664 31.9793 12.8199 32.0252 12.8613 32.0813C12.9024 32.1371 12.9304 32.2014 12.943 32.2698C12.9788 32.4383 13.0076 32.7508 13.0165 32.8528C13.0065 32.8887 12.9966 32.9286 12.9874 32.9688C12.9641 33.0653 12.9464 33.1624 12.9341 33.2611C12.9227 33.3336 12.9157 33.4071 12.9131 33.4806C12.9131 33.5002 12.9131 33.5186 12.9094 33.5397V33.5427ZM19.0866 41.8507C19.2329 42.6419 19.0862 43.3321 18.7618 43.3919C18.4374 43.4518 18.0517 42.8617 17.9057 42.0703C17.7601 41.2792 17.9061 40.5852 18.2304 40.5269C18.5549 40.4689 18.9403 41.0597 19.0866 41.8507Z" fill="#2B2A29"/>
</svg>
