<svg width="100" height="39" viewBox="0 0 100 39" fill="none" xmlns="http://www.w3.org/2000/svg">
<path d="M57.0058 15.3691C56.0237 14.0572 55.6855 12.216 55.9417 10.6504C56.1232 9.5419 56.5885 8.41934 57.2773 7.58655C58.5398 6.06069 60.9338 5.50761 62.7727 6.25554C64.7464 7.05806 65.2194 8.9756 65.2121 10.8893L58.1904 13.3923C58.4578 14.062 58.6222 14.465 58.9626 14.8041C59.6269 15.4661 60.6983 15.8136 61.6232 15.7502C62.5341 15.6875 63.4284 15.3073 64.221 14.8578L64.894 16.1404C62.5912 17.6957 58.777 17.7354 57.0058 15.3691ZM63.3409 9.91679C63.0854 7.50883 61.1543 6.94292 59.611 7.76831C58.1157 8.56859 57.8241 10.3286 57.976 11.8775L63.3409 9.91679Z" fill="#848484"/>
<path d="M66.1953 15.7619C66.3633 15.7313 66.6191 15.6931 66.9627 15.6472C67.3062 15.6015 67.6461 15.5785 67.982 15.5785V7.46948C67.6156 7.43894 67.268 7.41607 66.9398 7.40074C66.6114 7.38554 66.3633 7.37787 66.1953 7.37787V6.0951C66.348 6.0799 66.558 6.06074 66.8252 6.03787C67.0925 6.015 67.3903 5.992 67.7185 5.96913C68.0469 5.94626 68.4058 5.93092 68.7952 5.92326C69.1846 5.91572 69.5779 5.91189 69.9749 5.91189L69.8833 7.92765H69.9291C70.0359 7.68336 70.1773 7.43511 70.3529 7.18315C70.5285 6.9312 70.7385 6.70212 70.9828 6.49603C71.2271 6.28982 71.5021 6.11798 71.8074 5.98063C72.1129 5.84315 72.4488 5.77441 72.8154 5.77441C73.1666 5.77441 73.4415 5.80495 73.64 5.86602C73.8385 5.9271 73.976 5.97296 74.0524 6.0035L73.5714 7.81317C73.4949 7.78264 73.3803 7.7406 73.2277 7.68719C73.075 7.63365 72.8536 7.60695 72.5634 7.60695C72.1968 7.60695 71.861 7.69473 71.5555 7.87041C71.2501 8.04596 70.9828 8.2445 70.7537 8.46592C70.5247 8.68734 70.3376 8.90889 70.1926 9.13031C70.0474 9.35173 69.952 9.50824 69.9061 9.59985V15.5785C70.0741 15.5785 70.2575 15.5862 70.4559 15.6015C70.6545 15.6167 70.8492 15.632 71.0401 15.6472C71.2309 15.6626 71.4066 15.6816 71.567 15.7045C71.7273 15.7275 71.8456 15.7465 71.922 15.7619V17.0675H66.1953V15.7619Z" fill="#848484"/>
<path d="M74.9844 15.7622C75.1524 15.7317 75.4082 15.6935 75.7517 15.6476C76.0953 15.6019 76.4352 15.5789 76.771 15.5789V7.46987C76.4046 7.43934 76.0571 7.41647 75.7289 7.40113C75.4005 7.38593 75.1524 7.37826 74.9844 7.37826V6.0955C75.1371 6.0803 75.3471 6.06113 75.6143 6.03826C75.8815 6.01539 76.1794 5.99239 76.5076 5.96952C76.836 5.94665 77.1948 5.93132 77.5843 5.92365C77.9737 5.91612 78.367 5.91228 78.7639 5.91228L78.6723 7.67609H78.7182C79.161 7.09578 79.4488 6.78434 80.0137 6.44104C82.394 4.99383 85.3028 6.36107 85.3028 9.23381V15.0598L83.3558 15.8162V9.5315C83.3558 8.64173 83.0163 7.75857 82.0729 7.53716C81.2586 7.34614 80.2234 7.67979 79.664 8.16651C79.316 8.46949 79.0134 8.85535 78.6952 9.27954V15.5789C79.0312 15.5789 79.3673 15.6019 79.7031 15.6476C80.0392 15.6935 80.2911 15.7317 80.4591 15.7622V17.0679H74.9844V15.7622Z" fill="#848484"/>
<path d="M44.0674 37.0663C44.2346 37.0207 44.4892 36.9753 44.8312 36.9297C45.1731 36.8841 45.5113 36.8612 45.8457 36.8612V23.7755C45.3176 23.7332 44.5945 23.7434 44.0469 23.7434L44.049 22.5377C45.247 22.3665 46.5363 22.3465 47.7462 22.3465L47.738 23.4556H47.7836C48.301 22.848 49.2491 22.4162 50.1119 22.2648C51.5345 22.0155 52.9579 22.5583 53.8769 23.6716C54.2719 24.1501 54.6149 24.5033 54.8353 25.2023C55.0555 25.9014 55.1657 26.7071 55.1657 27.619C55.1657 28.4854 55.0404 29.2795 54.7896 30.0015C54.5389 30.7235 54.1929 31.3428 53.7522 31.8595C52.6118 33.1966 50.581 33.9472 48.9007 33.2362C48.5055 33.0691 48.1408 32.8335 47.8063 32.5295H47.7607V36.8612C48.0952 36.8612 48.4333 36.8878 48.7753 36.941C49.1173 36.9942 49.3719 37.0359 49.5391 37.0663V38.3432H44.0674V37.0663ZM50.223 31.8911C50.7247 31.8911 51.1654 31.7884 51.5453 31.5833C51.9252 31.3781 52.1135 31.0854 52.3718 30.7055C53.5216 29.0144 53.459 26.4634 52.3537 24.8056C52.1106 24.4409 51.8064 24.1595 51.4417 23.962C50.1134 23.243 48.6053 23.817 47.7607 24.983V31.0019C48.08 31.3059 48.4372 31.5301 48.8324 31.6745C49.2275 31.8189 49.6911 31.8911 50.223 31.8911Z" fill="#848484"/>
<path d="M60.5064 33.5225C59.9289 33.5225 59.4312 33.4313 59.0132 33.2489C58.5952 33.0665 58.2569 32.8195 57.9986 32.5079C57.7402 32.1964 57.5501 31.8315 57.4286 31.4136C57.3071 30.9956 57.2462 30.5435 57.2462 30.057V23.8491C56.9423 23.8187 56.6533 23.796 56.3798 23.7808C56.1063 23.7657 55.8858 23.7579 55.7188 23.7579V22.4813C56.0379 22.4356 56.5244 22.3937 57.1779 22.3558C57.8313 22.318 58.454 22.3164 59.1988 22.3164L59.1841 24.0999V29.7835C59.1841 30.4521 59.3247 30.9728 59.6059 31.3452C59.8871 31.7176 60.3697 31.9037 61.0537 31.9037C61.692 31.9037 62.2582 31.7138 62.7522 31.3338C63.2461 30.9538 63.6755 30.5131 64.0402 30.0114V23.8491C63.7211 23.8187 63.4247 23.796 63.1511 23.7808C62.8775 23.7656 62.6571 23.7579 62.4899 23.7579V22.4813C62.6419 22.4661 62.8472 22.447 63.1055 22.4243C63.3639 22.4015 63.6526 22.3785 63.9719 22.3558C64.2908 22.3331 64.6292 22.3177 64.9864 22.3102C65.3435 22.3027 65.7046 22.2988 66.0693 22.2988L65.9554 24.0999V30.969C65.9554 31.1361 65.9592 31.2919 65.9667 31.4364C65.9743 31.5806 65.9858 31.7138 66.001 31.8354C66.3505 31.8658 66.6697 31.8923 66.9584 31.9152C67.2473 31.938 67.498 31.9493 67.7108 31.9493V33.2489C67.4068 33.2793 66.9509 33.3097 66.3429 33.3401C65.735 33.3705 65.0434 33.3857 64.2682 33.3857C64.2226 33.1729 64.1809 32.8879 64.1428 32.5307C64.1048 32.1735 64.0858 31.8581 64.0858 31.5846H64.0402C63.5995 32.1621 63.0941 32.6296 62.5241 32.9867C61.9541 33.3439 61.2815 33.5225 60.5064 33.5225Z" fill="#848484"/>
<path d="M81.6016 31.9875C81.7694 31.957 82.0215 31.9187 82.3574 31.8729C82.6933 31.8272 83.0293 31.8042 83.3654 31.8042L83.3794 20.4592L83.379 19.153C82.8096 19.3375 82.2581 19.5568 81.6329 19.8035L81.632 18.298C82.8628 17.7573 83.9692 17.335 85.2443 16.9072L85.2686 20.4593H85.2684L85.2895 31.8042C85.6102 31.8042 85.9082 31.8272 86.1828 31.8729C86.4578 31.9187 86.6792 31.957 86.8472 31.9875V33.2932H81.6016V31.9875ZM97.6044 33.6013C96.6012 33.6013 95.8602 33.3388 95.3815 32.8146C94.903 32.2905 94.6639 31.5493 94.6633 30.5919L94.659 23.9361C93.526 23.9361 92.4222 23.9246 91.291 23.9246L87.6947 27.4294L92.1158 31.8042C92.4211 31.8195 92.7151 31.8464 92.9976 31.8844C93.2801 31.9226 93.4825 31.957 93.6048 31.9875V33.2932H88.5194V31.9875C88.6262 31.957 88.7867 31.9302 89.0005 31.9073C89.2142 31.8846 89.451 31.8577 89.7106 31.8272L85.4957 27.6126L89.1958 23.8722L87.7634 23.8659V22.4585C90.0853 22.4585 92.3384 22.4314 94.659 22.4314L94.6633 19.2153L96.5717 18.5638L96.574 22.4314H99.3327V23.9361H96.574L96.5784 30.4095C96.579 31.4729 97.0344 32.0054 97.9464 32.0054C98.2807 32.0054 98.5809 31.9446 98.8469 31.823C99.1128 31.7013 99.2914 31.6026 99.3826 31.5266L99.9982 32.9173C99.831 33.054 99.546 33.2022 99.1432 33.3619C98.7405 33.5215 98.2276 33.6013 97.6044 33.6013Z" fill="#848484"/>
<path d="M68.8788 31.9863C69.0468 31.9558 69.3026 31.9176 69.6462 31.8717C69.9897 31.826 70.3296 31.803 70.6655 31.803L70.6602 23.7951C70.0738 23.7462 69.4619 23.7035 68.8735 23.7035L68.8516 22.613C69.5711 22.468 71.1384 22.3904 72.4979 22.3904L72.4675 24.1237H72.5133C72.9562 23.5434 73.3379 23.1096 73.9028 22.7663C76.2831 21.3191 79.1896 22.6861 79.1919 25.559L79.1972 31.803C79.5179 31.803 79.8503 31.826 80.1937 31.8717C80.5374 31.9175 80.7855 31.9558 80.9382 31.9863V33.292H75.5093V31.9863C75.662 31.9558 75.9064 31.9175 76.2423 31.8717C76.5782 31.826 76.9142 31.803 77.2502 31.803L77.2449 25.8567C77.2443 24.9669 76.9056 24.0838 75.962 23.8624C75.1477 23.6712 74.1124 24.005 73.5531 24.4917C73.2051 24.7946 72.9025 25.1806 72.5843 25.6048L72.5896 31.803C72.9256 31.803 73.2617 31.826 73.5976 31.8717C73.9336 31.9176 74.1855 31.9558 74.3535 31.9863V33.292H68.8788V31.9863Z" fill="#848484"/>
<path d="M94.5906 8.64612C95.81 8.64612 96.7985 7.65765 96.7985 6.4383C96.7985 5.21895 95.81 4.23047 94.5906 4.23047C93.3713 4.23047 92.3828 5.21895 92.3828 6.4383C92.3828 7.65765 93.3713 8.64612 94.5906 8.64612Z" fill="#848484"/>
<path d="M43.9453 15.6994C44.1132 15.6689 44.3653 15.6306 44.7012 15.5848C45.0371 15.5391 45.3731 15.5161 45.7091 15.5161L45.7231 4.17107L45.7227 2.86491C45.1534 3.04944 44.6019 3.26874 43.9766 3.51541L43.9757 2.00991C45.2065 1.46925 46.313 1.04691 47.5881 0.619141L47.6124 4.1712H47.6121L47.6333 15.5161C47.954 15.5161 48.2519 15.5391 48.5266 15.5848C48.8016 15.6306 49.023 15.6689 49.191 15.6994V17.0051H43.9453V15.6994ZM50.8632 15.6994C50.97 15.6689 51.1305 15.6421 51.3442 15.6192C51.558 15.5965 51.7947 15.5696 52.0543 15.5391L48.0319 11.2633L51.5602 7.54256L50.1061 7.53754L50.1072 6.17043H55.33L55.3287 7.54282L53.7211 7.54256L50.2309 11.0801L54.4595 15.5161C54.7649 15.5314 55.0589 15.5583 55.3414 15.5963C55.6239 15.6345 55.8262 15.6689 55.9485 15.6994V17.0051H50.8632V15.6994Z" fill="#848484"/>
<path fillRule="evenodd" clipRule="evenodd" d="M19.9343 0C30.6934 0 39.4154 8.72199 39.4154 19.4812C39.4154 30.2403 30.6934 38.9623 19.9343 38.9623C9.17511 38.9623 0.453125 30.2403 0.453125 19.4812C0.453125 8.72199 9.17511 0 19.9343 0ZM24.8809 17.7253C23.654 17.724 22.4268 17.7123 21.1999 17.7118L17.1588 21.6497L22.1861 26.6245C22.5137 26.643 22.8406 26.6732 23.1658 26.7171C23.4098 26.75 23.6733 26.7847 23.9123 26.8442L24.0859 26.8876V28.8476H17.5832V26.8937L17.7493 26.8463C17.9417 26.7914 18.1611 26.7647 18.3596 26.7435C18.4835 26.7303 18.6072 26.7167 18.7308 26.7028L13.8949 21.8673L18.0697 17.647L16.6845 17.6409V15.5108C19.4169 15.5108 22.1488 15.4804 24.8811 15.4789L24.8864 11.721L27.6125 10.7904L27.6151 15.4787H30.8944V17.7254H27.6154L27.6206 25.1907C27.6212 26.18 27.9479 26.8588 29.0175 26.8588C29.3536 26.8588 29.6856 26.803 29.9926 26.6626C30.1623 26.585 30.4347 26.4621 30.5782 26.3427L30.8113 26.1483L31.7365 28.2387L31.6014 28.3492C31.3101 28.5873 30.8724 28.7755 30.5245 28.9133C29.9311 29.1484 29.2446 29.2139 28.6111 29.2139C27.5866 29.2139 26.518 28.9909 25.7997 28.2043C25.1024 27.4405 24.8868 26.4145 24.8861 25.4077L24.8809 17.7253ZM11.1463 26.6212L11.1625 12.1276C10.5684 12.332 9.98398 12.5654 9.39997 12.7958L9.08708 12.9193L9.08549 10.6438L9.22257 10.5835C10.6398 9.961 12.0683 9.41506 13.5358 8.92292L13.8356 8.82232L13.891 26.6216C14.1826 26.63 14.4742 26.6552 14.7618 26.7032C15.0263 26.7472 15.2909 26.792 15.5547 26.8399L15.7429 26.874V28.8462H9.04954V26.874L9.23777 26.8399C9.53811 26.7853 9.84373 26.7434 10.1462 26.7021C10.4778 26.6569 10.8118 26.6298 11.1463 26.6212Z" fill="#848484"/>
</svg>
