<?xml version="1.0" encoding="UTF-8"?>
<!DOCTYPE svg PUBLIC "-//W3C//DTD SVG 1.1//EN" "http://www.w3.org/Graphics/SVG/1.1/DTD/svg11.dtd">
<!-- Creator: CorelDRAW 2020 (64-Bit) -->
<svg xmlns="http://www.w3.org/2000/svg" xml:space="preserve" width="21.59cm" height="27.94cm" version="1.1" shape-rendering="geometricPrecision" text-rendering="geometricPrecision" image-rendering="optimizeQuality" fill-rule="evenodd" clip-rule="evenodd"
viewBox="0 0 21590 27940"
 xmlns:xlink="http://www.w3.org/1999/xlink"
 xmlns:xodm="http://www.corel.com/coreldraw/odm/2003">
 <g id="Layer_x0020_1">
  <metadata id="CorelCorpID_0Corel-Layer"/>
  <path fill="#DDE1FF" d="M4765.76 12194.81c988.54,0 1789.9,801.36 1789.9,1789.9 0,988.54 -801.36,1789.9 -1789.9,1789.9 -988.54,0 -1789.9,-801.36 -1789.9,-1789.9 0,-988.54 801.36,-1789.9 1789.9,-1789.9zm-890.36 1839.96l7.2 -10.8 467.78 -730.46c7.2,-10.8 21.59,-10.8 28.79,3.6 79.16,176.32 143.93,392.22 115.15,528.96 -14.39,57.57 -50.38,133.14 -93.56,201.51 -3.6,10.8 -10.8,21.59 -17.99,28.79 -3.6,3.6 -7.2,7.2 -14.39,7.2l-482.18 -0.01c-10.8,-3.6 -17.99,-18 -10.8,-28.79zm2083.44 136.74l0 115.15c0,7.2 -3.6,10.8 -10.8,14.39 -35.98,14.39 -161.93,71.97 -212.3,143.93 -133.14,183.52 -233.89,446.19 -456.99,446.19l-939.16 0c-331.05,0 -600.92,-269.88 -600.92,-604.52l0 -10.8c0,-7.2 7.2,-14.39 14.39,-14.39l528.96 0c10.8,0 17.99,10.8 17.99,17.99 -3.6,32.39 3.6,68.37 17.99,100.75 32.39,64.77 97.16,100.75 165.52,100.75l259.08 0.01 0 -201.51 -255.48 0.01c-33.93,0 -7.97,-30.83 -3.59,-39.58 120.35,-171.91 208.06,-322.63 203.89,-540.43 -3.59,-187.44 -106.73,-416.77 -189.49,-582.29l-32.39 -57.57c-3.6,-7.2 3.6,-17.99 10.8,-14.39 81.28,22.17 180.62,44.65 262.67,72l-0.01 -118.75c0,-135.61 201.51,-138.74 201.51,-3.59l0 172.72c312.53,104.24 546.73,548.11 368.64,889.3 -64.9,124.37 -154.37,229.82 -213.92,229.82l-158.32 -0.05 0 201.51 197.91 0c43.18,0 86.36,-14.39 118.75,-43.18 10.8,-10.8 61.17,-53.98 122.34,-118.75 3.6,-3.6 3.6,-3.6 7.2,-3.6l546.95 -158.33c21.58,-10.79 28.78,-3.59 28.78,7.21z"/>
  <path fill="#DDE1FF" fill-rule="nonzero" d="M8247.38 14639.29c-161.93,0 -313.06,-35.98 -449.79,-107.95 -133.14,-71.97 -241.09,-172.72 -323.85,-305.86 -79.16,-133.14 -118.75,-280.67 -118.75,-442.6 0,-161.93 39.58,-309.46 118.75,-439 79.16,-129.54 187.11,-230.29 323.85,-305.86 136.74,-71.97 284.27,-107.95 449.79,-107.95 161.93,0 313.06,35.98 446.19,107.95 136.74,71.97 244.69,172.72 320.25,305.86 79.16,129.54 118.75,277.07 118.75,439 0,161.93 -39.58,309.46 -118.75,442.6 -79.16,129.54 -187.11,230.29 -320.25,305.86 -133.14,71.97 -284.27,107.95 -446.19,107.95zm0 -370.63c136.74,0 248.29,-43.18 331.05,-133.14 82.76,-89.96 125.94,-205.11 125.94,-352.64 0,-147.53 -43.18,-266.28 -125.94,-352.64 -82.76,-89.96 -190.71,-133.14 -331.05,-133.14 -140.34,0 -251.88,43.18 -334.65,129.54 -82.76,86.36 -122.34,205.11 -122.34,352.64 0,147.53 39.58,266.28 122.34,352.64 82.77,93.56 194.32,136.74 334.65,136.74z"/>
  <path fill="#DDE1FF" fill-rule="nonzero" d="M9787.47 13484.22c39.58,-61.17 97.16,-111.55 169.12,-151.13 71.97,-39.58 158.33,-57.57 255.48,-57.57 115.15,0 215.9,28.79 309.46,82.76 93.56,53.98 165.52,133.14 215.9,237.49 53.98,104.35 82.76,223.1 82.76,359.83 0,136.73 -28.79,255.48 -82.76,359.83 -53.98,104.35 -125.94,183.52 -215.9,241.09 -93.56,53.98 -194.31,82.76 -309.46,82.76 -93.56,0 -179.92,-17.99 -255.48,-57.57 -71.97,-39.58 -129.54,-86.36 -169.12,-147.53l0 579.33 -421.01 0.01 0 -1720 421.01 -0.01 0 190.71zm600.92 471.39c0,-100.75 -28.79,-179.92 -89.96,-237.49 -57.57,-57.57 -129.54,-86.36 -215.9,-86.36 -82.76,0 -154.73,28.79 -215.9,86.36 -57.57,57.57 -86.36,140.34 -86.36,241.09 0,100.75 28.79,179.92 86.36,241.09 57.57,57.57 129.54,86.36 215.9,86.36 82.76,0 154.73,-28.79 215.9,-86.36 61.17,-61.18 89.96,-140.34 89.96,-244.69z"/>
  <path fill="#DDE1FF" fill-rule="nonzero" d="M12335.09 13937.61c0,39.58 -3.6,79.16 -7.2,118.75l-953.56 0c7.2,82.76 32.39,147.53 82.76,190.71 50.38,43.18 107.95,64.77 179.92,64.77 104.35,0 179.92,-43.18 219.5,-129.54l449.79 0c-21.59,86.36 -64.77,165.52 -125.94,233.89 -57.57,68.37 -133.14,125.94 -223.1,165.52 -89.96,39.58 -190.71,61.17 -302.26,61.17 -133.14,0 -255.48,-28.79 -359.83,-82.76 -104.35,-53.97 -187.11,-133.14 -244.69,-237.49 -57.57,-104.35 -89.96,-223.1 -89.96,-359.83 0,-136.74 28.79,-259.08 86.36,-359.83 57.57,-104.35 140.34,-183.52 244.69,-237.49 104.35,-53.97 226.7,-82.76 363.43,-82.76 133.14,0 251.88,25.19 356.24,79.16 104.35,53.98 183.52,129.54 241.09,230.29 53.97,97.16 82.76,212.31 82.76,345.44zm-431.8 -107.95c0,-68.37 -25.19,-125.94 -75.57,-165.52 -50.38,-39.58 -111.55,-61.17 -183.52,-61.17 -71.97,0 -129.54,21.59 -179.92,61.17 -46.78,39.58 -75.57,97.16 -89.96,169.12l528.97 0 0 -3.6z"/>
  <path fill="#DDE1FF" fill-rule="nonzero" d="M13396.6 13282.72c161.93,0 287.87,50.38 385.02,151.13 97.16,100.75 143.93,237.49 143.93,413.81l0 773.64 -417.41 0 0 -719.67c0,-89.96 -25.19,-158.33 -71.97,-205.11 -46.78,-50.38 -111.55,-71.97 -190.71,-71.97 -79.16,0 -143.93,25.19 -190.71,71.97 -46.78,50.38 -71.97,118.75 -71.97,205.11l0 719.67 -424.6 0 0 -1327.79 421.01 0 0 176.32c43.18,-57.57 100.75,-104.35 172.72,-136.74 71.97,-32.38 154.73,-50.37 244.69,-50.37z"/>
  <path fill="#DDE1FF" fill-rule="nonzero" d="M14843.13 14639.29c-125.94,0 -241.09,-21.59 -341.84,-61.17 -100.75,-39.58 -179.92,-97.16 -241.09,-176.32 -57.57,-79.16 -89.96,-172.72 -93.56,-280.67l449.79 0c7.2,61.17 28.79,107.95 68.37,143.93 35.98,32.39 86.36,46.78 147.53,46.78 61.17,0 111.55,-14.39 147.53,-39.58 35.98,-28.79 53.98,-68.37 53.98,-115.15 0,-39.58 -14.39,-75.57 -43.18,-100.75 -28.79,-25.19 -64.77,-50.38 -104.35,-64.77 -39.58,-17.99 -100.75,-35.98 -176.32,-61.17 -111.55,-32.39 -201.51,-64.77 -273.47,-100.75 -71.97,-32.39 -133.14,-82.76 -183.52,-147.53 -50.38,-64.77 -75.57,-151.13 -75.57,-255.48 0,-154.73 57.57,-277.07 176.32,-363.43 115.15,-89.96 269.88,-133.14 456.99,-133.14 190.71,0 345.44,43.18 460.59,133.14 115.15,86.36 179.92,208.7 187.11,367.03l-456.99 -0.01c-3.6,-53.98 -25.19,-97.16 -61.17,-125.94 -35.98,-32.39 -86.36,-46.78 -143.93,-46.78 -50.38,0 -93.56,14.39 -122.34,39.58 -32.39,25.19 -46.78,61.17 -46.78,111.55 0,53.98 25.19,97.16 79.16,125.94 53.98,28.79 133.14,61.17 244.69,97.16 111.55,35.98 201.51,71.97 269.88,104.35 71.97,32.39 133.14,82.76 183.52,143.93 50.38,64.77 75.57,143.93 75.57,244.69 0,93.56 -25.19,179.92 -75.57,259.08 -50.38,79.16 -122.34,140.34 -215.9,187.11 -100.77,46.78 -212.32,68.37 -345.45,68.37z"/>
  <path fill="#DDE1FF" fill-rule="nonzero" d="M17030.91 13937.61c0,39.58 -3.6,79.16 -7.2,118.75l-953.55 0c7.2,82.76 32.39,147.53 82.76,190.71 50.38,43.18 107.95,64.77 179.92,64.77 104.35,0 179.92,-43.18 219.5,-129.54l449.79 0c-21.59,86.36 -64.77,165.52 -125.94,233.89 -57.57,68.37 -133.14,125.94 -223.1,165.52 -89.96,39.58 -190.71,61.17 -302.26,61.17 -133.14,0 -255.48,-28.79 -359.83,-82.76 -104.35,-53.98 -187.11,-133.14 -244.69,-237.49 -57.57,-104.35 -89.96,-223.1 -89.96,-359.83 0,-136.74 28.79,-259.08 86.36,-359.83 57.57,-104.35 140.34,-183.52 244.69,-237.49 104.35,-53.97 226.7,-82.76 363.43,-82.76 133.14,0 251.88,25.19 356.24,79.16 104.35,53.98 183.52,129.54 241.09,230.29 53.97,97.16 82.75,212.31 82.75,345.44zm-431.8 -107.95c0,-68.37 -25.19,-125.94 -75.57,-165.52 -50.38,-39.58 -111.55,-61.17 -183.52,-61.17 -71.97,0 -129.54,21.59 -179.92,61.17 -46.78,39.58 -75.57,97.16 -89.96,169.12l528.97 0 0 -3.6z"/>
  <path fill="#DDE1FF" fill-rule="nonzero" d="M17171.25 13955.61c0,-136.74 25.19,-255.48 79.16,-359.83 53.98,-104.35 125.94,-183.52 219.5,-237.49 93.56,-53.97 194.31,-82.76 309.46,-82.76 97.16,0 179.92,17.99 255.48,57.57 75.57,39.58 129.54,86.36 169.12,151.13l0 -187.11 421 -0.01 0 1327.79 -421 0 0 -187.11c-39.58,61.17 -97.16,111.55 -172.72,151.13 -71.97,39.58 -158.33,57.57 -255.48,57.57 -111.55,0 -212.3,-28.79 -305.86,-82.76 -93.56,-57.57 -165.52,-136.74 -219.5,-241.09 -53.97,-107.95 -79.16,-230.3 -79.16,-367.03zm1029.12 3.59c0,-100.75 -28.79,-179.92 -89.96,-241.09 -57.57,-57.57 -129.54,-86.36 -212.3,-86.36 -82.76,0 -154.73,28.79 -215.9,86.36 -57.57,57.57 -86.36,136.74 -86.36,237.49 0,100.75 28.79,183.52 86.36,241.09 57.57,57.57 129.54,86.36 215.9,86.36 82.76,0 154.73,-28.79 212.3,-86.36 61.17,-53.97 89.96,-136.73 89.96,-237.49z"/>
 </g>
</svg>
