<svg width="168" height="39" viewBox="0 0 168 39" fill="none" xmlns="http://www.w3.org/2000/svg">
<path opacity="0.9" fillRule="evenodd" clipRule="evenodd" d="M39.2351 15.2349L36.4452 9.54247H15.9974L15.9975 24.6275H26.047V26.2429H7.74749C3.7767 26.2429 0.9845 24.2305 0.984437 19.6583L0.984375 14.4985C0.984312 9.92604 3.77821 7.91429 7.74743 7.91391L9.56258 7.91378V10.5686L8.53501 10.9706C6.72484 11.6788 6.0598 12.8049 6.0598 14.8399L6.05986 19.3169C6.05986 21.3519 6.72541 22.4841 8.53508 23.1862L10.922 24.1122V6.58484C10.922 2.01106 13.7144 0.000635827 17.685 0.000319035L20.515 0L20.5097 1.5104L18.4725 2.71966C16.7996 3.71274 15.9974 4.55395 15.9974 6.58896V7.9262H27.3716V6.58896C27.3716 4.55395 26.5694 3.71274 24.8964 2.71966L22.8593 1.5104L22.8539 0L25.684 0.000319035C29.6546 0.000635827 32.447 2.01094 32.447 6.58484V7.9262H42.0527V9.49115L39.2351 15.2349ZM10.922 27.5895V27.662C10.922 32.2358 13.7142 34.2462 17.685 34.2465L20.5151 34.2468L20.5097 32.7364L18.4726 31.5272C16.7998 30.5342 15.9975 29.6929 15.9975 27.6578V27.5895H10.922ZM32.4469 26.2438H42.0527V24.7045L39.2351 18.9608L36.4578 24.6275H32.4469L32.447 10.8442H27.3716V27.6578C27.3716 29.6929 26.5692 30.5342 24.8963 31.5272L22.8592 32.7364L22.8539 34.2468L25.6839 34.2465C27.2108 34.2464 28.5631 33.9486 29.6498 33.3226L31.5481 38.9623L37.5607 32.9064L31.8116 30.9434C32.2229 30.0468 32.4469 28.9573 32.4469 27.662V26.2438Z" fill="#848484"/>
<path opacity="0.9" fillRule="evenodd" clipRule="evenodd" d="M77.1079 28.5061C76.093 29.5665 74.9243 30.0789 73.6019 30.0789C72.5255 30.0789 71.6027 29.687 70.5572 28.5966C75.1395 27.1494 78.2458 23.2299 78.2458 18.2854C78.2458 11.9839 73.2329 7.37109 66.4667 7.37109C59.67 7.37109 54.6875 12.0141 54.6875 18.2854C54.6875 24.0139 58.8395 28.3855 64.7444 29.1142C68.066 32.5514 70.3111 33.697 73.5097 33.697C75.8777 33.697 77.9075 32.7924 79.3223 31.1042L77.1079 28.5061ZM59.7313 18.2854C59.7313 14.2754 62.6224 11.5317 66.4667 11.5317C70.3111 11.5317 73.202 14.2754 73.202 18.2854C73.202 22.2953 70.3111 25.0389 66.4667 25.0389C62.6224 25.0389 59.7313 22.2953 59.7313 18.2854ZM92.5661 29.2046C96.3182 29.2046 99.4246 27.8731 101.454 25.431L98.2558 22.5366C96.8104 24.1948 94.9957 25.0389 92.8429 25.0389C88.8141 25.0389 85.9538 22.2651 85.9538 18.2854C85.9538 14.3055 88.8141 11.5317 92.8429 11.5317C94.9957 11.5317 96.8104 12.3759 98.2558 14.004L101.454 11.1097C99.4246 8.69764 96.3182 7.37109 92.5969 7.37109C85.8923 7.37109 80.91 11.9236 80.91 18.2854C80.91 24.6471 85.8923 29.2046 92.5661 29.2046ZM104.807 28.8379H120.584V24.8581H109.789V7.73278H104.807V28.8379ZM132.947 29.2046C139.068 29.2046 142.697 25.7625 142.697 19.5516V7.73278H137.776V19.3707C137.776 23.3806 136.023 25.0389 132.978 25.0389C129.964 25.0389 128.18 23.3806 128.18 19.3707V7.73278H123.198V19.5516C123.198 25.7625 126.827 29.2046 132.947 29.2046ZM163.426 17.8633C165.179 16.9587 166.286 15.3307 166.286 13.2203C166.286 9.93385 163.518 7.73278 158.136 7.73278H147.618V28.8379H158.751C164.41 28.8379 167.362 26.7273 167.362 23.0792C167.362 20.426 165.825 18.617 163.426 17.8633ZM157.521 11.4111C159.95 11.4111 161.273 12.2252 161.273 13.8835C161.273 15.5417 159.95 16.3859 157.521 16.3859H152.569V11.4111H157.521ZM158.382 25.1596H152.569V19.9435H158.382C160.965 19.9435 162.349 20.7879 162.349 22.5667C162.349 24.3757 160.965 25.1596 158.382 25.1596Z" fill="#848484"/>
</svg>
