<svg width="142" height="39" viewBox="0 0 142 39" fill="none" xmlns="http://www.w3.org/2000/svg">
<path fillRule="evenodd" clipRule="evenodd" d="M52.9584 12.8462H57.7551V15.0477C59.1228 12.7915 61.1004 12.8572 64.0128 12.8462V17.0863C62.5621 17.0863 61.1276 17.0757 59.6857 17.0757C58.6411 17.0757 58.2004 17.4895 57.7551 18.0971V28.2645H52.9584V12.8462ZM1.39791 0H37.8329C38.5116 0 39.0668 0.55532 39.0668 1.23401V37.7286C39.0668 38.4073 38.5116 38.9623 37.8329 38.9623H1.39791C0.71922 38.9623 0.164062 38.4073 0.164062 37.7286V1.23401C0.164062 0.55532 0.71922 0 1.39791 0ZM72.7936 12.4166C77.4299 12.4166 81.1885 16.0351 81.1885 20.4991C81.1885 24.9629 77.4299 28.5817 72.7936 28.5817C68.1574 28.5817 64.3988 24.9629 64.3988 20.4991C64.3988 16.0351 68.1574 12.4166 72.7936 12.4166ZM82.3033 12.8334H87.0768V22.5795L87.0794 22.5804L87.0886 23.0275C87.1047 24.2414 88.0296 24.203 88.9626 24.203L92.1096 24.2045C92.9056 24.1939 93.2488 23.7941 93.2554 23.1008L93.2634 22.2923V12.8334H98.0369V21.3329C98.0324 23.3583 97.6725 25.3325 95.573 26.8743C92.3941 29.2096 87.4564 29.1117 84.397 26.5114C82.6932 25.0634 82.3033 23.471 82.3033 21.4893V12.8334ZM70.6946 16.7151H74.8927C75.779 16.7151 76.504 17.44 76.504 18.3263V22.6717C76.504 23.558 75.779 24.2833 74.8927 24.2833H70.6946C69.8083 24.2833 69.0834 23.558 69.0834 22.6717V18.3263C69.0834 17.44 69.8083 16.7151 70.6946 16.7151ZM98.852 12.8337L105.697 28.2571L110.647 28.2583L117.453 12.8356L112.139 12.8322L108.674 22.8777C108.527 23.3052 107.875 23.3351 107.715 22.87L104.276 12.833L98.852 12.8337ZM118.291 12.8532H123.074V28.2756H118.291V12.8532ZM119.618 6.31256H121.747C122.477 6.31256 123.075 6.90959 123.075 7.63981V9.7353C123.075 10.4655 122.477 11.0627 121.747 11.0627H119.618C118.888 11.0627 118.29 10.4655 118.29 9.7353V7.63981C118.29 6.90959 118.888 6.31256 119.618 6.31256ZM19.6153 5.40115C27.766 5.40115 34.3733 11.705 34.3733 19.4812C34.3733 27.2573 27.766 33.5612 19.6153 33.5612C11.4647 33.5612 4.85721 27.2573 4.85721 19.4812C4.85721 11.705 11.4647 5.40115 19.6153 5.40115ZM16.287 13.03H22.9437C24.5583 13.03 25.8791 14.351 25.8791 15.9654V22.9969C25.8791 24.6116 24.5583 25.9323 22.9437 25.9323H16.287C14.6726 25.9323 13.3516 24.6116 13.3516 22.9969V15.9654C13.3516 14.351 14.6726 13.03 16.287 13.03ZM136.743 12.8532H141.325V28.2756H136.743V25.9257C136.126 26.8297 135.215 27.5646 134.423 27.9431C133.608 28.3319 132.558 28.6416 131.293 28.5976C126.088 28.4167 123.25 21.2029 125.695 16.4445C126.866 14.1659 128.722 12.8272 131.64 12.6969C133.933 12.5945 135.603 13.7881 136.743 15.5328V12.8532ZM133.049 16.6829C135.079 16.6829 136.725 18.4326 136.725 20.5909C136.725 22.7494 135.079 24.4991 133.049 24.4991C131.019 24.4991 129.373 22.7494 129.373 20.5909C129.373 18.4326 131.019 16.6829 133.049 16.6829Z" fill="#848484"/>
</svg>
