<?xml version="1.0" encoding="UTF-8"?>
<!DOCTYPE svg PUBLIC "-//W3C//DTD SVG 1.1//EN" "http://www.w3.org/Graphics/SVG/1.1/DTD/svg11.dtd">
<!-- Creator: CorelDRAW 2020 (64-Bit) -->
<svg xmlns="http://www.w3.org/2000/svg" xml:space="preserve" width="21.59cm" height="27.94cm" version="1.1" shape-rendering="geometricPrecision" text-rendering="geometricPrecision" image-rendering="optimizeQuality" fill-rule="evenodd" clip-rule="evenodd"
viewBox="0 0 21590 27940"
 xmlns:xlink="http://www.w3.org/1999/xlink"
 xmlns:xodm="http://www.corel.com/coreldraw/odm/2003">
 <g id="Layer_x0020_1">
  <metadata id="CorelCorpID_0Corel-Layer"/>
  <path fill="black" fill-rule="nonzero" d="M17244.97 12685.94c62.1,0 125.83,0 187.93,0 0,-171.59 0,-343.17 0,-514.76 0,-17.98 1.63,-34.32 6.54,-50.66 4.9,-14.71 11.44,-29.41 21.25,-45.76 62.09,-96.42 124.19,-194.46 187.93,-290.88 88.24,-138.9 178.12,-276.17 268,-415.08 9.8,-14.7 19.61,-29.41 29.41,-45.75 -80.07,0 -160.15,0 -240.22,0 -3.27,4.9 -6.54,9.8 -9.81,16.34 -119.29,184.65 -236.95,367.68 -356.24,552.34 -119.3,-184.65 -236.96,-369.32 -356.25,-552.34 -3.27,-4.9 -6.54,-9.81 -9.8,-16.34 -80.08,0 -160.15,0 -238.59,0 9.8,14.7 19.61,29.41 29.41,45.75 57.2,88.25 114.39,176.5 169.95,264.74 57.2,88.24 114.39,176.49 169.95,264.73 19.62,31.05 39.22,60.47 58.84,91.52 19.61,31.05 39.21,60.46 58.83,91.51 1.63,3.27 3.26,4.9 4.9,8.18 1.63,3.26 3.26,6.54 4.9,8.17 3.26,4.9 4.9,11.44 6.54,16.34 1.63,4.9 3.26,11.44 4.9,17.97 1.63,6.54 1.63,13.08 3.26,19.61 0,6.54 1.64,13.08 1.64,19.62 -3.27,171.58 -3.27,343.16 -3.27,514.75zm-692.88 -1.63l-218.98 0 -8.17 -17.98c-53.93,-125.83 -106.23,-251.66 -160.15,-377.49 -11.44,-27.78 -24.51,-55.56 -35.95,-84.97 -27.78,-65.37 -91.52,-107.86 -161.78,-107.86l-457.57 0 0 586.66 -187.93 0 0 -1361.25 732.11 0c34.32,0 67,0 101.31,4.9 17.98,1.63 34.32,4.9 52.3,8.17 17.97,3.27 34.31,9.81 52.29,14.71 17.97,6.54 35.95,14.7 52.29,24.51 11.44,6.54 21.24,13.07 32.68,19.61 14.71,9.81 27.78,21.25 40.86,34.32 26.14,24.51 47.39,52.29 65.36,83.34 17.97,32.69 32.68,67 42.49,102.96 9.81,34.31 14.71,70.27 14.71,106.22 1.63,35.95 -1.64,71.9 -9.81,106.22 -3.27,17.97 -8.17,34.32 -13.07,50.66 -3.27,11.44 -8.17,22.88 -13.07,34.32 -6.54,16.34 -16.34,32.68 -26.15,49.02 -9.81,14.71 -19.61,29.41 -31.05,42.49 -6.54,6.54 -11.44,13.07 -17.98,19.61 -6.53,6.54 -13.07,11.44 -17.97,16.34 -11.44,9.81 -24.51,17.98 -39.22,26.15 -13.07,6.54 -26.14,13.07 -39.22,19.61 44.13,102.96 86.61,205.91 130.74,307.22l120.93 292.51zm-1042.6 -787.67l545.81 0c27.78,0 57.2,0 84.98,-1.63 109.49,0 153.61,-68.64 160.14,-158.52 9.81,-106.22 -26.14,-199.36 -148.7,-207.53 -26.15,-3.27 -53.93,-3.27 -80.08,-3.27l-563.79 0 0 370.95 1.64 0zm-583.4 787.67c67,0 132.37,0 199.37,0 -191.2,-454.3 -382.4,-906.96 -573.59,-1361.26 -39.22,0 -80.08,0 -119.3,0 -21.24,0 -42.49,0 -62.1,1.63 -19.61,1.64 -39.21,3.27 -58.83,8.18 -19.61,4.9 -39.21,9.8 -57.19,19.61 -19.62,9.8 -37.59,21.24 -55.57,34.32 -16.34,13.07 -32.68,29.41 -45.75,45.75 -13.08,16.34 -24.52,34.32 -35.96,52.3 -9.8,17.97 -19.61,35.95 -27.78,53.92 -8.17,16.34 -14.7,34.32 -22.87,52.29 -155.25,366.05 -308.86,730.47 -464.11,1096.53 73.54,0 145.45,0 218.98,0 3.27,-6.54 4.9,-11.44 8.17,-17.98 70.27,-166.68 140.54,-331.73 210.81,-498.41 70.27,-166.69 140.54,-335.01 212.44,-501.69 1.64,-3.27 3.27,-6.54 4.9,-11.44 4.9,-9.81 8.18,-19.61 13.08,-29.41 1.63,-4.9 4.9,-9.81 6.54,-14.71 1.63,-4.9 4.9,-8.17 6.53,-13.07 3.27,-4.9 4.9,-9.81 8.18,-14.71 1.63,-3.26 4.9,-8.17 6.54,-11.44 3.26,-6.54 8.17,-11.44 13.07,-16.34l0 0 0 0c3.27,-4.9 8.17,-9.8 13.07,-13.07 0,0 0,0 1.64,-1.63 0,0 0,0 1.63,-1.64 0,0 1.63,-1.63 3.27,-3.26 3.26,-1.64 4.9,-3.27 4.9,-3.27 0,0 0,0 1.63,0 0,0 0,0 1.63,0 3.27,-1.63 4.9,-1.63 8.18,-3.27 3.26,-1.63 4.9,-1.63 8.17,-1.63 0,0 1.63,0 1.63,0 0,0 1.63,0 1.63,0 1.64,0 4.91,-1.63 9.81,-1.63 0,0 0,0 0,0 0,0 0,0 0,0 4.9,0 9.81,-1.64 14.71,-1.64 6.54,0 14.7,0 21.24,0 4.9,0 8.17,0 13.08,0 86.61,204.27 173.22,408.54 258.19,614.45 75.17,176.49 148.71,352.98 223.88,529.47 3.27,6.54 4.9,11.44 8.17,17.97 4.91,-4.92 11.45,-4.92 17.98,-4.92zm-1946.28 0l187.92 0 0 -1160.26 472.28 0 0 -201 -1134.11 0 0 201 472.27 0 0 1160.26 1.64 0zm-1189.68 -1361.26c-47.39,0 -94.78,3.27 -142.17,9.81 -42.49,6.54 -84.98,16.34 -125.83,32.68 -37.59,13.07 -73.54,31.05 -107.86,53.93 -32.68,21.24 -62.09,47.39 -88.24,75.17 -26.14,29.41 -50.66,62.09 -68.64,96.41 -21.24,37.59 -35.95,76.81 -49.02,116.03 -13.07,44.12 -22.88,89.88 -29.41,135.63 -6.54,50.66 -9.81,102.96 -9.81,155.25 0,1.63 0,4.9 0,8.17 0,49.03 3.27,102.96 9.81,153.62 6.54,47.39 14.7,93.15 29.41,137.26 13.07,40.86 27.78,80.08 49.02,117.67 19.62,34.31 42.5,67 68.64,96.41 26.15,29.41 55.56,53.93 88.24,75.17 34.32,22.88 70.27,39.22 107.86,53.93 40.85,14.7 83.34,24.51 125.83,32.68 22.88,3.27 47.39,6.54 71.9,8.17 11.44,1.64 24.51,1.64 35.95,1.64 11.44,0 21.25,0 29.42,0 53.92,0 93.14,0 134,0 40.85,0 84.97,0 127.46,0 86.61,0 169.96,0 256.57,0 0,-9.81 0,-19.61 0,-34.32 0,-34.32 0,-98.05 0,-132.37 0,-14.7 0,-24.51 0,-34.32 -84.98,0 -171.59,0 -256.57,0 -84.97,0 -165.05,0 -264.73,0 -6.54,0 -13.07,0 -21.25,0 -8.17,0 -19.61,0 -29.41,-1.63 -17.97,-1.63 -35.95,-3.27 -53.92,-6.54 -29.42,-4.9 -58.83,-11.44 -88.25,-22.88 -11.44,-4.9 -24.51,-9.8 -35.95,-14.7 -11.44,-6.54 -21.24,-11.44 -31.05,-17.98l0 0 0 0c-8.17,-4.9 -17.97,-11.44 -26.15,-19.61 -8.17,-8.17 -16.34,-14.71 -24.51,-22.88 -6.54,-8.17 -14.71,-17.97 -21.24,-26.14l0 0 0 0c-6.54,-9.81 -13.08,-21.25 -19.62,-31.05 -13.07,-22.88 -22.87,-49.03 -32.68,-80.08 -4.9,-16.34 -8.17,-32.69 -13.07,-49.03 -3.27,-17.97 -6.54,-37.58 -9.81,-55.56 -3.27,-19.61 -3.27,-40.85 -4.9,-62.1 -1.63,-22.88 -1.63,-47.39 -1.63,-67 0,-3.27 0,-6.54 0,-8.17 0,-21.25 0,-45.76 1.63,-65.37 1.63,-17.97 3.27,-37.58 4.9,-62.09 4.9,-34.32 11.44,-70.27 22.88,-104.59 8.17,-27.78 19.61,-53.93 32.68,-78.44 6.54,-11.44 13.08,-21.25 19.62,-31.05 6.53,-9.81 13.07,-17.97 21.24,-26.15l0 0 0 0c6.54,-8.17 14.71,-14.7 22.88,-22.88 0,0 0,0 0,0 0,0 0,0 0,0 6.54,-4.9 13.07,-9.8 19.61,-14.7 3.27,-3.27 6.54,-4.9 11.44,-6.54 3.27,-1.63 6.54,-4.9 11.44,-6.54 3.27,-1.63 8.17,-4.9 11.44,-6.54 4.9,-1.63 8.17,-4.9 13.07,-6.54 8.18,-3.26 17.98,-8.17 27.78,-11.44l0 0 0 0c13.08,-4.9 26.15,-9.8 40.85,-13.07 14.71,-3.27 31.06,-6.54 47.4,-9.81 17.97,-3.26 34.31,-4.9 53.92,-6.53 9.81,0 21.25,-1.64 29.41,-1.64 8.18,0 16.34,0 22.88,0 98.05,0 179.76,0 263.1,0 84.98,0 171.59,0 256.57,0 0,-67 0,-134 0,-201 -173.22,1.65 -343.18,1.65 -513.13,1.65zm-1929.94 1361.26l1098.16 0 0 -201.01 -897.16 0.01 0 -385.67 738.64 0 0 -187.93 -738.64 0 0 -385.66 897.16 0 0 -201 -1098.16 0 0 1361.26zm-1125.94 0c32.68,0 67,0 99.68,0 26.15,0 52.29,0 76.81,-3.27 13.07,-1.63 24.51,-3.27 37.58,-4.9 11.44,-1.63 24.51,-4.9 35.95,-9.81 24.51,-8.17 49.03,-19.61 70.27,-34.32 11.44,-8.17 21.25,-16.34 32.69,-26.14 9.8,-9.81 19.61,-19.61 27.78,-29.41 8.17,-9.81 16.34,-21.25 22.88,-31.06 6.53,-11.43 13.07,-21.24 19.61,-32.68 6.54,-11.44 11.44,-21.25 16.34,-32.68 4.9,-11.44 9.8,-22.88 14.7,-32.69 14.71,-35.95 29.42,-70.27 44.13,-106.22 14.7,-35.95 29.41,-70.27 44.12,-106.22 29.41,-70.27 60.47,-142.18 89.88,-212.45 22.88,-55.56 45.76,-109.48 70.27,-165.05 22.88,-55.56 45.76,-109.49 70.27,-165.05 22.88,-55.56 45.76,-109.49 70.27,-165.05 22.88,-55.57 45.76,-109.49 70.27,-165.06 6.54,-13.07 11.44,-27.77 17.97,-40.85 -73.54,0 -145.44,0 -218.98,0 -3.26,6.54 -4.9,11.44 -8.17,17.98 -70.27,165.05 -140.54,331.73 -210.8,496.78 -71.91,171.59 -145.44,343.17 -217.35,516.4 -4.9,9.8 -8.17,21.24 -13.07,31.05 -3.27,8.17 -8.17,16.34 -13.07,24.51 -3.27,6.54 -8.18,14.71 -11.44,21.25 -3.27,4.9 -6.54,9.8 -9.81,14.7 -4.9,6.54 -11.44,13.08 -17.97,17.98 -3.27,1.63 -4.9,3.26 -4.9,3.26 0,0 0,0 0,0 0,0 0,0 0,0 -1.64,0 -3.27,1.64 -4.9,1.64 -1.64,1.63 -3.27,1.63 -6.54,3.26 -1.63,1.64 -3.27,1.64 -3.27,1.64l0 0 0 0c-3.27,1.63 -6.54,1.63 -9.8,3.27 -4.9,1.63 -8.18,1.63 -13.08,1.63 -4.9,0 -11.44,1.63 -16.34,1.63l0 0 0 0c-9.8,0 -21.24,1.64 -34.32,1.64 -163.41,-387.3 -326.83,-772.96 -490.24,-1160.26 -73.54,0 -145.44,0 -218.98,0 4.9,13.07 11.44,27.78 16.34,40.85 183.03,434.69 366.05,869.38 549.08,1302.43 3.26,6.54 4.9,11.44 8.17,17.97 4.9,3.3 11.43,3.3 17.97,3.3z"/>
  <path fill="#2B2A29" stroke="#2B2A29" stroke-width="17.64" stroke-miterlimit="22.9256" d="M3948.85 11067.81l368.86 817.75c53.71,119.06 152.98,388.82 225.89,465.87 74.85,79.11 203.03,133.42 338.18,43 164.51,-110.07 277.63,-377.1 315.75,-536.52 80.61,-337.19 -68.44,-749.62 -332.97,-967.65 -143.41,-118.2 -391.7,-237.09 -605.36,-250.38 -290.48,-18.05 -425.64,165.74 -310.35,427.93z"/>
  <path fill="#2B2A29" stroke="#2B2A29" stroke-width="17.64" stroke-miterlimit="22.9256" d="M6434.37 12217.43l611.69 -1381.87c48.43,-109.44 30.65,-129.78 -87.78,-163.12 -246.09,-69.29 -548.71,-33.75 -768.4,101.68 -275.14,169.65 -398.91,442.84 -517.24,724.49l-673.85 1525.69c-18.45,41.77 -23.46,60.41 -9.99,83.27 30.77,52.23 135.83,72.05 224.49,82.32 365.22,42.31 585.28,-50.81 815.45,-263.18 230.65,-212.78 283.94,-422.33 405.63,-709.28z"/>
 </g>
</svg>
